<svg width="595" height="159" version="1.1" viewBox="0 0 594.9671 159.0157" xmlns="http://www.w3.org/2000/svg" xmlns:xlink="http://www.w3.org/1999/xlink">
 <defs>
  <linearGradient id="linearGradientSlvr" x1="-1869" x2="-1869" y1="794.4" y2="828" gradientTransform="matrix(1.301,0,0,1.301,1365,-35.3)" gradientUnits="userSpaceOnUse">
   <stop style="stop-color:#696969" offset="0"/>
   <stop style="stop-color:#c7c7c9" offset=".17"/>
   <stop style="stop-color:#f9f9ff" offset=".36"/>
   <stop style="stop-color:#ccccce" offset=".73"/>
   <stop style="stop-color:#696969" offset="1"/>
  </linearGradient>
  <linearGradient id="linearGradient4792" x1="422.2" x2="422.2" y1="2.475" y2="83.74" gradientTransform="scale(.7835 1.276)" gradientUnits="userSpaceOnUse">
   <stop style="stop-color:#1c072d" offset="0"/>
   <stop style="stop-color:#5700aa" offset=".29"/>
   <stop style="stop-color:#4b127b" offset=".64"/>
   <stop style="stop-color:#290a43" offset="1"/>
  </linearGradient>
  <linearGradient id="linearGradient4796" x1="1045" x2="1045" y1="-866.8" y2="-667.1" gradientTransform="matrix(.5122 0 0 .5116 -456 447.2)" gradientUnits="userSpaceOnUse">
   <stop style="stop-color:#141414" offset="0"/>
   <stop style="stop-color:#0a0a0a" offset=".15"/>
   <stop style="stop-color:#6d6d6d" offset=".3"/>
   <stop style="stop-color:#000000" offset=".44"/>
   <stop style="stop-color:#141414" offset=".62"/>
   <stop style="stop-color:#262626" offset=".75"/>
   <stop style="stop-color:#040404" offset="1"/>
  </linearGradient>
  <linearGradient id="linearGradient7702" x1="-1869" x2="-1869" y1="794.4" y2="828" gradientTransform="matrix(1.323 0 0 1.311 2580 -931.5)" gradientUnits="userSpaceOnUse" xlink:href="#linearGradientSlvr"/>
  <linearGradient id="linearGradient8752" x1="-794.1" x2="-794.1" y1="896" y2="998.9" gradientTransform="matrix(1.001 0 0 1.005 1184 -897.8)" gradientUnits="userSpaceOnUse" xlink:href="#linearGradientSlvr"/>
 </defs>
 <g id="trans" transform="matrix(1.017,0,0,1.008,1192,-895.3)">
  <path id="trans-purp" transform="matrix(.9834 0 0 .9922 -1172 888.2)" d="m326.8 110.1c-4.386-0.02722-8.784 0.65-12.68 1.404l-1.604 0.3125v46.28h9.67c0-6.766-0.01658-13.91-0.02344-20.9 2.368 1.649 4.157 1.159 6.91 1.467l-0.00586 0.2012c0.5097 0.2205 1.506 1.919 1.967 2.447 1.81 3.116 2.713 6.674 3.43 9.768v0.0371c0.701 2.658 1.498 4.667 2.582 6.971h10.34c-1.275-2.73-2.589-5.751-3.314-8.369-0.4393-1.715-1.053-3.917-1.572-5.514-1.015-3.074-2.287-5.981-4.492-8.066 1.604-1.038 3.061-2.243 4.188-3.764 1.605-2.153 2.43-4.723 2.43-7.473-0.2712-4.209-2.028-8.019-5.014-10.52-3.75-3.035-8.425-4.263-12.81-4.287zm-45.5 0.03906c-2.585 0.05047-5.256 0.5745-8.961 2.078-4.234 1.718-8.487 6.3-10.87 12.36-2.384 6.055-2.597 13.48-0.2676 19.6 2.329 6.12 6.554 10.57 11.87 12.99 5.721 2.179 11.96 2.162 17.44-0.2324 5.481-2.394 9.585-7.195 11.7-12.45 2.2-6.479 2.258-13.23 0.3398-19.32-1.99-5.88-6.124-10.69-11.3-13.19-2.901-1.122-5.901-1.737-8.85-1.822-0.3686-0.01069-0.7362-0.01307-1.105-0.00586zm246.4 0c-2.585 0.05054-5.255 0.5758-8.961 2.08-4.236 1.719-8.491 6.3-10.87 12.36-2.382 6.055-2.591 13.48-0.2617 19.6 2.329 6.12 6.55 10.57 11.87 12.99 5.721 2.179 11.96 2.162 17.44-0.2324s9.584-7.194 11.7-12.45c2.202-6.479 2.26-13.23 0.3418-19.32-1.991-5.879-6.124-10.69-11.3-13.19-2.903-1.122-5.902-1.738-8.852-1.824-0.3687-0.01072-0.7381-0.01308-1.107-0.00586zm-291.6 0.00195-0.0039 0.00586c-2.245 0-4.339 0.1005-6.289 0.3047-3.037 0.3-5.204 0.692-7.99 1.232v46.24l9.672 0.2012v-19.72c1.201 0.3306 2.373 0.9468 3.512 0.9922 3.025 0.382 6.232 0.09748 8.826-0.8672 3.743-1.501 6.858-3.981 8.68-7.332 1.782-3.942 1.793-8.251 0.0918-11.89-1.995-3.947-5.479-6.632-9.291-7.975-2.203-0.7997-4.614-1.189-7.207-1.189zm-177.9 0.00196-0.003906 0.0039c-4.386-0.0262-8.785 0.6496-12.68 1.404l-1.604 0.3125v46.28h9.672v-20.71c1.21 0.2662 2.256 0.7889 3.512 1.037 0.9592 0.1893 2 0.1147 2.936 0.03516 2.484 1.287 3.657 4.95 4.373 7.195 0.5429 1.73 1.032 3.541 1.461 5.436v0.01953c0.7327 2.575 1.503 4.699 2.58 6.988h10.34l-1.264-2.777c-1.742-3.653-2.421-7.387-3.623-11.11v-0.00976c-0.5547-1.859-1.263-3.573-2.137-5.133-0.5912-1.105-1.424-2.053-2.355-2.928 4.016-2.579 6.567-6.901 6.617-11.24-0.271-4.209-2.026-8.021-5.012-10.52-3.75-3.035-8.426-4.261-12.81-4.285zm-58.05 0.0039v8.215h12.72v38.95h9.729v-38.95h12.78v-8.215zm103.5 0-17.16 47.17h9.941l3.596-10.95h15.15l3.615 10.95h10.36l-17.14-47.17zm32.68 0v47.17h8.83v-30.81l19.47 30.81h8.184v-47.17h-9.01v29.6l-18.69-29.6zm216.9 0v8.215h12.72v38.95h9.73v-38.95h12.78v-8.215zm57.44 0-17.15 47.17h9.939l3.598-10.35h15.15l3.617 10.35h10.35l-17.14-47.17zm30.36 0v8.215h12.72v38.95h9.729v-38.95h12.78v-8.215zm46.84 0v47.17h9.488v-47.17zm70.71 0v47.17h8.83v-30.81l19.47 30.81h8.184v-47.17h-9.012v29.6l-18.69-29.6zm-362.4 0.05469c-3.771 0.04072-7.398 1.228-10.05 3.621-2.552 2.484-3.91 5.696-4.006 9.053 0.1683 4.789 2.519 8.432 5.869 10.94 3.35 2.51 6.805 3.843 10.01 5.779 2.419 1.415 3.725 3.083 4.283 5.643 0 1.565-0.4913 2.674-1.693 3.777-3.202 2.036-6.427 1.702-9.729 1.072-2.66-0.5754-4.479-1.37-6.867-2.422l-3.014 7.471c2.784 1.414 5.967 2.474 8.648 3.037 2.177 0.383 4.277 0.5614 6.361 0.6289 4.417-0.105 8.689-1.269 11.82-4.006 2.731-2.574 4.359-5.96 4.389-9.438-0.161-4.864-2.528-8.609-6.059-11.32-3.238-2.385-6.722-3.951-9.957-5.887-1.383-0.8295-2.482-1.708-3.33-2.613-1.141-1.522-1.053-2.759-0.6992-4.395 1.069-1.978 2.678-2.503 4.682-2.723 2.783 0.08869 5.488 0.4827 8.066 1.225l1.719 0.5137 3.145-7.494-2.074-0.6465c-3.82-1.181-7.745-1.861-11.52-1.82zm85.43 8.113c3.303-0.03568 6.516 1.417 8.408 3.959 2.752 3.698 3.786 7.968 3.869 12.16-0.1241 4.266-1.05 8.461-3.377 11.47-2.327 3.007-5.413 4.656-8.758 4.766-3.566-0.09172-6.539-1.83-8.568-4.301-2.591-3.608-3.528-7.942-3.547-11.92 0.02309-5.859 2.705-12.61 7.527-15.12 1.423-0.6692 2.944-0.9916 4.445-1.008zm246.8 0.04688c3.137 0.01632 6.126 1.638 8.094 4.037 2.586 3.574 3.622 7.846 3.705 12.03-0.1245 4.266-1.053 8.462-3.381 11.47-2.328 3.007-5.408 4.658-8.752 4.768-3.566-0.09172-6.539-1.832-8.568-4.303-2.591-3.608-3.528-7.94-3.547-11.92 0.09528-4.394 1.106-8.693 3.703-12.04 2.492-2.294 5.609-4.063 8.746-4.047zm-470.3 0.05468v0.00586h0.01562c2.19-0.01864 3.906 0.8458 5.594 1.959 1.447 1.247 1.935 2.72 2.203 4.457 0 1.945-0.923 3.419-2.064 4.701-1.387 1.209-2.846 2.387-4.594 2.652-1.616 0.04939-2.987 0.8346-4.219 1.818-0.6253 0.4999-1.533 2.217-1.533 1.488v-16.8c1.533-0.2996 3.252-0.269 4.598-0.2812zm177.9 0 0.00196 0.00391c2.205-0.03024 3.972 0.7422 5.57 1.986 1.605 1.248 2.119 3.029 2.229 4.787-0.2889 4.021-3.389 6.317-6.715 7.307-1.651 0.3313-2.449 0.6832-3.834 1.488-0.7823 0.4543-1.553 1.813-1.857 2.586v-17.91c1.611-0.102 3.263-0.2474 4.605-0.252zm90.14 0.00586c1.323 0.04978 2.594 0.2189 3.678 0.4805h0.0293c2.805 1.283 4.664 3.08 4.711 5.885 0.04993 3.022-1.559 5.319-3.867 6.557-1.264 1.161-4.831 0.815-6.434 2.176-1.857 1.576-1.933 2.275-2.152 3.287-0.00573-6.34-0.00366-12.57 0.03906-18.15 1.297-0.2182 2.673-0.2881 3.996-0.2383zm-218.6 6.873 6.596 18.52c-0.3963-0.5212-1.017-1.813-1.812-2.77-1.102-1.324-1.518-1.704-3.033-1.797h-6.785zm307.1 0 6.27 17.24c-1.147-1.326-1.395-3-4.592-3.498l-6.412-0.293z" style="fill:#290a43"/>
  <path id="trans-slvr" transform="matrix(.9834 0 0 .9922 -1172 888.2)" d="m588 112.1v33.42l0.1211 2.08-0.7207-1.961-21.18-33.53h-5.699v43.23h4.859v-34.55l-0.1211-2.021 0.8398 2.021 21.84 34.54h5.1v-43.23zm-305.7 0.00586c-2.537-0.03243-5.105 0.412-7.545 1.381-5.14 2.057-8.773 5.654-11.28 11.18-2.4 6.194-2.374 13.31-0.2402 19.39 1.893 4.776 5.096 9.127 10.74 11.48 4.776 1.942 10.33 2.203 15.66 0 4.974-2.143 8.548-6.018 10.86-11.6 2.181-5.605 2.084-12.13 0.3008-18.02-0.88-2.735-2.18-5.113-3.9-7.135-3.579-4.218-9.011-6.602-14.59-6.674zm-85.84 0.00195c-1.646 0.00482-3.32 0.2208-5.123 0.8438-1.48 0.555-2.76 1.329-3.84 2.32-2.036 1.896-3.356 4.398-3.361 7.611 0.0314 4.092 1.724 6.843 5.221 9.514 3.055 2.351 6.263 3.335 9.719 5.531 1.48 0.9118 2.721 1.942 3.721 3.092 1 1.11 1.5 2.518 1.5 4.223 0 2.061-0.7799 3.805-2.34 5.232-2.942 2.626-7.65 2.266-11.46 1.547-1.8-0.3568-3.6-0.9317-5.4-1.725l-1.561 3.865c3.865 1.826 7.893 2.537 12.48 2.676 2.28 0 4.299-0.3169 6.059-0.9512 1.76-0.6343 3.24-1.488 4.439-2.559 2.183-1.914 3.583-4.465 3.721-7.967 0.1662-4.169-2.019-7.246-5.279-9.754-1.52-1.15-3.16-2.159-4.92-3.031-3.013-1.713-6.01-3.041-8.641-5.709-1.619-1.715-1.822-4.203-1.08-6.424 0.7041-1.773 1.643-2.433 3.541-3.449 0.9953-0.3238 1.88-0.5352 3-0.5352s2.4 0.1006 3.84 0.2988c1.48 0.1586 3.079 0.4944 4.799 1.01l1.621-3.865c-2.04-0.6343-3.941-1.09-5.701-1.367-1.692-0.2261-3.309-0.4326-4.955-0.4277zm-194.3 0.01172v4.281h12.72v38.95h5.76v-38.95h12.78v-4.281zm55.94 0c-2.2 0-4.239 0.1196-6.119 0.3574-1.88 0.2378-3.94 0.5738-6.18 1.01v42.7h5.699v-39.19c1.946-0.3714 4.328-0.5908 6.6-0.5352 2.382 0.01462 4.778 0.6526 6.9 2.438 1.664 1.446 2.901 3.613 2.879 5.947-0.018 2.219-0.9101 4.402-2.82 6.064-1.576 1.387-3.519 2.306-5.879 2.439-1.28 0.03961-2.381 0.3963-3.301 1.07-0.8799 0.674-1.539 1.526-1.979 2.557 1.12 0.2776 2.18 0.4558 3.18 0.5352 0.9999 0.03971 1.938 0.02073 2.818-0.05859 0.24 0 0.421-0.02084 0.541-0.06055 1.56 0.5947 2.76 1.585 3.6 2.973 1.959 2.974 2.762 6.688 3.66 10.35 0.48 1.943 1.12 3.766 1.92 5.471h6c-0.92-2.022-1.64-3.984-2.16-5.887-0.48-1.943-1.001-3.766-1.561-5.471-0.5199-1.744-1.18-3.331-1.98-4.758-0.7599-1.427-1.879-2.636-3.359-3.627l-1.199-0.4766 1.439-0.4746c2.08-1.031 3.78-2.439 5.1-4.223 2.437-3.342 2.668-7.593 0.9004-11.3-1.639-3.346-4.472-5.497-8.16-6.84-1.96-0.6739-4.139-1.01-6.539-1.01zm52.46 0-5.58 0.00976-15.72 43.23h5.699l3.6-10.35h15.12c-0.44-1.15-1.039-2.14-1.799-2.973-0.7599-0.8721-1.861-1.309-3.301-1.309-2.931 0-5.579-0.04434-8.82 0.1191 2.634-7.542 4.688-12.98 7.381-20.34l0.4199-1.725 0.4199 1.725 12.18 34.84h6.121zm55.09 0v33.42l0.1191 2.082-0.7188-1.963-21.18-33.53h-5.701v43.23h4.861v-34.55l-0.1211-2.021 0.8398 2.021 21.84 34.54h5.1v-43.23zm70.45 0c-2.2 0-4.239 0.09862-6.119 0.2969-1.88 0.1585-3.94 0.4566-6.18 0.8926v42.69l5.699 0.1191v-39.31c2.16-0.2379 4.36-0.3574 6.6-0.3574 2.395 0.01471 4.885 0.8154 6.9 2.498 1.696 1.551 2.788 3.748 2.881 6.244 0 1.269-0.2613 2.437-0.7812 3.508-0.9858 1.923-2.66 3.559-4.799 4.52-1.04 0.4361-2.081 0.6543-3.121 0.6543-1.28 0-2.379 0.3567-3.299 1.07-0.88 0.674-1.54 1.526-1.98 2.557 1.12 0.3171 2.18 0.4956 3.18 0.5352 2.666 0.1001 5.272-0.2807 8.039-1.248 3.078-1.182 5.898-3.301 7.621-6.482 0.8-1.507 1.199-3.211 1.199-5.053 0-1.842-0.3807-3.528-1.141-5.113-1.508-3.247-4.579-5.614-8.158-6.957-1.96-0.7135-4.141-1.07-6.541-1.07zm119.1 0v4.281h12.72v38.95h5.76v-38.95h12.78v-4.281zm62.52 0-5.58 0.00976-15.72 43.23h5.699l3.6-10.35h15.12c-0.44-1.15-1.039-2.14-1.799-2.973-0.76-0.8722-1.861-1.309-3.301-1.309h-8.1l-0.7188 0.1191 0.6582-1.25 6.721-19.09 0.4199-1.725 0.4199 1.725 12.18 34.84h6.121zm25.27 0v4.281h12.72v38.95h5.76v-38.95h12.78v-4.281zm46.91 0v43.23h5.52v-43.23zm38.36 0c-4.872 0.03591-9.755 2.003-13.62 5.529-4.362 4.217-6.516 10.36-6.6 16.81 0.03069 5.641 1.629 11.92 5.881 16.67 3.596 3.664 8.769 5.848 14.34 5.947 5.084-0.03679 10.27-2.103 14.16-6.066 3.967-4.247 5.98-10.19 6.061-16.41-0.02975-5.396-1.509-11.19-5.221-15.82-3.559-4.194-9.053-6.58-15-6.66zm-202.7 0.02539c-1.614 0.0351-3.246 0.1709-4.867 0.332-1.88 0.2378-3.942 0.5738-6.182 1.01v42.7h5.701v-39.19c1.44-0.2775 2.619-0.437 3.539-0.4766 2.304-0.09697 4.508-0.1973 6.84 0.5957 2.107 0.7804 4.046 2.278 5.221 4.459 0.52 0.9911 0.7793 2.082 0.7793 3.271-0.01797 2.219-1.073 4.402-2.82 6.064-0.8 0.7136-1.72 1.288-2.76 1.725-1.04 0.4361-2.079 0.6752-3.119 0.7148-1.28 0.03961-2.381 0.3963-3.301 1.07-0.88 0.674-1.54 1.526-1.98 2.557 1.12 0.2776 2.182 0.4558 3.182 0.5352 1 0.03971 1.938 0.02073 2.818-0.05859 0.24 0 0.421-0.02084 0.541-0.06055 1.56 0.5947 2.76 1.585 3.6 2.973 0.88 1.388 1.6 2.974 2.16 4.758 0.56 1.784 1.06 3.647 1.5 5.59 0.48 1.943 1.12 3.766 1.92 5.471h6c-0.92-2.022-1.64-3.984-2.16-5.887-0.48-1.943-1.001-3.766-1.561-5.471-0.52-1.744-1.18-3.331-1.98-4.758-0.76-1.427-1.879-2.636-3.359-3.627l-1.199-0.4766 1.439-0.4746c2.08-1.031 3.78-2.439 5.1-4.223 2.608-3.593 2.995-6.813 0.9004-11.3-0.72-1.546-1.78-2.895-3.18-4.045-1.36-1.189-3.021-2.121-4.98-2.795-2.46-0.8263-5.101-1.043-7.791-0.9844zm202.7 4.314c1.92 0 3.739 0.4155 5.459 1.248 1.72 0.8325 3.22 2.043 4.5 3.629s2.28 3.508 3 5.768c0.76 2.22 1.139 4.717 1.139 7.492-1e-5 2.537-0.3396 4.917-1.02 7.137s-1.639 4.142-2.879 5.768c-1.2 1.625-2.68 2.914-4.439 3.865-1.72 0.9515-3.64 1.428-5.76 1.428-2.04 0-3.921-0.4365-5.641-1.309-1.72-0.9118-3.22-2.16-4.5-3.746-1.24-1.625-2.219-3.547-2.939-5.768-0.68-2.22-1.02-4.679-1.02-7.375 0-2.775 0.3601-5.272 1.08-7.492 0.76-2.26 1.779-4.182 3.059-5.768s2.78-2.796 4.5-3.629c1.72-0.8325 3.541-1.248 5.461-1.248zm-246.7 0.01367c1.898-0.05174 3.91 0.3077 5.801 1.234 3.587 1.775 6.1 4.831 7.5 9.396 0.76 2.22 1.139 4.717 1.139 7.492-0.02236 4.361-0.9788 9.094-3.898 12.9-2.33 3.103-5.829 5.313-10.2 5.293-2.04 0-3.919-0.4365-5.639-1.309-3.933-2.121-6.087-5.418-7.439-9.514-1.411-4.715-1.41-9.877 0.05859-14.87 1.273-3.715 3.305-7.221 7.561-9.396 1.436-0.7197 3.221-1.183 5.119-1.234z" style="fill:url(#linearGradient7702);stroke-width:1.012"/>
 </g>
 <g id="res" transform="matrix(1,0,0,1.005,1182,-897.5)">
  <path id="res-slvr" transform="matrix(1 0 0 .9951 -1182 893)" d="m261.9 3.482c-6.254-0.1289-12.46 1.01-18.56 3.482-12.22 4.945-20.07 14.28-24.51 25.47l0.00391 0.001953c-2.571 6.228-3.855 13.38-3.855 21.48 0 7.651 1.151 14.59 3.455 20.82 4.292 12.15 12.99 21.93 23.93 26.16 12.17 4.667 25.1 4.71 36.56-0.2656 11.38-4.978 20.08-15.04 24.06-26.3 4.513-11.69 4.577-26.98 0.666-39.37-3.769-12.69-11.97-22.35-22.86-27.36-6.319-2.598-12.63-3.996-18.88-4.125zm-83.65 0.5371-0.00977 0.007813c-3.988 0-7.666 0.6211-11.03 1.867-3.367 1.157-6.291 2.805-8.773 4.939-2.482 2.135-4.431 4.715-5.85 7.74-1.329 3.025-1.996 6.362-1.996 10.01 0 4.982 1.106 9.164 3.322 12.54 2.216 3.381 4.964 6.317 8.242 8.809 3.367 2.403 6.957 4.582 10.77 6.539 3.9 1.868 7.488 3.826 10.77 5.873 3.367 1.958 6.159 4.183 8.375 6.674s3.322 5.561 3.322 9.209c0 2.135-0.4429 4.136-1.328 6.004-0.8862 1.868-2.126 3.514-3.721 4.938-1.596 1.335-3.546 2.402-5.85 3.203s-4.919 1.201-7.844 1.201c-3.19 0-6.825-0.4-10.9-1.201-4.077-0.8008-8.24-2.178-12.49-4.135l-3.855 9.74c4.963 2.403 9.968 4.048 15.02 4.938 5.052 0.9787 9.483 1.469 13.29 1.469 5.052 0 9.573-0.6682 13.56-2.002 3.988-1.424 7.354-3.29 10.1-5.604 2.748-2.313 4.829-5.028 6.246-8.143 1.507-3.203 2.262-6.627 2.262-10.28 0-5.072-1.108-9.341-3.324-12.81-2.215-3.559-5.007-6.63-8.375-9.211-3.368-2.669-7-4.981-10.9-6.938-3.9-2.046-7.534-4.093-10.9-6.139-3.367-2.046-6.157-4.228-8.373-6.541-2.216-2.403-3.324-5.292-3.324-8.674 0-3.648 1.285-6.764 3.855-9.344 2.571-2.581 6.202-3.973 10.9-3.973 2.571 0 5.45 0.3246 8.641 0.7695 3.279 0.3561 6.87 1.113 10.77 2.27l3.986-9.609c-4.875-1.512-9.218-2.58-13.03-3.203-3.811-0.6226-7.664-0.9336-11.56-0.9336zm-147.6 1.525c-1.763-2.041e-4 -3.52 0.07301-5.27 0.2109-4.629 0.2585-9.24 0.6989-13.41 1.469-2.393 0.3561-5.006 0.7982-7.842 1.332v95.83h14.49v-86.88c3.013-0.5338 5.405-0.8447 7.178-0.9336 1.861-0.08823 4.032-0.1367 6.514-0.1367 2.836 0 5.495 0.4898 7.977 1.469 2.571 0.8897 4.786 2.136 6.646 3.738 1.861 1.602 3.323 3.514 4.387 5.738 1.152 2.224 1.727 4.583 1.727 7.074 0 2.581-0.5314 4.938-1.596 7.072-0.9747 2.135-2.301 4.003-3.986 5.604-1.596 1.602-3.458 2.892-5.584 3.871-2.127 0.8896-3.151 1.78-5.277 1.869-2.836 0.1778-5.23 1.399-7.18 3.268-1.95 1.868-3.013 2.96-3.988 5.273 2.038 0.5338 3.557 0.5996 5.418 0.7773 1.95 0.1777 3.799 0.212 5.482 0.123 0.8437 0.05168 1.775-0.03948 2.525-0.1328 3.19 1.512 4.57 4.525 6.342 7.639 1.773 3.114 3.235 6.628 4.387 10.54 1.241 3.826 2.347 7.875 3.322 12.15 0.9748 4.181 2.348 8.14 4.121 11.88h15.02c-2.127-4.627-3.766-9.207-4.918-13.75-1.063-4.627-2.26-8.941-3.59-12.94-1.329-4.093-3.012-7.697-5.051-10.81-1.95-3.203-4.83-5.736-8.641-7.605l3.322-1.205c4.52-2.313 8.154-5.47 10.9-9.475 2.748-4.093 4.119-8.806 4.119-14.15 0-4.093-0.8871-7.92-2.66-11.48-1.684-3.559-4.12-6.627-7.311-9.207-3.191-2.581-7-4.583-11.43-6.006-5.489-1.55-10.85-2.21-16.14-2.211zm358.3 0.1484-14.35 0.003906 0.2012 60.66c0.01941 5.873 0.8408 11.16 2.525 15.88 1.684 4.627 4.076 8.583 7.178 11.88 3.19 3.292 7.045 5.83 11.56 7.609 4.52 1.78 9.66 2.668 15.43 2.668 5.493 0 10.46-0.889 14.88-2.668 4.52-1.868 8.372-4.45 11.56-7.742 3.19-3.38 5.673-7.384 7.443-12.01 1.773-4.716 2.66-9.92 2.66-15.62v-60.66h-14.22v62.8c0 3.826-0.5314 7.295-1.596 10.41-1.064 3.114-2.616 5.785-4.654 8.01-1.95 2.135-4.295 3.781-7.043 4.938-2.748 1.157-5.76 1.734-9.039 1.734-3.367 0-6.428-0.5782-9.176-1.734-2.659-1.157-5.005-2.802-7.043-4.938-1.95-2.224-3.456-4.896-4.52-8.01-1.064-3.114-1.596-6.583-1.596-10.41zm-306.9 1.668v97.02h57.95v-10.81h-43.46v-75.41h41.47v-10.8zm233.5 0v97.02h53.3c-0.1008-3.617 0.1296-7.636 0.1328-10.94h-38.82v-86.08zm140.6 0v10.81h27.26v86.21h14.62v-86.21h27.39v-10.81zm77.49 0v97.02h57.96v-10.81h-43.46v-75.41h41.47v-10.8zm-272.9 7.062c8.801 0.1738 16.62 3.928 21.53 10.81 6.359 8.423 8.695 18.16 8.645 28.69-0.168 10.38-2.72 20.57-8.51 28.43-5.462 7.045-13.53 11.14-21.67 11.21-9.136-0.1295-17.06-4.434-21.93-11.35-6.086-8.497-8.329-18.78-8.375-28.29 0.2042-10.37 2.599-20.72 8.508-28.56 5.475-7.392 13.73-10.87 21.8-10.94zm-144.9 34.38c-1.195 0.003978-2.29 0.06978-3.287 0.5371-1.241 0.6226-2.35 1.224-3.324 2.203-0.9751 0.9787-1.816 2.091-2.525 3.336-0.6202 1.245-1.152 1.935-1.596 3.27h30.7v-9.34l-18.74-0.001954c-0.421 0-0.83-0.005232-1.229-0.003906zm451.6 0c-1.195 0.003978-2.29 0.06978-3.287 0.5371-1.241 0.6226-2.35 1.224-3.324 2.203-0.9751 0.9787-1.816 2.091-2.525 3.336-0.6202 1.245-1.152 1.935-1.596 3.27h30.7v-9.34l-18.74-0.001954c-0.421 0-0.8301-0.005232-1.229-0.003906z" style="fill:url(#linearGradient8752);stroke-width:7.283;stroke:url(#linearGradient8752)"/>
  <path id="res-purp" transform="matrix(1 0 0 .9951 -1182 893)" d="m261.9 3.482c-6.254-0.1289-12.46 1.01-18.56 3.482-12.22 4.945-20.07 14.28-24.51 25.47l0.00391 0.001953c-2.571 6.228-3.855 13.38-3.855 21.48 0 7.651 1.151 14.59 3.455 20.82 4.292 12.15 12.99 21.93 23.93 26.16 12.17 4.667 25.1 4.71 36.56-0.2656 11.38-4.978 20.08-15.04 24.06-26.3 4.513-11.69 4.577-26.98 0.666-39.37-3.769-12.69-11.97-22.35-22.86-27.36-6.319-2.598-12.63-3.996-18.88-4.125zm-83.65 0.5371-0.00977 0.007813c-3.988 0-7.666 0.6211-11.03 1.867-3.367 1.157-6.291 2.805-8.773 4.939-2.482 2.135-4.431 4.715-5.85 7.74-1.329 3.025-1.996 6.362-1.996 10.01 0 4.982 1.106 9.164 3.322 12.54 2.216 3.381 4.964 6.317 8.242 8.809 3.367 2.403 6.957 4.582 10.77 6.539 3.9 1.868 7.488 3.826 10.77 5.873 3.367 1.958 6.159 4.183 8.375 6.674s3.322 5.561 3.322 9.209c0 2.135-0.4429 4.136-1.328 6.004-0.8862 1.868-2.126 3.514-3.721 4.938-1.596 1.335-3.546 2.402-5.85 3.203s-4.919 1.201-7.844 1.201c-3.19 0-6.825-0.4-10.9-1.201-4.077-0.8008-8.24-2.178-12.49-4.135l-3.855 9.74c4.963 2.403 9.968 4.048 15.02 4.938 5.052 0.9787 9.483 1.469 13.29 1.469 5.052 0 9.573-0.6682 13.56-2.002 3.988-1.424 7.354-3.29 10.1-5.604 2.748-2.313 4.829-5.028 6.246-8.143 1.507-3.203 2.262-6.627 2.262-10.28 0-5.072-1.108-9.341-3.324-12.81-2.215-3.559-5.007-6.63-8.375-9.211-3.368-2.669-7-4.981-10.9-6.938-3.9-2.046-7.534-4.093-10.9-6.139-3.367-2.046-6.157-4.228-8.373-6.541-2.216-2.403-3.324-5.292-3.324-8.674 0-3.648 1.285-6.764 3.855-9.344 2.571-2.581 6.202-3.973 10.9-3.973 2.571 0 5.45 0.3246 8.641 0.7695 3.279 0.3561 6.87 1.113 10.77 2.27l3.986-9.609c-4.875-1.512-9.218-2.58-13.03-3.203-3.811-0.6226-7.664-0.9336-11.56-0.9336zm-147.6 1.525c-1.763-2.041e-4 -3.518 0.07301-5.268 0.2109-4.629 0.2585-9.242 0.6988-13.41 1.469-2.393 0.3561-5.006 0.7982-7.842 1.332v95.83h14.49v-86.88c3.013-0.5338 5.405-0.8447 7.178-0.9336 1.861-0.08823 4.032-0.1367 6.514-0.1367 2.836 0 5.495 0.4898 7.977 1.469 2.571 0.8897 4.786 2.136 6.646 3.738 1.861 1.602 3.323 3.514 4.387 5.738 1.152 2.224 1.727 4.583 1.727 7.074 0 2.581-0.5314 4.938-1.596 7.072-0.9747 2.135-2.301 4.003-3.986 5.604-1.596 1.602-3.458 2.892-5.584 3.871-2.127 0.8896-3.852 1.379-5.979 1.469-2.836 0.1778-5.228 1.2-7.178 3.068-1.95 1.868-3.414 3.96-4.389 6.273 2.038 0.5338 3.991 0.8906 5.852 1.068 1.95 0.1777 3.765 0.2217 5.449 0.1328 0.8437 0.05168 1.775-0.03948 2.525-0.1328 3.19 1.512 5.271 3.824 7.043 6.938 1.773 3.114 3.233 6.628 4.385 10.54 1.241 3.826 2.349 7.875 3.324 12.15 0.9748 4.181 2.348 8.14 4.121 11.88h15.02c-2.127-4.627-3.764-9.207-4.916-13.75-1.063-4.627-2.262-8.941-3.592-12.94-1.329-4.093-3.012-7.697-5.051-10.81-1.95-3.203-4.83-5.736-8.641-7.605l3.322-1.205c4.52-2.313 8.156-5.47 10.9-9.475 2.748-4.093 4.117-8.806 4.117-14.15 0-4.093-0.8852-7.92-2.658-11.48-1.684-3.559-4.122-6.627-7.312-9.207-3.191-2.581-6.998-4.583-11.43-6.006-5.489-1.55-10.85-2.21-16.14-2.211zm358.3 0.1484-14.35 0.003906 0.2012 60.66c0.0194 5.873 0.8408 11.16 2.525 15.88 1.684 4.627 4.076 8.583 7.178 11.88 3.19 3.292 7.045 5.83 11.56 7.609 4.52 1.78 9.66 2.668 15.43 2.668 5.493 0 10.46-0.889 14.88-2.668 4.52-1.868 8.372-4.45 11.56-7.742 3.19-3.38 5.673-7.384 7.443-12.01 1.773-4.716 2.66-9.92 2.66-15.62v-60.66h-14.22v62.8c0 3.826-0.5314 7.295-1.596 10.41-1.064 3.114-2.616 5.785-4.654 8.01-1.95 2.135-4.295 3.781-7.043 4.938-2.748 1.157-5.76 1.734-9.039 1.734-3.367 0-6.428-0.5782-9.176-1.734-2.659-1.157-5.005-2.802-7.043-4.938-1.95-2.224-3.456-4.896-4.52-8.01-1.064-3.114-1.596-6.583-1.596-10.41zm-306.9 1.668v97.02h57.95v-10.81h-43.46v-75.41h41.47v-10.8zm233.5 0v97.02h53.3c-0.1008-3.617 0.1296-7.636 0.1328-10.94h-38.82v-86.08zm140.6 0v10.81h27.26v86.21h14.62v-86.21h27.39v-10.81zm77.49 0v97.02h57.96v-10.81h-43.46v-75.41h41.47v-10.8zm-272.5 7.193c8.439 0.05024 16.26 3.8 21.17 10.68h-0.00782c6.359 8.423 8.695 18.16 8.645 28.69-0.168 10.38-2.72 20.57-8.51 28.43-5.462 7.045-13.53 11.14-21.67 11.21-9.136-0.1295-17.06-4.434-21.93-11.35-6.086-8.497-8.329-18.78-8.375-28.29 0.2042-10.37 2.599-20.72 8.508-28.56 5.475-7.392 13.73-10.87 22.17-10.82zm-144.9 33.65c-1.684 0-3.186 0.3105-4.516 0.9336-1.241 0.6226-2.348 1.424-3.322 2.402-0.9751 0.9787-1.818 2.091-2.527 3.336-0.6202 1.245-1.152 2.535-1.596 3.869h32.1v-10.54zm451.6 0c-1.684 0-3.186 0.3105-4.516 0.9336-1.241 0.6226-2.348 1.424-3.322 2.402-0.9751 0.9787-1.818 2.091-2.527 3.336-0.6202 1.245-1.152 2.535-1.596 3.869h32.1v-10.54z" style="fill:url(#linearGradient4792);stroke-width:3.571;stroke:url(#linearGradient4792)"/>
  <path id="res-blck" transform="matrix(1 0 0 .9951 -1182 893)" d="m261.4 3.629c-6.082-0.1091-11.86 1.007-17.62 3.287l0.0039 0.001953c-12.31 5.144-20.96 15.01-24.81 25.57-5.582 14.02-4.669 30.5-0.4023 42.23 2.301 6.216 5.442 11.54 9.424 15.99 4.07 4.351 8.893 7.725 14.47 10.12 12.27 4.609 24.75 4.814 36.49-0.2637 12.21-5.161 19.87-15.36 24.03-26.25 4.623-12.22 4.567-26.93 0.6641-39.3-3.889-12.23-11.14-21.83-22.83-27.31-6.954-2.625-13.34-3.959-19.42-4.068zm-83.12 0.3965 0.00976 0.001953c-3.989 0-7.667 0.6213-11.03 1.867-6.855 2.329-11.81 6.668-14.63 12.68-3.07 7.272-2.644 16.32 1.33 22.55 2.217 3.381 4.963 6.317 8.242 8.809 7.489 5.48 14.35 7.85 21.54 12.41 3.368 1.958 6.159 4.183 8.375 6.674 4.039 4.537 3.986 11.48 1.992 15.21-2.365 4.736-5.679 6.763-9.57 8.141-6.056 2.074-12.79 1.083-18.74 0-4.078-0.8008-8.244-2.177-12.49-4.135l-3.857 9.742c4.964 2.403 9.972 4.047 15.03 4.937 9.236 1.874 18.03 2.253 26.87-0.5352 7.402-2.743 13.11-6.787 16.35-13.75 1.507-3.203 2.262-6.629 2.262-10.28 0-5.072-1.105-9.342-3.322-12.81-4.87-7.735-12.06-12.49-19.28-16.15-6.901-3.847-13.85-7.089-19.28-12.68-5.056-5.7-3.905-13.89 0.5332-18.02 2.571-2.581 6.203-3.871 10.9-3.871 6.736 0.1323 13.47 1.118 19.41 2.939l3.986-9.613c-4.876-1.512-9.22-2.578-13.04-3.201-3.948-0.4277-8.014-0.911-11.59-0.9258zm-145.6 1.568c-8.717-0.069-20.07 1.441-28.19 3.076v95.82h14.5v-86.88c4.553-0.9446 9.577-1.065 13.69-1.068 2.836 0 5.499 0.4877 7.98 1.467 7.62 2.781 12.67 9.197 12.77 16.55-0.0402 7.671-5.437 13.78-11.17 16.55-2.127 0.8896-4.254 1.379-6.381 1.469-2.836 0.1778-5.228 1.201-7.178 3.07-1.95 1.868-3.416 3.958-4.391 6.271 2.038 0.5338 3.991 0.891 5.852 1.068 2.412 0.2276 4.381 0.1309 6.648 0.1309 0.4433 0 0.8861-0.04122 1.33-0.1309 3.191 1.512 5.672 3.823 7.445 6.938 3.865 7.317 6.005 15.27 7.711 22.69 0.9749 4.181 2.348 8.139 4.121 11.88h15.03c-2.128-4.627-3.768-9.207-4.92-13.75-2.104-8.398-4.198-16.87-8.643-23.76-1.95-3.203-4.831-5.737-8.643-7.605l3.324-1.205c4.521-2.313 8.158-5.471 10.9-9.475 5.11-7.743 5.327-17.69 1.459-25.62-3.951-7.846-11.31-12.77-18.75-15.21-4.343-1.512-9.174-2.27-14.5-2.27zm341.9 0.001953v60.86c0.1335 11.86 3.075 20.61 9.703 27.77 8.641 8.155 17.98 10.22 27.29 10.28 11.34 0.00898 19.8-3.648 26.45-10.41 7.933-8.415 10.05-18.11 10.1-27.62v-60.86h-14.53v62.99c-0.09907 7.267-1.949 13.65-6.252 18.42-4.563 5.064-9.68 6.513-15.79 6.672-6.342-0.04845-11.62-1.938-16.22-6.672-4.852-5.808-6.08-12.19-6.113-18.42v-62.99zm-292.4 1.766v97.02h57.96v-10.8h-43.46v-75.41h41.49v-10.8zm233.5 0v97.12h53.31c-0.1014-3.617 0.1296-7.636 0.1328-10.94h-38.83v-86.18zm140.6 0v10.81h27.25v86.21h14.63v-86.21h27.39v-10.81zm77.49 0v97.02h57.96v-10.8h-43.46v-75.41h41.49v-10.8zm-273.1 7.166c3.995-0.07082 7.991 0.8089 12.07 2.785l0.00781-0.003906c9.327 5.033 13.41 12.51 15.92 20.51 2.858 10.77 3.092 21.88 0 31.97-2.828 9.309-8.191 16.7-15.79 20.78-8.06 4.212-17.15 3.736-24.41 0-8.165-4.735-13.21-12.83-15.79-20.91-2.687-10.66-2.921-21.74 0.1328-31.71 2.798-8.792 7.502-16.09 15.79-20.51 4.078-1.828 8.071-2.851 12.07-2.922zm307.3 33.47c-1.684 0-3.39 0.5117-4.719 1.135-4.045 2.173-5.995 5.397-7.447 9.809h32.41v-10.94zm-451.6 0.2012c-1.684 0-3.191 0.3105-4.52 0.9336-4.045 2.173-5.995 5.196-7.447 9.607h31.91v-10.54z" style="fill:url(#linearGradient4796)"/>
 </g>
</svg>
