<svg id="esv" version="1.1" viewBox="0 0 600 208.7" xmlns="http://www.w3.org/2000/svg">
 <path id="fHub" d="m67.98 133.3c31.6-22.81 62.45 2.558 62.75 32.21 0.1164 11.89-17.39 38.97-39.79 36.63-41.96-4.398-47.1-51.41-22.95-68.82z" style="fill:#ffffff"/>
 <path id="fWheel" d="m90.97 117.8c22.3 0 46.59 15.7 46.59 46.69 0.3994 21.87-19.32 44.21-44.83 44.21-25.98 0-46.05-19.84-46.05-45.83 0-26.78 22.91-45.06 44.28-45.06zm36.01 57.83c6.936-21.32-3.63-42.68-27.45-48.92-27.8-4.434-44.13 17.66-44.78 34.28-1.136 19.15 11.71 32.77 24.98 37.6 23.83 7.53 43.28-8.304 47.25-22.95zm-48.73 20.82c-0.439-0.4783-0.4495-0.5756-0.1531-1.435 3.346-6.663 6.143-11.72 9.788-17.98 0.979-1.412 1.437-1.382 4.687 0.3129 4.428 2.31 5.326 3.216 5.988 6.028 1.387 4.481 3.026 8.691 4.011 13.48-4.584 3.432-17.54 2.335-24.32-0.4063zm22.79 0.3839c-0.7997-0.3365-2.438-1.832-2.807-2.561-0.5377-1.064-3.026-12.16-2.782-12.4 0.2402-0.2457 0.9579-0.2713 1.377-0.04942 0.8275 0.4388 0.2895-0.5905-0.6427-1.229-1.268-0.8689-6.331-3.44-6.774-3.44-0.7975 0-1.255 0.5638-2.666 3.289-0.8074 1.559-2.632 4.877-4.056 7.375-3.392 5.955-3.614 6.435-3.428 7.442 0.2001 1.092 0.7811 0.8777 0.7811-0.2875 0-0.587 0.1964-1.094 0.6402-1.65 1.949-3.195 7.519-16.25 9.044-15.01 0.5554 0.00402 2.573 1.031 3.006 1.531 1.962 6.228 2.454 9.521 3.939 15.57 0.2879 0.7655 0.2732 1.978-0.02943 2.45-0.1763 0.2753-0.2767 0.5456-0.2229 0.6005 1.957 0.1424 5.316-1.129 4.62-1.624zm-1.709-22.6c2.856-2.531 6.047-4.202 9.046-4.293 2.647 0.5272 13.03 4.526 15.78 6.337 0.8141 2.371-8.16 14.66-14.68 18.04-3.209 3.183-8.266-15.89-10.15-20.08zm9.802 18.69c0.06298-0.4438-0.6019-0.2519-0.8672-0.363-2.429-6.49-4.953-11.23-6.726-17.5 0.07172-0.6279 1.155-1.286 2.724-1.654 1.773-0.5762 9.757 3.492 13.04 5.096 3.194 1.566 4.029 2.187 4.063 3.026 1.121-0.9576 2.035-3.232 2.607-4.803-0.04148-0.04229-0.8436 0.08547-1.783 0.284-0.9391 0.1985-1.987 0.3609-2.327 0.3609-4.204-1.536-8.125-3.028-11.76-5.41 0.03274-0.2434 0.3873-0.6074 0.7881-0.8088 1.109-0.5572 0.8869-0.777-0.6722-0.6671-2.993 0.6055-5.299 1.722-7.411 3.684-0.5679 1.139-0.5588 1.241 0.2732 3.112 1.955 5.207 4.399 10.62 6.294 15.31 0.2682 0.7002 0.7908 1.424 1.028 1.424 0.5572-0.1772 0.5912-0.6116 0.7338-1.092zm-50.48-20.6c7.931-1.305 14.48-3.129 21.59-3.169 0.8287 1.183 2.442 6.876 1.692 10.12-1.356 2.736-8.757 14.09-9.123 14-3.633 0.2378-17.62-18.75-14.16-20.95zm13.79 20.37c-0.2255-0.9322-0.2902-1.926-0.2447-2.71-0.8951-1.356 4.393-7.604 7.337-11.53 0.6083-0.5602 1.072-0.3127 1.328 0.7087 0.2117 1.07 0.2323 0.8186 0.6411-0.03927-0.04851-4.268-0.08862-10.69-3.884-9.416-5.984 0.8484-12.36 1.787-17.48 3.214-0.2922 0.2989-0.06296 1.069 0.2581 0.8652 5.704-1.013 11.76-2.484 17.2-3.123 1.791-0.3722 3.035 3.955 1.531 5.452-2.666 4.311-8.242 13.95-10.85 12.67-0.9314-0.3026-0.3138 0.5846 1.61 2.312 0.5965 0.892 1.887 1.391 2.552 1.593zm16.39-22.35c1.506-1.764 4.073-1.333 4.733 1.022 0.1543 1.155-0.4959 2.366-1.498 2.852-2.585 0.9947-4.603-1.611-3.235-3.873zm7.07-2.78c0.9194-2.448 3.248-1.955 3.86-1.389 1.673 0.955 1.448 3.353 0.1814 4.206-2.043 1.456-4.727-0.4466-4.04-2.817zm8.523-4.987c0-0.7186 0.9084-4.683 1.378-6.013 1.934-5.553 10.52-8.359 15.98-10.95 4.47 5.574 5.466 15.83 4.324 24.11-1.856 0.9882-22.77-4.296-21.68-7.144zm20.19 6.554c0.1966-0.07734 0.3572-0.3221 0.3572-0.5445 0-0.3319-0.2811-0.4309-1.572-0.5537-5.652-1.542-13.52-2.684-17.17-6.017 0.07885-1.122 0.375-2.034 0.6849-3.108 0.2055-1.914 10.37-5.454 16.1-7.889 0.5813 0 1.057-0.09662 1.057-0.2147 0-0.4585-2.018-4.637-2.241-4.637-0.5617 0.7331-0.8259 1.828-1.155 2.657-0.7457 1.671-1.053 1.879-7.517 5.082-4.87 2.415-5.117 2.455-5.117 0.8597 0-0.8016-0.00804-0.8088-0.4516-0.398-0.2484 0.23-0.4516 0.5164-0.4516 0.6362-1.084 2.951-2.713 7.573-1.575 8.614 5.474 2.622 11.54 3.666 16.47 5.502 0.8987 0.21 1.814 0.1117 2.574 0.01115zm-41.63-4.259c0.9196-0.966 3.271-0.4558 3.796 0.8651 0.9413 1.451-0.1454 3.839-2.392 3.81-2.749-0.3342-3.154-3.562-1.405-4.675zm-25.46 1.804c-1.497 0.00972-1.086-18.24 6.75-24.2 5.174 4.15 10.28 9.159 15.06 13.82 1.122 1.135 1.21 1.3 1.092 2.047-0.7603 2.436-4.451 6.673-6.782 7.118-5.506 0.23-11.17 1.275-16.12 1.216zm0.956-1.773c1.867-1.846 1.889-1.851 8.554-1.725 3.248 0.06217 6.149 0.164 6.446 0.227 0.5348 0.113 0.5307 0.1256-0.3281 1.026-0.945 0.9903-0.9167 1.079 0.1889 0.5907 1.32-0.582 4.792-4.332 5.675-6.13 0.7977-1.623 0.7883-1.643-1.958-4.192-2.983-2.906-6.468-5.894-9.314-8.449-2.101-2.082-3.26-2.672-3.58-1.821-0.07333 0.1948 0.1142 0.4006 0.4887 0.5368 4.603 4.115 9.625 7.985 13.82 12.73 0 0.528-1.972 2.784-2.688 3.075-0.9105 0.3695-16.13 0.3976-17.4 0.03184-0.5529-0.1601-1.05-0.2455-1.105-0.1899-0.1371 0.1403-0.2189 4.553-0.09084 4.907 0.9737 0.773 0.3951 0.1566 1.286-0.6118zm38.08-4.562c0.07734-3.113 3.334-3.446 4.712-1.724 1.27 2.504-0.5504 3.827-1.137 3.943-1.968 0.6607-3.382-0.6288-3.576-2.219zm-13.3-3.081c0.8163-0.9086 2.788-1.551 4.029-0.00804 1.738 2.3-0.5282 4.234-1.659 4.265-2.632 0.04509-3.637-2.377-2.37-4.257zm6.764-0.8223c-0.5464-2.558 1.424-3.584 2.734-3.482 2.97 0.4798 2.96 3.951 0.9042 4.976-1.026 0.3392-2.446 0.5706-3.637-1.493zm4.141-12.1c0.6943-5.429 1.441-11.92 3.108-15.99 4.128-0.3865 14.53 5.209 18.45 9.174 2.558 2.448 2.736 2.978 1.412 4.192-5.977 4.579-15.76 12.14-16.99 11.83-1.256-0.1327-6.688-7.428-5.976-9.208zm7.366 7.933c4.926-3.505 10.5-7.294 14.88-10.97 0.164-0.3137 0.162-0.5896-0.00603-0.9119-0.3068-0.587-0.6863-0.5926-0.8345-0.01276-5.475 4.499-9.698 7.848-15.19 11.32-2.542-2.703-2.381-4.901-1.943-6.985 0.9771-4.69 1.595-8.6 2.713-12.7 0.1709-0.9437 0.6761-1.129 1.148-1.651 0.4059-0.3037 0.3791-0.3451-0.4649-0.7126-1.435-0.6621-3.062-0.7499-4.585-0.9228-0.02505 0.5106 1.834 2.973 1.696 4.829-0.2295 3.243-1.112 6.58-1.717 9.624-0.2343 1.569-0.6053 2.291-1.177 2.291-0.6364-0.433-1.002-0.9086-1.547-1.502-0.1258 0.868 0.1787 1.688 0.3943 2.457 2.943 3.59 3.905 7.243 6.633 5.841zm-33.44-14.25c0.4379-4.21 17.32-11.31 22.42-9.983 0.5276 7.784-0.5168 22.14-1.332 23.24-2.991 0.4144-5.982 0.481-8.973-0.07021-4.114-3.939-11.71-10.36-12.11-13.19zm20.73 12.11c0.5216-0.9598 0.3562-1.463 0.8227-7.308 0.1009-4.449 0.7238-9.307 0.0832-13.32-0.7133-0.1239-0.7645-0.03907-0.7828 1.306-0.05604 6.678-0.6813 12.27-0.9972 18.31-2.405 0.5086-3.885 0.1679-5.166-1.625-3.244-4.15-7.448-7.811-9.852-12.43-0.08144-0.4932-0.2372-0.8966-0.3461-0.8966-1.714 0.6759-3.032 2.626-3.496 3.521 0.193 0.1107 0.4478 0.14 0.5658 0.06539 0.1181-0.07493 0.8821 0.0462 1.697 0.2684 3.645 3.059 6.882 6.901 9.372 10.85-0.6906 0.3988-1.419 0.241-2.068-0.00904-0.3637 0.23 0.1467 0.8597 1.03 1.27 3.257 0.2351 6.495 0.9972 9.138-6.1e-4z" style="fill:#000000"/>
 <path id="trim" d="m395.4 11.82c-9.047-0.2485-2.634-0.5362-7.138-0.01651l9.903 54c6.393-0.3453 5.337-0.6708 10.08-1.725 0.9632-8.364-12.17-46.56-12.84-52.26zm-382.1 76.2c-6.845 10.93-5.873 25.04-8.037 35.19 0.6573 1.877 16.88-5.054 18.81-6.242 2.172-10.72 13.07-25.46 13.06-25.47 13.12-1.548 19.57-4.713 24.34-12.03-9.405-6.623-40.25 0.5032-48.17 8.559zm270.8 84.12c-22.71 1.124-126.4-3.712-134.7 3.87 47.04 3.413 116.6 0.1303 154.2-0.5102 32.52-1.082 68.39-0.28 100.3-3.112-0.5148-0.7108-1.783-1.715-4.148-2.134-7.424-1.314-78.02 3.072-115.7 1.886zm251.6-169.6c-8.282-3.382-21.24 0.3648-27.72-1.431-66.96 0.09227-140-0.5052-189.6 1.45-10.61 0.67-26.07 2.525-34.75 5.764 9.399 0.05518 243.4-2.423 258-1.769z" style="fill:#ffffff"/>
 <path id="brake" d="m563.6 16.03c1.409-0.7641 1.616-0.01928 10.2 13.04 7.641 11.99 15.83 29.19 18.7 38.91 2.084 6.12 3.236 28.14 1.326 28.71-0.5925 0.1745-6.317 2.291-7.464-0.3897-1.01-2.36-0.2152-9.176-0.8403-15.28-1.285-12.3-4.301-23.98-9.195-34.76-4.856-13.28-14.06-22.64-15.56-30.32z" style="fill:#8a112b"/>
 <path id="rHub" d="m435.7 133.3c31.6-22.81 62.45 2.558 62.75 32.21 0.1164 11.89-17.39 38.97-39.79 36.63-41.96-4.398-47.1-51.41-22.95-68.82z" style="fill:#ffffff"/>
 <path id="rWheel" d="m458.7 117.8c22.3 0 46.59 15.7 46.59 46.69 0.3994 21.87-19.32 44.21-44.83 44.21-25.98 0-46.05-19.84-46.05-45.83 0-26.78 22.91-45.06 44.28-45.06zm36.01 57.83c6.936-21.32-3.63-42.68-27.45-48.92-27.8-4.434-44.13 17.66-44.78 34.28-1.136 19.15 11.71 32.77 24.98 37.6 23.83 7.53 43.28-8.304 47.25-22.95zm-48.73 20.82c-0.439-0.4783-0.4495-0.5756-0.1531-1.435 3.346-6.663 6.143-11.72 9.788-17.98 0.979-1.412 1.437-1.382 4.687 0.3129 4.428 2.31 5.326 3.216 5.988 6.028 1.387 4.481 3.026 8.691 4.011 13.48-4.584 3.432-17.54 2.335-24.32-0.4063zm22.79 0.3839c-0.7997-0.3365-2.438-1.832-2.807-2.561-0.5377-1.064-3.026-12.16-2.782-12.4 0.2402-0.2457 0.9579-0.2713 1.377-0.04942 0.8275 0.4388 0.2895-0.5905-0.6427-1.229-1.268-0.8689-6.331-3.44-6.774-3.44-0.7975 0-1.255 0.5638-2.666 3.289-0.8074 1.559-2.632 4.877-4.056 7.375-3.392 5.955-3.614 6.435-3.428 7.442 0.2001 1.092 0.7811 0.8777 0.7811-0.2875 0-0.587 0.1964-1.094 0.6402-1.65 1.949-3.195 7.519-16.25 9.044-15.01 0.5554 0.00402 2.573 1.031 3.006 1.531 1.962 6.228 2.454 9.521 3.939 15.57 0.2879 0.7655 0.2732 1.978-0.02943 2.45-0.1763 0.2753-0.2767 0.5456-0.2229 0.6005 1.957 0.1424 5.316-1.129 4.62-1.624zm-1.709-22.6c2.856-2.531 6.047-4.202 9.046-4.293 2.647 0.5272 13.03 4.526 15.78 6.337 0.8141 2.371-8.16 14.66-14.68 18.04-3.209 3.183-8.266-15.89-10.15-20.08zm9.802 18.69c0.06298-0.4438-0.6019-0.2519-0.8672-0.363-2.429-6.49-4.953-11.23-6.726-17.5 0.07172-0.6279 1.155-1.286 2.724-1.654 1.773-0.5762 9.757 3.492 13.04 5.096 3.194 1.566 4.029 2.187 4.063 3.026 1.121-0.9576 2.035-3.232 2.607-4.803-0.04148-0.04229-0.8436 0.08547-1.783 0.284-0.9391 0.1985-1.987 0.3609-2.327 0.3609-4.204-1.536-8.125-3.028-11.76-5.41 0.03274-0.2434 0.3873-0.6074 0.7881-0.8088 1.109-0.5572 0.8869-0.777-0.6722-0.6671-2.993 0.6055-5.299 1.722-7.411 3.684-0.5679 1.139-0.5588 1.241 0.2732 3.112 1.955 5.207 4.399 10.62 6.294 15.31 0.2682 0.7002 0.7908 1.424 1.028 1.424 0.5572-0.1772 0.5912-0.6116 0.7338-1.092zm-50.48-20.6c7.931-1.305 14.48-3.129 21.59-3.169 0.8288 1.183 2.442 6.876 1.692 10.12-1.356 2.736-8.757 14.09-9.123 14-3.633 0.2378-17.62-18.75-14.16-20.95zm13.79 20.37c-0.2255-0.9322-0.2902-1.926-0.2447-2.71-0.8951-1.356 4.393-7.604 7.337-11.53 0.6083-0.5602 1.072-0.3127 1.328 0.7087 0.2118 1.07 0.2323 0.8186 0.6411-0.03927-0.04851-4.268-0.08862-10.69-3.884-9.416-5.984 0.8484-12.36 1.787-17.48 3.214-0.2922 0.2989-0.06296 1.069 0.2581 0.8652 5.704-1.013 11.76-2.484 17.2-3.123 1.791-0.3722 3.035 3.955 1.531 5.452-2.666 4.311-8.242 13.95-10.85 12.67-0.9314-0.3026-0.3138 0.5846 1.61 2.312 0.5965 0.892 1.887 1.391 2.552 1.593zm16.39-22.35c1.506-1.764 4.073-1.333 4.733 1.022 0.1543 1.155-0.4959 2.366-1.498 2.852-2.585 0.9947-4.603-1.611-3.235-3.873zm7.07-2.78c0.9194-2.448 3.248-1.955 3.86-1.389 1.673 0.955 1.448 3.353 0.1814 4.206-2.043 1.456-4.727-0.4466-4.04-2.817zm8.523-4.987c0-0.7186 0.9084-4.683 1.378-6.013 1.934-5.553 10.52-8.359 15.98-10.95 4.47 5.574 5.466 15.83 4.324 24.11-1.856 0.9882-22.77-4.296-21.68-7.144zm20.19 6.554c0.1966-0.07734 0.3572-0.3221 0.3572-0.5445 0-0.3319-0.2811-0.4309-1.572-0.5537-5.652-1.542-13.52-2.684-17.17-6.017 0.07885-1.122 0.375-2.034 0.6849-3.108 0.2055-1.914 10.37-5.454 16.1-7.889 0.5813 0 1.057-0.09662 1.057-0.2147 0-0.4585-2.018-4.637-2.241-4.637-0.5617 0.7331-0.8259 1.828-1.155 2.657-0.7457 1.671-1.053 1.879-7.517 5.082-4.87 2.415-5.117 2.455-5.117 0.8597 0-0.8016-0.00804-0.8088-0.4516-0.398-0.2484 0.23-0.4516 0.5164-0.4516 0.6362-1.084 2.951-2.713 7.573-1.575 8.614 5.474 2.622 11.54 3.666 16.47 5.502 0.8987 0.21 1.814 0.1117 2.574 0.01115zm-41.63-4.259c0.9196-0.966 3.271-0.4558 3.796 0.8651 0.9413 1.451-0.1454 3.839-2.392 3.81-2.749-0.3342-3.154-3.562-1.405-4.675zm-25.46 1.804c-1.497 0.00972-1.086-18.24 6.75-24.2 5.174 4.15 10.28 9.159 15.06 13.82 1.122 1.135 1.21 1.3 1.092 2.047-0.7603 2.436-4.451 6.673-6.782 7.118-5.506 0.23-11.17 1.275-16.12 1.216zm0.956-1.773c1.867-1.846 1.889-1.851 8.554-1.725 3.248 0.06217 6.149 0.164 6.446 0.227 0.5348 0.113 0.5307 0.1256-0.3281 1.026-0.945 0.9903-0.9167 1.079 0.1889 0.5907 1.32-0.582 4.792-4.332 5.675-6.13 0.7977-1.623 0.7883-1.643-1.958-4.192-2.983-2.906-6.468-5.894-9.314-8.449-2.101-2.082-3.26-2.672-3.58-1.821-0.07333 0.1948 0.1142 0.4006 0.4888 0.5368 4.603 4.115 9.625 7.985 13.82 12.73 0 0.528-1.972 2.784-2.688 3.075-0.9105 0.3695-16.13 0.3976-17.4 0.03184-0.5529-0.1601-1.05-0.2455-1.105-0.1899-0.1371 0.1403-0.2189 4.553-0.09084 4.907 0.9737 0.773 0.3951 0.1566 1.286-0.6118zm38.08-4.562c0.07734-3.113 3.334-3.446 4.712-1.724 1.27 2.504-0.5504 3.827-1.137 3.943-1.968 0.6607-3.382-0.6288-3.576-2.219zm-13.3-3.081c0.8163-0.9086 2.788-1.551 4.029-0.00804 1.738 2.3-0.5282 4.234-1.659 4.265-2.632 0.04509-3.637-2.377-2.37-4.257zm6.764-0.8223c-0.5464-2.558 1.424-3.584 2.734-3.482 2.97 0.4798 2.96 3.951 0.9042 4.976-1.026 0.3392-2.446 0.5706-3.637-1.493zm4.141-12.1c0.6942-5.429 1.441-11.92 3.108-15.99 4.128-0.3865 14.53 5.209 18.45 9.174 2.558 2.448 2.736 2.978 1.412 4.192-5.977 4.579-15.76 12.14-16.99 11.83-1.256-0.1327-6.688-7.428-5.976-9.208zm7.366 7.933c4.926-3.505 10.5-7.294 14.88-10.97 0.164-0.3137 0.162-0.5896-0.00603-0.9119-0.3068-0.587-0.6863-0.5926-0.8345-0.01276-5.475 4.499-9.698 7.848-15.19 11.32-2.542-2.703-2.381-4.901-1.943-6.985 0.9771-4.69 1.595-8.6 2.713-12.7 0.1709-0.9437 0.6761-1.129 1.148-1.651 0.4059-0.3037 0.3791-0.3451-0.4649-0.7126-1.435-0.6621-3.062-0.7499-4.585-0.9228-0.02505 0.5106 1.834 2.973 1.696 4.829-0.2295 3.243-1.112 6.58-1.717 9.624-0.2343 1.569-0.6053 2.291-1.177 2.291-0.6364-0.433-1.002-0.9086-1.547-1.502-0.1258 0.868 0.1787 1.688 0.3943 2.457 2.943 3.59 3.905 7.243 6.633 5.841zm-33.44-14.25c0.4379-4.21 17.32-11.31 22.42-9.983 0.5276 7.784-0.5168 22.14-1.332 23.24-2.991 0.4144-5.982 0.481-8.973-0.07021-4.114-3.939-11.71-10.36-12.11-13.19zm20.73 12.11c0.5216-0.9598 0.3562-1.463 0.8227-7.308 0.101-4.449 0.7238-9.307 0.0832-13.32-0.7133-0.1239-0.7645-0.03907-0.7828 1.306-0.05604 6.678-0.6813 12.27-0.9972 18.31-2.405 0.5086-3.885 0.1679-5.166-1.625-3.244-4.15-7.448-7.811-9.852-12.43-0.08144-0.4932-0.2372-0.8966-0.3461-0.8966-1.714 0.6759-3.032 2.626-3.496 3.521 0.193 0.1107 0.4478 0.14 0.5658 0.06539 0.1181-0.07493 0.8821 0.0462 1.697 0.2684 3.645 3.059 6.882 6.901 9.372 10.85-0.6906 0.3988-1.419 0.241-2.068-0.00904-0.3637 0.23 0.1467 0.8597 1.03 1.27 3.257 0.2351 6.495 0.9972 9.138-6.1e-4z" style="fill:#000000"/>
 <path id="body" d="m308.1 2.971c-6.166 0.7284-18.34 1.996-29.37 5.498-12.7 0.1653-29.81 1.326-37.56 2.218-1.65 0.1899-5.407 0.3885-8.142 1.298-1.161 0.3859-0.5895-3.174-4.355-1.747 0.3695-4.87-1.698-4.284-6.737-1.343-2.586 2.732-0.1 5.884-9.769 9.848-22.96 11.27-47.8 31.09-65.03 46.94-29.22 1.61-60.95 2.643-85.22 6.444-12.35 1.694-36.61 5.119-46.03 9.936-7.92 3.534-11.87 19.12-13.23 26.55-2.765 10.92-2.767 28.28-2.624 36.4 0.2956 15.68 1.805 16.87 4.701 21.25 3.232 8.579 8.526 7.055 12.91 12.98 0.3709 1.634 0.5074 6.761 1.784 7.494 6.824 1.32 16.65 2.313 23.48 1.821-2.675-34.75-1.279-60.42 16.21-69.74 19.66-9.399 57.85-12.59 72.49 0 8.946 14.6 8.436 25.01 12.66 41.28 0.2956 5.132 2.654 15.62 3.412 19.07 0.748 0.2964 10.32 0.5424 20.32 0.3707 39.75 0.04741 81.92 0.9329 123.3 0.4452 38.13-0.9233 78.53-3.608 113.5-4.644 2.142-7.246 2.192-10.29 3.017-15.88 2.599-22.11 8.271-40.8 19.42-47.75 14.42-10.26 56.57-7.443 68.03 0 5.736 2.259 17.74 28.14 19.07 53.97 6.133-0.3986 30.26-2.685 40.14-3.504 20.78-1.722 29.67-2.957 29.77-3.381 0.718 0.03218 11.39-13.91 14.2-21.02 1.474-5.685 1.318-11.02 1.373-15.13 0.1619-4.069 0.5515-9.849-1.658-12.08-1.984-3.165-2.532-1.986-3.3-3.654 0.3167-2.247-0.1575-4.191-0.7722-10.54l-6.853-0.3491c-0.1491-3.642 0.4018-5.222-0.09084-7.723-1.137-14.77 0.127-12.61-2.429-23.52-2.96-8.664-10.82-26.78-13.11-30.71-5.24-8.813-5.318-9.019-10.31-16.9-0.4212-1.453 4.793 0.01072 4.633 0.2076-3.374-5.207 0.9769 1.243 5.462-2.92-0.3667-1.678 2.23-7.025-6.551-7.703-6.093-0.5726-15.78-0.1699-23.48-1.099-4.481-2.415-2.794-3.469-10.18-5.067-28.43-1.296-81.54-0.2425-128.1 0.5641-8.122 0.296-86.54 0.01588-95.11 1.797zm219.2-0.9678c6.804-0.3315 7.228 1.99 12.33 3.873-101.4-0.6707-174.9-0.02068-255.6 2.326 2.527-0.7437 16.89-3.125 24.35-4.237 5.442-1.228 59.15-1.911 90.16-1.906 13.61-0.139 120.9-0.7412 128.7-0.05529zm-129.4 59.95c-2.191-14.44-5.561-29.46-9.05-47.16l-0.5014-2.467c1.994 0.01123 3.666 0.1152 5.623 0.1295 7.317 22.17 9.041 33.68 12.86 49.11-0.3249 3.158-3.316 2.693-8.697 2.816zm-339.5 17.88c-2.999 4.85-5.086 6.637-9.359 7.562-11.05 1.375-15.71 2.542-18.48 6.518-5.668 5.767-5.097 16.22-12.83 24.32-2.642 1.013-8.501 2.394-10.4 2.055 0.2302-4.44 4.317-30.1 6.651-31.59 17.68-8.369 28.45-6.772 44.42-8.863zm343.6 92.06c-37.18 2.309-96.89 2.236-111 2.982-14.58 0.2022-32.6 0.5082-47.82 0.6091-33.79 0.03662-83.1 1.834-91.89 0.1523 0.4139-0.6436 2.283-1.748 3.512-1.231 7.335 0.5302 71.37-0.3134 136-1.122 41.19-0.5156 74.77-1.938 109.6-2.687z" style="fill:#000000"/>
 <path id="dDTrim" d="m285.3 14.51c-22.43-0.02721-50.06-0.6451-71.37 10.39-18.65 12.29-42.29 24.18-54.17 43.6 0.7047 1.737 1.866 3.141 3.813 3.964l119.8-4.287 0.2475-3.388-119 3.733c0.2479-7.751 38.54-34.9 53.93-41.61 22.63-9.858 46.73-9.076 66.71-9.845zm-10.9 66.57-30.1 1.387 0.5536 5.272 32.74-0.972zm7.345 45.83-123.7 2.03 2.498 10.68 121.6-6.874z" style="fill:#ffffff"/>
 <path id="dDoor" d="m285.3 14.71c-24.65 0.7226-35.83 1.196-43.59 2.643-18.46 2.666-32.7 10.09-47.56 20.66-9.597 7.551-23.39 17.6-31.75 27.25-0.9422 1.286-5.325 7.191 5.264 6.445 15.93-0.3879 35.39-1.115 51.5-1.655 24.35-0.513 39.23-1.729 64.28-2.258l0.1776-2.761c-56.13 1.237-98.06 3.81-105 3.93-3.327 0.05764-15.61 1.399-14.79-0.4541 2.33-7.061 19.58-21.09 33.84-30.54 23.5-15.93 36.58-18.59 66.37-20.59 9.57-0.2593 10.79-0.3535 21.23-0.6079zm-10.55 68.25c-1.656-1.439-16.94-0.3789-21.53-0.1058-12.27 0.5201-6.848 4.925-4.853 4.244 9.468-0.9744 22.02 0.1518 26.85-1.542zm7.056 44.28c-17.93 0.3968-26.31 0.9929-43.55 1.237-27.24 0.4823-54.57 0.8995-78.72 1.574 0.2832 10.28 1.706 8.748 11.3 7.735 42.69-2.358 73.29-4.393 111.2-5.19zm-118.4 39.4c-6.906-14.28-7.491-31.08-9.688-47.24-0.3563-15.4-1.676-31.66-0.6-45.79 0.7561-4.513 2.229-7.815 4.571-10.39 2.556-3.235 6.972-6.967 10.51-9.808 9.094-7.642 18.7-14.37 28.77-21.43 12.53-8.517 26.15-14.57 41.09-17.2 10.17-2.353 19.46-2.544 28.97-2.595l18.34-0.2092c-0.4175 17.74-0.1719 37.35-2.114 57.34 0 0-1.371 26.04-1.521 40.37-0.08641 8.272-0.01197 16.14 0.2791 23.66 1.173 17.08 2.823 20.06 5.16 32.63z" style="fill:#000000"/>
 <path id="rDTrim" d="m371.6 78.31c-5.717 1.131-11 0.7763-10.73 3.994 0.4986 1.687 3.94 1.848 12.51 1.517 5.4-0.7569 19.3-0.339 19.35-2.686-0.1702-3.934-5.604-3.849-21.13-2.825zm-89.63 54.54 110.7-3.574c4.227-5.249 2.374-2.316 3.643-6.795l-114.5 4.585m1.616-58.61 0.277-3.708 113.7-3.033 0.4292 2.783zm1.811-51.39 0.04-2.562c34.36-0.8008 68.88-2.676 103.2-2.384l0.5117 2.899c-36.11-0.06602-72.81 1.348-103.7 2.047z" style="fill:#ffffff"/>
 <path id="rD" d="m283.6 65.03c40.77-0.8967 82.02-2.38 113.7-3.08l0.3536 2.436c-17.95 0.195-110.6 3.631-114.2 3.41 0.02591-0.7069 0.1452-2.205 0.1549-2.765zm105.2-50.16c-35.04-0.424-71.35 0.9488-103.6 1.9l0.03-2.062c31.34-0.9909 68.21-2.593 103.1-2.391m-16.77 70.84c-10.98 0.4277-9.336 1.055-9.407-2.72 4.483-1.933 25.65-2.692 28.91-1.51 0.6698 0.6792 1.534 2.572 0.4288 2.916-3.544 1.103-14.84 0.6504-19.94 1.313zm-89.86 44.09c40.32-0.8836 80.35-2.559 113.3-3.447 0.9566 0.6355-1.128 2.543-3.896 3.895-40.12 1.331-75.97 4.211-109.2 4.907zm115.7 35.53c2.589-28.18 6.661-59.05 2.004-88.92-3.329-21.35-7.508-43.22-11.64-64.32l-102.5 2.447c-0.2659 10.39-0.04319 34.04-2.114 57.34-0.9483 14.78-1.406 32.76-1.521 40.37-0.1722 9.664-0.08823 17.51 0.2793 23.66 0.718 12.27 2.466 20.16 5.161 32.63z" style="fill:#000000"/>
</svg>
