<svg id="esv" width="600" height="206" version="1.1" viewBox="0 0 600 206.01548" xmlns="http://www.w3.org/2000/svg">
 <path id="fHub" d="m76.55 129.8c31.46-22.71 62.18 2.547 62.47 32.07 0.1159 11.84-17.31 38.8-39.62 36.47-41.78-4.379-46.89-51.18-22.85-68.52z" style="fill:#ffffff;stroke-width:1.926"/>
 <path id="fWheel" d="m99.44 114.4c22.2 0 46.39 15.63 46.39 46.48 0.3976 21.77-19.24 44.02-44.63 44.02-25.87 0-45.85-19.75-45.85-45.63 0-26.66 22.81-44.86 44.09-44.86zm35.85 57.58c6.906-21.23-3.614-42.49-27.33-48.7-27.68-4.415-43.94 17.58-44.58 34.13-1.131 19.07 11.66 32.63 24.87 37.43 23.73 7.497 43.09-8.268 47.04-22.85zm-48.52 20.73c-0.4371-0.4762-0.4475-0.5731-0.1524-1.429 3.331-6.634 6.116-11.67 9.745-17.9 0.9747-1.406 1.431-1.376 4.666 0.3115 4.409 2.3 5.303 3.202 5.962 6.002 1.381 4.461 3.013 8.653 3.993 13.42-7.8 4.076-17 2.666-24.21-0.412zm22.02 1.192c1.196-0.5548 1.218-0.581 0.6744-0.8098-0.7962-0.335-2.427-1.824-2.795-2.55-0.5353-1.059-3.013-12.11-2.77-12.35 0.2391-0.2446 0.9537-0.2701 1.371-0.0492 0.8239 0.4369 0.2882-0.5879-0.6399-1.224-1.262-0.8651-6.303-3.425-6.744-3.425-0.794 0-1.249 0.5613-2.654 3.275-0.8039 1.552-2.62 4.856-4.038 7.343-3.377 5.929-3.598 6.407-3.413 7.409 0.1992 1.087 0.7777 0.8738 0.7777-0.2862 0-0.5844 0.1955-1.089 0.6374-1.643 0.6519-0.8183 1.533-2.435 4.196-7.701 3.184-6.297 3.816-7.251 4.808-7.243 0.553 4e-3 2.562 1.026 2.993 1.524 1.953 6.201 2.443 9.479 3.922 15.5 0.2866 0.7621 0.272 1.969-0.0293 2.439-0.1755 0.2741-0.2755 0.5432-0.2219 0.5979 1.368 0.0595 2.68-0.4257 3.926-0.7971zm7.141-2.758c-2.666-6.661-6.463-14.2-8.168-20.55 2.843-2.52 6.02-4.184 9.006-4.274 4.238 0.9454 8.555 2.618 12.24 4.078 0.7927 0.2329 3.19 1.773 3.473 2.231 0.3332 0.5405-0.2219 2-1.918 5.039-3.115 5.582-7.064 8.913-12.7 12.92-1.166 0.8289-1.686 0.5033-1.93 0.553zm1.591-1.942c0.0627-0.4419-0.5993-0.2508-0.8634-0.3614-2.418-6.461-4.931-11.18-6.696-17.42 0.0714-0.6251 1.15-1.28 2.712-1.647 1.765-0.5737 9.714 3.477 12.98 5.074 3.18 1.559 4.011 2.177 4.045 3.013 8e-3 0.1898 0.2718-0.069 0.5864-0.575 0.6819-1.097 2.115-4.099 2.009-4.207-0.0413-0.0421-0.8399 0.0851-1.775 0.2828-0.935 0.1976-1.978 0.3593-2.317 0.3593-4.186-1.529-8.089-3.015-11.71-5.386 0.0326-0.2423 0.3856-0.6047 0.7846-0.8052 1.104-0.5548 0.883-0.7736-0.6692-0.6642-2.98 0.6028-5.276 1.714-7.378 3.668-0.5654 1.134-0.5563 1.236 0.272 3.098 1.946 5.184 4.38 10.57 6.266 15.24 0.267 0.6971 0.7873 1.418 1.023 1.418 0.622-0.0372 0.6684-0.9797 0.7359-1.079zm-38.28-0.3745c-5.66-4.968-11.12-11.87-12.48-19.42 0-0.2446 0.2277-0.5652 0.5059-0.7124 7.896-1.299 14.42-3.115 21.5-3.155 0.779 0.4122 0.8555 0.5945 1.406 3.346 0.6361 3.18 0.7441 5.789 0.2789 6.727-1.35 2.724-8.719 14.03-9.083 13.94-0.6417 0.1032-1.461-0.4278-2.129-0.722zm1.752 0.152c0.08131-0.0832 0.03333-0.2924-0.1063-0.4648-0.1666-0.2053-0.214-0.9747-0.1373-2.233 0.1074-1.761 0.1885-2.025 0.9867-3.202 1.241-1.83 5.791-7.79 6.318-8.275 0.6056-0.5577 1.067-0.3113 1.322 0.7056l0.2134 0.8526 0.4249-0.8917c0.591-2.177-0.2404-4.652-0.6043-6.877-0.6507-2.681-0.8651-2.845-3.263-2.498-5.958 0.8447-12.31 1.779-17.4 3.2-0.2909 0.2976-0.06268 1.064 0.257 0.8614 5.679-1.009 11.71-2.473 17.12-3.109 1.232-1e-3 1.611 0.4348 2.123 2.444 0.4413 1.734 0.4357 1.761-0.5987 2.984-3.061 4.13-5.752 7.281-8.73 11.22-0.811 1.206-1.409 1.61-2.069 1.395-0.9273-0.3013-0.3124 0.582 1.603 2.302 0.512 0.9135 2.354 1.86 2.545 1.58zm16.32-22.25c1.499-1.756 4.055-1.327 4.712 1.018 0.1536 1.15-0.4937 2.356-1.491 2.839-2.574 0.9903-4.583-1.604-3.221-3.856zm7.039-2.768c0.9154-2.437 3.234-1.946 3.843-1.383 1.666 0.9508 1.442 3.338 0.1806 4.188-2.034 1.45-4.706-0.4446-4.022-2.805zm27.03 2.294c-3.672-0.8726-7.715-2.34-10.9-3.252-5.989-1.708-7.644-2.575-7.644-4.007 0-0.7154 0.9044-4.662 1.372-5.987 1.926-5.529 10.47-8.322 15.91-10.9 4.45 5.55 5.442 15.76 4.305 24-1.189 0.4899-2.059 0.2173-3.036 0.1424zm1.555-0.7343c0.1957-0.077 0.3556-0.3207 0.3556-0.5421 0-0.3304-0.2799-0.429-1.565-0.5513-5.627-1.535-13.46-2.672-17.09-5.991 0.0785-1.117 0.3733-2.025 0.6819-3.094 5.705-2.566 10.37-6.222 16.03-7.854 0.5787 0 1.052-0.0962 1.052-0.2138 0-0.4565-2.009-4.617-2.231-4.617-0.5592 0.7299-0.8223 1.82-1.15 2.645-0.7424 1.664-1.048 1.871-7.484 5.06-4.849 2.404-5.095 2.444-5.095 0.8559 0-0.7981-8e-3 -0.8052-0.4496-0.3962-0.2473 0.229-0.4496 0.5141-0.4496 0.6334-1.079 2.938-2.701 7.54-1.568 8.576 5.45 2.61 11.49 3.65 16.4 5.478 0.8485 0.198 1.854 0.2628 2.566 0.0102zm-41.45-4.24c0.9156-0.9618 3.257-0.4538 3.779 0.8613 0.9372 1.445-0.1448 3.822-2.381 3.793-2.737-0.3327-3.14-3.546-1.399-4.654zm-25.35 1.796c-0.7162-0.3533-0.8037-0.9476-0.6636-4.515 0.3525-6.353 2.107-12.45 5.213-17.52 0.7166-1.178 1.635-2.05 2.171-2.061 5.151 4.132 10.23 9.119 14.99 13.76 1.117 1.13 1.205 1.294 1.087 2.038-0.757 2.425-4.431 6.644-6.752 7.087-6.006 0.4758-11.47 1.299-16.05 1.209zm0.9518-1.765c1.859-1.838 1.881-1.843 8.516-1.717 3.234 0.0619 6.122 0.1633 6.418 0.226 0.5324 0.1125 0.5284 0.125-0.3267 1.021-0.9408 0.9859-0.9127 1.074 0.1881 0.5881 1.314-0.5794 4.771-4.313 5.65-6.103 0.7942-1.616 0.7848-1.636-1.949-4.174-2.97-2.893-6.44-5.868-9.273-8.412-2.092-2.073-3.246-2.66-3.564-1.813-0.07301 0.194 0.1137 0.3988 0.4866 0.5344 4.583 4.097 9.583 7.95 13.76 12.67 0 0.5257-1.963 2.772-2.676 3.061-0.9065 0.3679-16.06 0.3959-17.32 0.0317-0.5505-0.1594-1.045-0.2444-1.1-0.1891-0.1365 0.1397-0.2179 4.533-0.09044 4.885 1.09 0.0507 0.1566 0.0407 1.285-0.611zm37.91-4.542c0.077-3.099 3.319-3.431 4.691-1.716 1.264 2.493-0.548 3.81-1.132 3.926-1.959 0.6578-3.367-0.626-3.56-2.209zm-13.24-3.067c0.8127-0.9046 2.776-1.544 4.011-8e-3 1.73 2.29-0.5259 4.215-1.652 4.246-2.62 0.0449-3.621-2.367-2.36-4.238zm6.734-0.8187c-0.544-2.547 1.418-3.568 2.722-3.467 2.957 0.4777 2.947 3.934 0.9002 4.954-1.021 0.3377-2.435 0.5681-3.621-1.486zm4.741-9.142c-0.7096-0.9487-0.7216-1.004-0.6182-2.907 0.6912-5.405 1.435-11.87 3.094-15.92 0.3968-0.015 0.7929-0.0168 0.8799-4e-3 7.316 1.36 12.71 4.205 17.49 9.138 2.547 2.437 2.724 2.965 1.406 4.174-5.775 3.943-12.52 9.268-16.92 11.78-2.479-1.17-4.016-4.082-5.33-6.262zm6.715 4.991c4.904-3.49 10.45-7.262 14.81-10.92 0.1633-0.3123 0.1613-0.587-6e-3 -0.9079-0.3055-0.5844-0.6833-0.59-0.8308-0.0127-5.451 4.479-9.655 7.813-15.12 11.27-2.531-2.691-2.371-4.879-1.934-6.954 0.9728-4.669 1.588-8.562 2.701-12.64 0.0146-1.064 0.6731-1.124 1.143-1.644 0.4041-0.3024 0.3774-0.3436-0.4629-0.7095-1.429-0.6592-3.049-0.7466-4.565-0.9187-0.042 0.0405 0.0587 0.3267 0.2248 0.6357 1.57 2.926 1.59 2.98 1.464 4.172-0.2285 3.229-1.107 6.551-1.709 9.582-0.2333 1.562-0.6026 2.281-1.172 2.281-0.6336-0.4311-0.9976-0.9046-1.54-1.495-0.1252 0.8642 0.1779 1.681 0.3926 2.446 1.881 2.329 4.043 7.362 6.611 5.816zm-32.86-13.32c-0.7447-0.6896-0.5554-1.33 0.7557-2.554 6.168-6.039 13.69-8.087 21.13-8.256 0.5253 7.75-0.5145 22.04-1.326 23.14-2.978 0.4126-5.956 0.4789-8.934-0.0699-4.248-4.23-8.435-8.274-11.63-12.26zm20.21 11.19c0.5193-0.9556 0.3546-1.457 0.8191-7.276 0.1005-4.429 0.7206-9.266 0.08283-13.26-0.7102-0.1234-0.7611-0.0389-0.7794 1.3-0.09073 5.5-0.7592 11.01-0.9909 16.48l-0.0019 1.754c-2.394 0.5064-3.868 0.1672-5.143-1.618-3.23-4.132-7.415-7.777-9.809-12.38-0.08108-0.491-0.2362-0.8927-0.3446-0.8927-1.706 0.6729-3.019 2.614-3.481 3.506 0.1922 0.1102 0.4458 0.1394 0.5633 0.0651 0.1176-0.0746 0.8782 0.046 1.69 0.2672 3.629 3.046 6.852 6.871 9.331 10.8 0 0.3589-1.056 0.4232-1.563 0.0951-0.1796-0.1162-0.4028-0.1631-0.4958-0.1041-0.3621 0.229 0.1461 0.8559 1.025 1.264 0.7827 0.3637 1.504 0.429 4.798 0.4332 1.415 0.2109 3.554 0.169 4.3-0.4274z" style="fill:#000000;stroke-width:1.926"/>
 <path id="trim" d="m403.9 10.77c-54.21 0.8339-125.3-2.624-170.9 5.965-28.86 9.26-58.19 29.82-71.42 52.99 11.02 3.539 174.7-2.317 257-4.835-2.719-18.96-9.161-38.36-14.61-54.12zm-19.38 63.32c-5.692 1.126-12.86 2.482-16.15 6.223 0.4964 1.68 10.71 2.865 19.24 2.536 5.376-0.7536 11.74-1.07 15.07-4.774-6.885-4.012-2.208-2.156-18.16-3.984zm-364.8 9.814c-6.815 10.88-6.628 23.37-8.783 33.47 0.6544 1.869 11.73-1.516 13.65-2.699 8.413-5.599 13.01-25.35 13-25.36 15.02-5.448 23-5.474 27.75-12.76-4.708-3.476-41.95 2.226-45.62 7.352l0.0015-0.0015zm248.5-6.791c-4.98 0.8961-13.36 1.659-16.23 4.193 4.197 4.37 10.67 3.166 16.4 2.939 6.022-0.9123 11.54 2.751 18.08-2.852-7.35-2.929-1.819-3.648-18.25-4.28zm126.1 40.35-229.8 7.767 1.669 15.04 237.5-11.68c4.208-5.226 2.559-9.24-9.374-11.13zm-110.7 51.11c-14.66 0.375-143-3.621-127.9 5.418 46.83 3.398 108.6 0.6368 146.1-8.5e-4 32.38-1.077 78.45-0.8312 110.2-3.651-25.19-4.551-96.5-0.5341-128.4-1.767zm259.3-162.9c-7.861-5.455-31.4-2.762-37.85-4.55-68.62-0.0058-117.9-0.9913-187.5 2.03-10.66 1.546-19.7 1.733-28.35 4.957 9.358 0.05494 243.1-2.119 257.2 0.387z" style="fill:#ffffff;stroke-width:1.926"/>
 <path id="brake" d="m567.2 26.1c0.7193-3.593 0.1907-5.661 8.493 7.511 7.607 11.94 14.1 25.64 16.66 33.17 2.075 6.093 3.222 28.58 1.32 28.58-0.6149 0-6.582 1.402-7.724-1.267-1.006-2.35 1.446-8.354 0.8237-14.43-1.279-12.25-4.673-25.83-12.28-35.39-4.542-6.089-9.115-11.21-7.291-18.17z" style="fill:#8a112b;stroke-width:1.926"/>
 <path id="body" d="m308 3.345c-6.139 0.3492-10.65 2.363-21.72 3.312-11.33-0.6715-37.11 2.448-44.82 3.336-2.494 0.287-8.74 0.4348-9.811-0.6359 0.3679-4.849-6.86-2.949-8.023 2.235-1.541 2.25-6.961 7.362-10.76 9.429-22.86 11.22-42.14 25.97-59.29 41.75-29.09 1.603-67.07 3.477-91.24 7.262-12.3 1.687-37.76 5.378-46.02 11.02-5.723 6.056-9.182 18.66-10.54 26.06-2.753 10.87-5.575 26.65-5.432 34.74 0.2943 15.61-0.3644 18.77 2.519 23.13 4.252 9.763 10.65 8.716 14.45 12.36 0.3693 1.627 2.197 4.851 3.468 5.581 6.794 1.314 25.98 1.739 32.12 1.719-2.663-34.6-1.728-57.05 8.807-68.96 19.57-9.358 53.83-7.551 71.5 0 14.97 10.05 15.1 22.64 18.18 39.12 0.2943 5.109 0.044 19.12 1.739 21.15 0.7447 0.2951 4.863 1.198 14.82 1.027 39.58 0.0472 81.56 0.9288 122.8 0.4432 37.96-0.9192 76.35-2.558 111.2-3.59 14.07 0.3989 12.16-3.888 12.05-11.86 0.896-22.95 5.061-41.37 15.69-50.45 13.25-11.6 57.3-4.167 68.39 0 20.09 14.66 16.47 31.65 18.51 57.01 3.662 1.953 27.5-5.106 37.34-5.921 20.69-1.714 28.67-1.946 32.65-4.776 11.19-9.393 13.11-24.96 13.25-35.33 0.1612-4.051 0.7371-11.78-1.087-14.75-1.975-3.151-3.085-1.789-3.849-3.45 0.3153-2.237 0.0312-2.763-0.5808-9.085l-7.293-0.6295c0.6035-2.216 1.152-4.447 0.6615-6.937-1.132-14.71-0.0615-13.87-2.606-24.73-2.947-8.626-12.93-27.51-15.21-30.76-1.326-2.406-2.367-4.105-0.1472-4.956 0.528-0.2023 0.5939-0.5904 1.067-0.8709-0.4194-1.447-1.15-3.843-1.309-3.647 5.758 0.7372 8.304-2.71 5.344-7.231-1.587-2.423-3.137-5.866-11.88-6.541-6.066-0.5701-12.7-1.861-19.9-3.632-4.743-1.558-6.917-3.924-13.42-4.199-28.26-1.192-80.38-1.262-127.3-0.8483-43.56 0.3837-82.69 1.129-94.22 3.115zm217.7-0.7756c6.116 0.5159 11.99 2.451 17.07 4.326-101.2-2.883-165.2-2.518-245.5 0.06012 2.516-0.7404 4.031-1.137 11.46-2.245 5.418-1.223 57.76-2.937 88.64-2.932 50.78-0.04942 89.38-0.8179 128.3 0.7909zm-354.9 62.17c-0.8163 1.845 5.788 1.586 8.9 1.782 11.62-1.605 153.6-3.52 227-6.14-2.181-14.38-5.111-31.1-10.5-46.13-43.41-0.4039-92.34 1.304-132.4 2.388-28.53 0.667-40.78 6.592-64.19 22.45-11.19 7.876-25.28 17.47-28.89 25.64zm25.28-26.65c15.67-10.91 32.37-20.9 46.03-21.96 18.25-3.352 98.42-4.403 159.3-3.957 6.94 21.73 10.08 34.33 13.88 49.69 0.8628 3.078-12.08 1.674-29.06 2.422-52.9 1.358-112.1 2.517-167.3 3.679-16.04 0.5383-32.21 0.6979-48.08 1.084-4.715-0.9495-4.864-4.01-3.925-5.289 9.186-10.26 19.73-18.03 29.17-25.67zm189.3 42.46c-10.93 0.4222-13.41 1.712-13.83-1.58 4.228-2.77 27.79-4.325 28.41-1.268-1.424 3.55-7.93 1.982-14.58 2.848zm-321.4-3.495c-2.986 4.829-7.225 5.01-11.48 5.931-11 1.369-16.86 4.505-17.55 9.873-3.763 9.501-4.229 18.03-12.02 21.02-2.63 1.009-9.31 4.451-10.64 2.61 0.2292-4.42 6.178-31 8.502-32.49 14.85-5.974 28.53-9.429 43.18-6.953zm199.8 6.058c-10.54 1.806-15.51-3.049-3.299-3.567 4.577-0.2719 20.49-0.9985 22.14 0.4343 2.568 4.553-9.183 2.915-18.84 3.133zm131.8 42.81c-84.3 3.889-141.9 2.709-220.5 7.048-7.295 0.9153-8.147 1.598-8.147-6.479 24.04-0.6713 44.39-0.8987 71.51-1.379 54.86-0.7769 116.6-2.755 163.2-3.21 5.182 0.3977-0.7939 2.861-6.041 4.019zm14.14 44.22c-36.67 2.989-105.5 3.851-119.2 3.696-14.52 0.2013-32.64-0.0402-47.8 0.06034-33.64 0.03646-85.03 1.49-87.15 0.09167-0.7619-0.5026 1.03-1.671 1.149-1.709 7.165-0.3008 69.26-0.7264 133.6-1.531 41.01-0.5133 84.41-0.8974 119.4-0.6074z" style="fill:#000000;stroke-width:1.926"/>
 <path id="rHub" d="m440.6 131c33.67-25.83 66.82 7.424 63.45 33.56-2.026 15.75-15.03 35.62-37.47 35.46-39.43-0.2826-49.54-50.95-26.01-69.02z" style="fill:#ffffff;stroke-width:1.926"/>
 <path id="rWheel" d="m465.1 115.5c21.92-0.0705 46.4 15.48 46.19 46.48 0 23.35-19.8 44.02-44.44 44.02-24.57 0.042-45.87-18.86-45.87-44.88 0-25.43 20.12-45.53 44.12-45.61zm38.14 45.97c-0.45-24.81-19.12-36.87-36.29-37.6-23.1-1.179-36.25 19.4-37.51 31.84-2.936 13.18 5.609 30.65 17.02 36.47 24.93 16.18 56.98-3.412 56.79-30.71zm-50.81 32.32c-0.4371-0.4762-0.4475-0.5731-0.1524-1.429 2.972-6.328 6.885-12.82 9.745-17.9 0.9747-1.406 1.431-1.376 4.666 0.3115 4.409 2.3 5.303 3.202 5.962 6.002 1.381 4.461 3.013 8.653 3.993 13.42-0.4012 2.216-17.03 4.055-24.21-0.4122zm22.69 0.3824c-0.7962-0.335-2.427-1.824-2.795-2.55-0.5353-1.059-3.013-12.11-2.77-12.35 0.2391-0.2446 0.9537-0.2701 1.371-0.0492 0.8239 0.4369 0.2882-0.5879-0.6399-1.224-1.262-0.8651-6.303-3.425-6.744-3.425-0.9235-0.4637-4.465 6.706-6.692 10.62-3.377 5.929-3.598 6.407-3.413 7.409 0.1992 1.087 0.7776 0.8738 0.7776-0.2862 0-0.5844 0.1955-1.089 0.6374-1.643 3.266-5.455 4.809-10.08 9.004-14.94 0.553 3e-3 2.562 1.026 2.994 1.524 1.952 6.201 2.442 9.48 3.923 15.5 0.2866 0.762 0.272 1.969-0.0293 2.439-0.1755 0.2741-0.2753 0.5432-0.2219 0.5979 2.015 0.0555 5.382-1.377 4.6-1.607zm6.466-1.949c-2.849-7.401-6.22-13.38-8.166-20.55 0.8886-1.418 3.751-2.647 6.42-3.847 1.366-0.6438 1.533-0.6713 2.585-0.4267 5.45 1.518 11.47 3.483 15.71 6.309 0.3333 0.5405-0.2219 2-1.918 5.039-3.115 5.582-6.792 9.325-12.7 12.92-0.6195 0.8426-1.686 0.8645-1.93 0.553zm1.591-1.942c-0.2139-0.3144-0.5993-0.2508-0.8634-0.3614-2.418-6.461-5.527-12.93-6.696-17.42 0.0715-0.6251 1.15-1.28 2.712-1.647 1.297-0.8928 9.714 3.477 12.98 5.074 3.18 1.559 4.011 2.177 4.045 3.013 8e-3 0.1898 0.2718-0.069 0.5866-0.575 0.6817-1.097 2.115-4.099 2.009-4.207-1.399 0.1763-2.599 0.4366-4.092 0.642-2.354-0.7199-11.07-4.12-11.71-5.386 0.0326-0.2423 0.3856-0.6047 0.7846-0.8052 1.104-0.5548 0.883-0.7736-0.6692-0.6642-2.98 0.6028-5.276 1.714-7.378 3.668-0.5654 1.134-0.5563 1.236 0.272 3.098 2.439 5.581 4.51 11.85 7.289 16.65 0.6219-0.0366 1.038-0.7579 0.7357-1.078zm-50.77-19.79c0-0.2446 0.2275-0.5652 0.5059-0.7124 7.391-0.989 15.12-3.348 21.5-3.155 0.779 0.4122 0.8555 0.5945 1.406 3.346 0.6361 3.18 0.7441 5.789 0.2789 6.727-1.35 2.724-8.719 14.03-9.083 13.94-3.961 0.4726-13.38-14.03-14.61-20.14zm14.23 19.57c0.0813-0.0832 0.0333-0.2924-0.1063-0.4648-0.1666-0.2053-0.214-0.9747-0.1374-2.233 0.1073-1.761 0.1884-2.025 0.9867-3.202 1.241-1.83 5.791-7.79 6.318-8.275 0.6056-0.5577 1.067-0.3113 1.322 0.7056l0.2134 0.8526 0.4249-0.8917c0.6763-1.027-0.2402-4.652-0.6043-6.877-0.6507-2.681-0.8651-2.845-3.263-2.498l-17.4 3.2c-0.2909 0.2976-0.0626 1.064 0.2568 0.8614l17.12-3.109c2.448-0.0721 2.885 4.405 1.524 5.428l-8.73 11.22c-0.811 1.206-1.409 1.61-2.069 1.395-0.9273-0.3013-0.3123 0.5819 1.603 2.302 1.695 2.059 2.162 1.392 2.545 1.581zm16.53-22.4c1.363-1.576 3.98-1.191 4.577 1.048 0.3645 1.782-0.9152 2.762-1.867 3.094-2.995 0.3282-3.966-2.327-2.71-4.142zm6.767-2.633c0.9154-2.452 3.34-1.81 3.887-1.323 2.042 1.538 0.9302 3.729-0.1204 4.323-1.839 1.224-4.496-0.5652-3.768-3.001zm16.19-0.9275c-5.989-1.708-7.644-2.575-7.644-4.007 0-0.7154 0.9044-4.662 1.372-5.987 0.5754-1.63 1.195-2.373 2.995-3.591 4.581-2.73 8.125-6.293 12.91-7.308 0.3876 0.0794 0.7046 0.2784 0.7046 0.4421 3.677 5.419 4.771 16.63 3.6 23.56-0.8545 1.297-9.674-1.876-13.94-3.111zm12.46 2.518c0.1955-0.077 0.3556-0.3207 0.3556-0.5421 0-0.3304-0.2799-0.429-1.565-0.5513-3.94-0.7063-5.844-1.51-8.326-2.215-8.324-2.366-8.767-2.556-8.767-3.776 0.0784-1.117 0.1605-1.982 0.6819-3.094 5.527-2.431 10.84-6.239 16.02-7.854 0.5787 0 1.052-0.0962 1.052-0.2138 0-0.4565-2.009-4.617-2.231-4.617-0.5592 0.7298-0.8224 1.82-1.15 2.646-0.7424 1.664-1.048 1.871-7.484 5.06-4.849 2.404-5.095 2.444-5.095 0.8559 0-0.7981-8e-3 -0.8052-0.4496-0.3962-1.496 2.982-2.993 7.513-2.018 9.21 3.88 1.996 10.87 3.623 15.62 5.159 0.2473 0.1136 0.6014 0.2578 0.7867 0.3202 0.4922 0.1659 2.154 0.1727 2.566 0.0104zm-41.09-4.465c2.352-0.987 3.535 1.111 3.645 1.674 0.4142 1.505-0.7414 3.103-2.366 3.252-3.348-0.2418-3.444-3.934-1.278-4.926zm-25.72 2.021c-0.7164-0.3533-0.8037-0.9476-0.6636-4.515 0.6374-7.071 3.533-18.61 7.384-19.58 3.163 1.826 10.23 9.119 14.99 13.76 1.117 1.13 1.205 1.294 1.087 2.038-1.54 3.148-5.018 7.222-6.752 7.087-5.986 0.714-11.57 1.634-16.05 1.208zm0.9518-1.765c1.859-1.838 1.881-1.843 8.516-1.717 3.234 0.0619 6.122 0.1633 6.418 0.226 0.5324 0.1125 0.5284 0.1251-0.3267 1.021-0.9408 0.9859-0.9127 1.074 0.1882 0.5881 1.314-0.5794 4.771-4.313 5.65-6.103 0.7942-1.616 0.7848-1.636-1.949-4.174-2.97-2.893-6.44-5.868-9.273-8.412-2.092-2.073-3.246-2.66-3.564-1.813-0.073 0.194 0.1137 0.3987 0.4866 0.5344 4.583 4.097 9.583 7.95 13.76 12.67 0 0.5257-1.963 2.772-2.676 3.061-0.9065 0.3679-16.06 0.3959-17.32 0.0318-0.5505-0.1594-1.045-0.2444-1.099-0.1891-0.1366 0.1397-0.2179 4.533-0.0905 4.885 0.3866 1.197 0.1576 0.0401 1.285-0.6105zm37.85-4.196c-0.1957-0.911 0.2156-2.762 2.134-3.036 1.667-0.2926 3.128 1.13 3.009 2.705-0.5053 3.313-4.558 3.088-5.143 0.3317zm-12.91-3.762c1.573-1.47 3.244-0.4569 3.583-0.0947 2.113 2.337-0.267 4.228-0.7283 4.325-3.103 0.9905-4.579-2.56-2.855-4.23zm9.709-3.874c2.668 1.211 2.094 3.991 0.3826 4.825-0.7253 0.3587-2.851 0.6544-3.7-1.874-0.2212-2.672 2.285-3.306 3.317-2.951zm1.501-5.736c-0.7096-0.9487-0.7214-1.004-0.6182-2.907 0.4687-5.101 1.148-10.53 2.144-15.03 0.2001-0.7597 0.3132-0.8659 0.9487-0.89 5.968 0.2121 21.67 7.274 19.78 13.31-6.076 3.806-11.45 8.763-16.92 11.78-1.229 0.1992-3.747-4.052-5.339-6.261zm6.715 4.991c4.981-3.633 10.59-7.337 14.81-10.92 0.1634-0.3123 0.1614-0.587-6e-3 -0.9079-0.3055-0.5844-0.6833-0.59-0.8308-0.0127-4.98 4.338-10.24 7.888-15.12 11.27l-0.8414-0.9306c-1.869-2.067-1.897-2.223-1.093-6.024 1.311-5.07 2.136-8.709 3.244-13.97 0.0938 0 0.3635-0.1445 0.5995-0.3211-0.2402-1.36-3.462-1.452-5.03-1.628-0.042 0.0405 0.0588 0.3267 0.2248 0.6357 1.57 2.926 1.109 2.758 0.9837 3.951-0.2283 3.229-0.6268 6.773-1.228 9.803-0.2333 1.562-0.6026 2.281-1.172 2.281-0.6336-0.4311-0.9976-0.9046-1.54-1.495-0.1252 0.8642 0.178 1.681 0.3926 2.446 1.881 2.329 3.968 7.341 6.611 5.816zm-32.86-13.32c-0.7447-0.6896-0.5554-1.33 0.7557-2.554 6.649-4.925 13.69-8.087 21.13-8.257 0.977 0.1961-0.3739 16.5-0.9393 22.38l-0.386 0.7576-8.934-0.0699c-4.059-4.139-8.435-8.203-11.63-12.26zm20.21 11.19c0.4556-0.4662 0.5887-1.648 0.8191-7.276 0.1004-4.429 0.7807-12.46 0.0828-13.26-0.7102-0.1234-0.7611-0.0389-0.7794 1.3-0.0559 6.648-0.731 13.96-0.9928 18.23-1.495 0.5213-4.242 1.508-5.015-0.1883-3.858-4.59-7.295-9.214-10.27-13.63-0.0811-0.491 0.0965-1.077-0.0116-1.077-1.74 0.6904-3.535 3.119-3.481 3.506 0.1922 0.1102 0.4458 0.1394 0.5632 0.0651 0.1175-0.0746 0.8782 0.046 1.69 0.2672 3.367 3.286 6.426 7.125 9.331 10.8 0 0.3589-1.056 0.4232-1.563 0.0951-0.1795-0.1163-0.4028-0.1631-0.496-0.1041 2.707 2.877 6.619 1.939 10.12 1.269z" style="fill:#000000;stroke-width:1.926"/>
 <path id="dDoor" d="m292.2 13.05c-24.54 0.7194-42.44 1.678-50.16 3.119-13.06 1.059-30.48 11.01-46.14 21.93-9.555 7.518-20.66 16.06-28.98 25.67-0.9381 1.28-0.7897 4.34 3.925 5.289 15.86-0.3862 32.04-0.5458 48.08-1.084 24.24-0.5107 47.71-0.9919 72.65-1.519l0.05516-3.08c-55.88 1.232-105 2.455-111.9 2.574-3.312 0.05739-9.717 0.641-8.9-1.204 2.32-7.03 16.86-16.51 28.89-25.64 23.4-15.86 35.63-21.83 64.16-22.49 9.528-0.2582 17.92-0.5217 28.31-0.7749zm-9.564 66.93c-1.649-1.433-17.57-0.7062-22.14-0.4343-12.22 0.5178-7.241 5.373 3.299 3.567 9.661-0.2182 21.41 1.42 18.84-3.133zm7.73 44.1c-17.85 0.3951-34.7 0.7892-51.87 1.033-27.12 0.4802-47.47 0.7076-71.51 1.379 0 8.077 0.8523 7.394 8.147 6.479 42.5-2.348 77.46-3.045 115.2-3.838-0.02957-1.571 0.01979-3.149 0.01169-5.003zm0.4539 46.68c-44.62 0.5504-85.01 1.019-132.3 1.401-0.00902 0.2535-0.07829 1.806-0.1 2.27 4.214 0.1048 15.83 0.1491 84.33-0.5403 15.59-0.38 31.12 0.05586 48.08-0.05874zm-122.9 6.204c-4.215 0.0723-7.384-0.0476-9.693-0.2324l2.668-57.75-0.4436-45.24 0.4436-10.65c2.545-3.221 5.346-6.338 8.871-9.167 9.054-7.608 18.95-14.71 28.98-21.73 12.47-8.48 25.83-14.35 39.48-17.74 9.462-2.409 18.92-3.202 28.39-3.253l25.58-0.7392-0.5913 52.9-1.331 64.93c0.1958 16.39 0.3972 32.77 0.5918 49.16-41.85 0.5771-82.74-0.4406-122.9-0.4885z" style="fill:#000000;stroke-width:1.926"/>
 <path id="rDoor" d="m291 63.39c40.59-0.8928 84.4-1.892 115.8-3.012l0.352 3.597c-5.09-0.02834-13.21-0.03153-20.97 0.31-30.47 0.7823-62.55 1.499-95.24 2.187zm105.2-49.14c-34.89-0.4221-72.49 0.6707-104.6 1.618l0.01678-2.797c31.2-0.9865 68.99-1.134 103.8-0.9325m-10.16 68.41c-10.93 0.4222-13.41 1.712-13.83-1.58 4.228-2.77 27.79-4.325 28.41-1.268-1.424 3.55-7.93 1.982-14.58 2.848zm-94.96 43.61c40.14-0.8797 78.39-1.939 111.2-2.259 5.182 0.3977-0.7939 2.861-6.041 4.019-39.94 1.842-72.11 2.514-105.1 3.207zm0.2608 46.59c38.2-0.4735 77.53-1.154 119-0.6126v-1e-5c-35.97 2.744-78.75 3.428-118.9 3.701zm116.1 3.085c3.991-47.83 7.942-109.2-11.99-164l-103 0.5914c-0.454 55.74-2.223 112.2-0.945 167z" style="fill:#000000;stroke-width:1.926"/>
</svg>
