<svg id="esv" width="550.4" height="392.3" version="1.1" viewBox="0 0 605.41492 431.52176" xmlns="http://www.w3.org/2000/svg">
 <defs>
  <linearGradient id="SVGID_225_" x1="1150" x2="1150" y1="652.7" y2="871.1" gradientTransform="matrix(-1,0,0,1,2365,0)" gradientUnits="userSpaceOnUse">
   <stop style="stop-color:#E8C069" offset="0"/>
   <stop style="stop-color:#E9C26C" offset=".05817"/>
   <stop style="stop-color:#EBC776" offset=".1185"/>
   <stop style="stop-color:#EECF87" offset=".1797"/>
   <stop style="stop-color:#F3DA9E" offset=".2417"/>
   <stop style="stop-color:#F9EABE" offset=".3035"/>
   <stop style="stop-color:#FFFCDD" offset=".3498"/>
   <stop style="stop-color:#F8EAC3" offset=".3738"/>
   <stop style="stop-color:#E1BA72" offset=".4663"/>
   <stop style="stop-color:#D59F41" offset=".5309"/>
   <stop style="stop-color:#D09530" offset=".5616"/>
   <stop style="stop-color:#895323" offset=".798"/>
   <stop style="stop-color:#E8C069" offset="1"/>
  </linearGradient>
  <linearGradient id="SVGID_224_" x1="986.2" x2="986.2" y1="652.7" y2="871.1" gradientUnits="userSpaceOnUse">
   <stop style="stop-color:#E8C069" offset="0"/>
   <stop style="stop-color:#E9C26C" offset=".05817"/>
   <stop style="stop-color:#EBC776" offset=".1185"/>
   <stop style="stop-color:#EECF87" offset=".1797"/>
   <stop style="stop-color:#F3DA9E" offset=".2417"/>
   <stop style="stop-color:#F9EABE" offset=".3035"/>
   <stop style="stop-color:#FFFCDD" offset=".3498"/>
   <stop style="stop-color:#F8EAC3" offset=".3738"/>
   <stop style="stop-color:#E1BA72" offset=".4663"/>
   <stop style="stop-color:#D59F41" offset=".5309"/>
   <stop style="stop-color:#D09530" offset=".5616"/>
   <stop style="stop-color:#895323" offset=".798"/>
   <stop style="stop-color:#E8C069" offset="1"/>
  </linearGradient>
  <linearGradient id="SVGID_223_" x1="1100" x2="1100" y1="652.7" y2="871.1" gradientUnits="userSpaceOnUse">
   <stop style="stop-color:#F04E29" offset="0"/>
   <stop style="stop-color:#D13020" offset=".2881"/>
   <stop style="stop-color:#BF191B" offset=".5123"/>
   <stop style="stop-color:#9A1617" offset=".6957"/>
   <stop style="stop-color:#7E1214" offset=".891"/>
   <stop style="stop-color:#741112" offset="1"/>
  </linearGradient>
  <linearGradient id="SVGID_222_" x1="-3211" x2="-3154" y1="659" y2="659" gradientTransform="matrix(-1,0,0,1,-2755,-437.5)" gradientUnits="userSpaceOnUse">
   <stop style="stop-color:#E8C069" offset="0"/>
   <stop style="stop-color:#E9C26C" offset=".05817"/>
   <stop style="stop-color:#EBC776" offset=".1185"/>
   <stop style="stop-color:#EECF87" offset=".1797"/>
   <stop style="stop-color:#F3DA9E" offset=".2417"/>
   <stop style="stop-color:#F9EABE" offset=".3035"/>
   <stop style="stop-color:#FFFCDD" offset=".3498"/>
   <stop style="stop-color:#F8EAC3" offset=".3738"/>
   <stop style="stop-color:#E1BA72" offset=".4663"/>
   <stop style="stop-color:#D59F41" offset=".5309"/>
   <stop style="stop-color:#D09530" offset=".5616"/>
   <stop style="stop-color:#895323" offset=".798"/>
   <stop style="stop-color:#E8C069" offset="1"/>
  </linearGradient>
  <linearGradient id="SVGID_221_" x1="-3199" x2="-3163" y1="655.8" y2="655.8" gradientTransform="matrix(-1,0,0,1,-2755,-437.5)" gradientUnits="userSpaceOnUse">
   <stop style="stop-color:#E8C069" offset="0"/>
   <stop style="stop-color:#E9C26C" offset=".05817"/>
   <stop style="stop-color:#EBC776" offset=".1185"/>
   <stop style="stop-color:#EECF87" offset=".1797"/>
   <stop style="stop-color:#F3DA9E" offset=".2417"/>
   <stop style="stop-color:#F9EABE" offset=".3035"/>
   <stop style="stop-color:#FFFCDD" offset=".3498"/>
   <stop style="stop-color:#F8EAC3" offset=".3738"/>
   <stop style="stop-color:#E1BA72" offset=".4663"/>
   <stop style="stop-color:#D59F41" offset=".5309"/>
   <stop style="stop-color:#D09530" offset=".5616"/>
   <stop style="stop-color:#895323" offset=".798"/>
   <stop style="stop-color:#E8C069" offset="1"/>
  </linearGradient>
  <linearGradient id="SVGID_220_" x1="-3189" x2="-3172" y1="542.8" y2="542.8" gradientTransform="matrix(-1,0,0,1,-2755,-437.5)" gradientUnits="userSpaceOnUse">
   <stop style="stop-color:#E8C069" offset="0"/>
   <stop style="stop-color:#E9C26C" offset=".05817"/>
   <stop style="stop-color:#EBC776" offset=".1185"/>
   <stop style="stop-color:#EECF87" offset=".1797"/>
   <stop style="stop-color:#F3DA9E" offset=".2417"/>
   <stop style="stop-color:#F9EABE" offset=".3035"/>
   <stop style="stop-color:#FFFCDD" offset=".3498"/>
   <stop style="stop-color:#F8EAC3" offset=".3738"/>
   <stop style="stop-color:#E1BA72" offset=".4663"/>
   <stop style="stop-color:#D59F41" offset=".5309"/>
   <stop style="stop-color:#D09530" offset=".5616"/>
   <stop style="stop-color:#895323" offset=".798"/>
   <stop style="stop-color:#E8C069" offset="1"/>
  </linearGradient>
  <linearGradient id="SVGID_219_" x1="-3191" x2="-3170" y1="540.6" y2="540.6" gradientTransform="matrix(-1,0,0,1,-2755,-437.5)" gradientUnits="userSpaceOnUse">
   <stop style="stop-color:#E8C069" offset="0"/>
   <stop style="stop-color:#E9C26C" offset=".05817"/>
   <stop style="stop-color:#EBC776" offset=".1185"/>
   <stop style="stop-color:#EECF87" offset=".1797"/>
   <stop style="stop-color:#F3DA9E" offset=".2417"/>
   <stop style="stop-color:#F9EABE" offset=".3035"/>
   <stop style="stop-color:#FFFCDD" offset=".3498"/>
   <stop style="stop-color:#F8EAC3" offset=".3738"/>
   <stop style="stop-color:#E1BA72" offset=".4663"/>
   <stop style="stop-color:#D59F41" offset=".5309"/>
   <stop style="stop-color:#D09530" offset=".5616"/>
   <stop style="stop-color:#895323" offset=".798"/>
   <stop style="stop-color:#E8C069" offset="1"/>
  </linearGradient>
  <linearGradient id="SVGID_218_" x1="-3187" x2="-3172" y1="537.8" y2="537.8" gradientTransform="matrix(-1,0,0,1,-2005,0)" gradientUnits="userSpaceOnUse">
   <stop style="stop-color:#E8C069" offset="0"/>
   <stop style="stop-color:#E9C26C" offset=".05817"/>
   <stop style="stop-color:#EBC776" offset=".1185"/>
   <stop style="stop-color:#EECF87" offset=".1797"/>
   <stop style="stop-color:#F3DA9E" offset=".2417"/>
   <stop style="stop-color:#F9EABE" offset=".3035"/>
   <stop style="stop-color:#FFFCDD" offset=".3498"/>
   <stop style="stop-color:#F8EAC3" offset=".3738"/>
   <stop style="stop-color:#E1BA72" offset=".4663"/>
   <stop style="stop-color:#D59F41" offset=".5309"/>
   <stop style="stop-color:#D09530" offset=".5616"/>
   <stop style="stop-color:#895323" offset=".798"/>
   <stop style="stop-color:#E8C069" offset="1"/>
  </linearGradient>
  <radialGradient id="SVGID_217_" cx="-3181" cy="526.3" r="10.18" gradientTransform="matrix(-1 0 0 .9221 -2755 -396.5)" gradientUnits="userSpaceOnUse">
   <stop style="stop-color:#FFFCDD" offset="0"/>
   <stop style="stop-color:#F5E1AC" offset=".1453"/>
   <stop style="stop-color:#ECC97C" offset=".3202"/>
   <stop style="stop-color:#E8C069" offset=".4039"/>
   <stop style="stop-color:#E7BD65" offset=".4754"/>
   <stop style="stop-color:#E2B55A" offset=".5494"/>
   <stop style="stop-color:#DAA847" offset=".6246"/>
   <stop style="stop-color:#D19631" offset=".7002"/>
   <stop style="stop-color:#D09530" offset=".7044"/>
   <stop style="stop-color:#895323" offset="1"/>
  </radialGradient>
  <linearGradient id="SVGID_216_" x1="-3186" x2="-3174" y1="598" y2="598" gradientTransform="matrix(-1,0,0,1,-2755,-437.5)" gradientUnits="userSpaceOnUse">
   <stop style="stop-color:#E8C069" offset="0"/>
   <stop style="stop-color:#E9C26C" offset=".05817"/>
   <stop style="stop-color:#EBC776" offset=".1185"/>
   <stop style="stop-color:#EECF87" offset=".1797"/>
   <stop style="stop-color:#F3DA9E" offset=".2417"/>
   <stop style="stop-color:#F9EABE" offset=".3035"/>
   <stop style="stop-color:#FFFCDD" offset=".3498"/>
   <stop style="stop-color:#F8EAC3" offset=".3738"/>
   <stop style="stop-color:#E1BA72" offset=".4663"/>
   <stop style="stop-color:#D59F41" offset=".5309"/>
   <stop style="stop-color:#D09530" offset=".5616"/>
   <stop style="stop-color:#895323" offset=".798"/>
   <stop style="stop-color:#E8C069" offset="1"/>
  </linearGradient>
  <linearGradient id="SVGID_215_" x1="-3278" x2="-3213" y1="738.9" y2="738.9" gradientTransform="matrix(-1,0,0,1,-2755,-437.5)" gradientUnits="userSpaceOnUse">
   <stop style="stop-color:#E8C069" offset="0"/>
   <stop style="stop-color:#E9C26C" offset=".05817"/>
   <stop style="stop-color:#EBC776" offset=".1185"/>
   <stop style="stop-color:#EECF87" offset=".1797"/>
   <stop style="stop-color:#F3DA9E" offset=".2417"/>
   <stop style="stop-color:#F9EABE" offset=".3035"/>
   <stop style="stop-color:#FFFCDD" offset=".3498"/>
   <stop style="stop-color:#F8EAC3" offset=".3738"/>
   <stop style="stop-color:#E1BA72" offset=".4663"/>
   <stop style="stop-color:#D59F41" offset=".5309"/>
   <stop style="stop-color:#D09530" offset=".5616"/>
   <stop style="stop-color:#895323" offset=".798"/>
   <stop style="stop-color:#E8C069" offset="1"/>
  </linearGradient>
  <linearGradient id="SVGID_214_" x1="-3264" x2="-3223" y1="735.3" y2="735.3" gradientTransform="matrix(-1,0,0,1,-2755,-437.5)" gradientUnits="userSpaceOnUse">
   <stop style="stop-color:#E8C069" offset="0"/>
   <stop style="stop-color:#E9C26C" offset=".05817"/>
   <stop style="stop-color:#EBC776" offset=".1185"/>
   <stop style="stop-color:#EECF87" offset=".1797"/>
   <stop style="stop-color:#F3DA9E" offset=".2417"/>
   <stop style="stop-color:#F9EABE" offset=".3035"/>
   <stop style="stop-color:#FFFCDD" offset=".3498"/>
   <stop style="stop-color:#F8EAC3" offset=".3738"/>
   <stop style="stop-color:#E1BA72" offset=".4663"/>
   <stop style="stop-color:#D59F41" offset=".5309"/>
   <stop style="stop-color:#D09530" offset=".5616"/>
   <stop style="stop-color:#895323" offset=".798"/>
   <stop style="stop-color:#E8C069" offset="1"/>
  </linearGradient>
  <linearGradient id="SVGID_213_" x1="-3253" x2="-3233" y1="605.2" y2="605.2" gradientTransform="matrix(-1,0,0,1,-2755,-437.5)" gradientUnits="userSpaceOnUse">
   <stop style="stop-color:#E8C069" offset="0"/>
   <stop style="stop-color:#E9C26C" offset=".05817"/>
   <stop style="stop-color:#EBC776" offset=".1185"/>
   <stop style="stop-color:#EECF87" offset=".1797"/>
   <stop style="stop-color:#F3DA9E" offset=".2417"/>
   <stop style="stop-color:#F9EABE" offset=".3035"/>
   <stop style="stop-color:#FFFCDD" offset=".3498"/>
   <stop style="stop-color:#F8EAC3" offset=".3738"/>
   <stop style="stop-color:#E1BA72" offset=".4663"/>
   <stop style="stop-color:#D59F41" offset=".5309"/>
   <stop style="stop-color:#D09530" offset=".5616"/>
   <stop style="stop-color:#895323" offset=".798"/>
   <stop style="stop-color:#E8C069" offset="1"/>
  </linearGradient>
  <linearGradient id="SVGID_212_" x1="-3255" x2="-3231" y1="602.6" y2="602.6" gradientTransform="matrix(-1,0,0,1,-2755,-437.5)" gradientUnits="userSpaceOnUse">
   <stop style="stop-color:#E8C069" offset="0"/>
   <stop style="stop-color:#E9C26C" offset=".05817"/>
   <stop style="stop-color:#EBC776" offset=".1185"/>
   <stop style="stop-color:#EECF87" offset=".1797"/>
   <stop style="stop-color:#F3DA9E" offset=".2417"/>
   <stop style="stop-color:#F9EABE" offset=".3035"/>
   <stop style="stop-color:#FFFCDD" offset=".3498"/>
   <stop style="stop-color:#F8EAC3" offset=".3738"/>
   <stop style="stop-color:#E1BA72" offset=".4663"/>
   <stop style="stop-color:#D59F41" offset=".5309"/>
   <stop style="stop-color:#D09530" offset=".5616"/>
   <stop style="stop-color:#895323" offset=".798"/>
   <stop style="stop-color:#E8C069" offset="1"/>
  </linearGradient>
  <linearGradient id="SVGID_211_" x1="-3251" x2="-3234" y1="599.4" y2="599.4" gradientTransform="matrix(-1,0,0,1,-2005,0)" gradientUnits="userSpaceOnUse">
   <stop style="stop-color:#E8C069" offset="0"/>
   <stop style="stop-color:#E9C26C" offset=".05817"/>
   <stop style="stop-color:#EBC776" offset=".1185"/>
   <stop style="stop-color:#EECF87" offset=".1797"/>
   <stop style="stop-color:#F3DA9E" offset=".2417"/>
   <stop style="stop-color:#F9EABE" offset=".3035"/>
   <stop style="stop-color:#FFFCDD" offset=".3498"/>
   <stop style="stop-color:#F8EAC3" offset=".3738"/>
   <stop style="stop-color:#E1BA72" offset=".4663"/>
   <stop style="stop-color:#D59F41" offset=".5309"/>
   <stop style="stop-color:#D09530" offset=".5616"/>
   <stop style="stop-color:#895323" offset=".798"/>
   <stop style="stop-color:#E8C069" offset="1"/>
  </linearGradient>
  <radialGradient id="SVGID_210_" cx="-3243" cy="586.2" r="11.71" gradientTransform="matrix(-1 0 0 .9221 -2755 -391.8)" gradientUnits="userSpaceOnUse">
   <stop style="stop-color:#FFFCDD" offset="0"/>
   <stop style="stop-color:#F5E1AC" offset=".1453"/>
   <stop style="stop-color:#ECC97C" offset=".3202"/>
   <stop style="stop-color:#E8C069" offset=".4039"/>
   <stop style="stop-color:#E7BD65" offset=".4754"/>
   <stop style="stop-color:#E2B55A" offset=".5494"/>
   <stop style="stop-color:#DAA847" offset=".6246"/>
   <stop style="stop-color:#D19631" offset=".7002"/>
   <stop style="stop-color:#D09530" offset=".7044"/>
   <stop style="stop-color:#895323" offset="1"/>
  </radialGradient>
  <linearGradient id="SVGID_209_" x1="-3249" x2="-3236" y1="668.7" y2="668.7" gradientTransform="matrix(-1,0,0,1,-2755,-437.5)" gradientUnits="userSpaceOnUse">
   <stop style="stop-color:#E8C069" offset="0"/>
   <stop style="stop-color:#E9C26C" offset=".05817"/>
   <stop style="stop-color:#EBC776" offset=".1185"/>
   <stop style="stop-color:#EECF87" offset=".1797"/>
   <stop style="stop-color:#F3DA9E" offset=".2417"/>
   <stop style="stop-color:#F9EABE" offset=".3035"/>
   <stop style="stop-color:#FFFCDD" offset=".3498"/>
   <stop style="stop-color:#F8EAC3" offset=".3738"/>
   <stop style="stop-color:#E1BA72" offset=".4663"/>
   <stop style="stop-color:#D59F41" offset=".5309"/>
   <stop style="stop-color:#D09530" offset=".5616"/>
   <stop style="stop-color:#895323" offset=".798"/>
   <stop style="stop-color:#E8C069" offset="1"/>
  </linearGradient>
  <linearGradient id="SVGID_208_" x1="-3377" x2="-3296" y1="866" y2="866" gradientTransform="matrix(-1,0,0,1,-2755,-437.5)" gradientUnits="userSpaceOnUse">
   <stop style="stop-color:#E8C069" offset="0"/>
   <stop style="stop-color:#E9C26C" offset=".05817"/>
   <stop style="stop-color:#EBC776" offset=".1185"/>
   <stop style="stop-color:#EECF87" offset=".1797"/>
   <stop style="stop-color:#F3DA9E" offset=".2417"/>
   <stop style="stop-color:#F9EABE" offset=".3035"/>
   <stop style="stop-color:#FFFCDD" offset=".3498"/>
   <stop style="stop-color:#F8EAC3" offset=".3738"/>
   <stop style="stop-color:#E1BA72" offset=".4663"/>
   <stop style="stop-color:#D59F41" offset=".5309"/>
   <stop style="stop-color:#D09530" offset=".5616"/>
   <stop style="stop-color:#895323" offset=".798"/>
   <stop style="stop-color:#E8C069" offset="1"/>
  </linearGradient>
  <linearGradient id="SVGID_207_" x1="-3360" x2="-3309" y1="861.5" y2="861.5" gradientTransform="matrix(-1,0,0,1,-2755,-437.5)" gradientUnits="userSpaceOnUse">
   <stop style="stop-color:#E8C069" offset="0"/>
   <stop style="stop-color:#E9C26C" offset=".05817"/>
   <stop style="stop-color:#EBC776" offset=".1185"/>
   <stop style="stop-color:#EECF87" offset=".1797"/>
   <stop style="stop-color:#F3DA9E" offset=".2417"/>
   <stop style="stop-color:#F9EABE" offset=".3035"/>
   <stop style="stop-color:#FFFCDD" offset=".3498"/>
   <stop style="stop-color:#F8EAC3" offset=".3738"/>
   <stop style="stop-color:#E1BA72" offset=".4663"/>
   <stop style="stop-color:#D59F41" offset=".5309"/>
   <stop style="stop-color:#D09530" offset=".5616"/>
   <stop style="stop-color:#895323" offset=".798"/>
   <stop style="stop-color:#E8C069" offset="1"/>
  </linearGradient>
  <linearGradient id="SVGID_206_" x1="-3345" x2="-3321" y1="700.6" y2="700.6" gradientTransform="matrix(-1,0,0,1,-2755,-437.5)" gradientUnits="userSpaceOnUse">
   <stop style="stop-color:#E8C069" offset="0"/>
   <stop style="stop-color:#E9C26C" offset=".05817"/>
   <stop style="stop-color:#EBC776" offset=".1185"/>
   <stop style="stop-color:#EECF87" offset=".1797"/>
   <stop style="stop-color:#F3DA9E" offset=".2417"/>
   <stop style="stop-color:#F9EABE" offset=".3035"/>
   <stop style="stop-color:#FFFCDD" offset=".3498"/>
   <stop style="stop-color:#F8EAC3" offset=".3738"/>
   <stop style="stop-color:#E1BA72" offset=".4663"/>
   <stop style="stop-color:#D59F41" offset=".5309"/>
   <stop style="stop-color:#D09530" offset=".5616"/>
   <stop style="stop-color:#895323" offset=".798"/>
   <stop style="stop-color:#E8C069" offset="1"/>
  </linearGradient>
  <linearGradient id="SVGID_205_" x1="-3349" x2="-3318" y1="697.4" y2="697.4" gradientTransform="matrix(-1,0,0,1,-2755,-437.5)" gradientUnits="userSpaceOnUse">
   <stop style="stop-color:#E8C069" offset="0"/>
   <stop style="stop-color:#E9C26C" offset=".05817"/>
   <stop style="stop-color:#EBC776" offset=".1185"/>
   <stop style="stop-color:#EECF87" offset=".1797"/>
   <stop style="stop-color:#F3DA9E" offset=".2417"/>
   <stop style="stop-color:#F9EABE" offset=".3035"/>
   <stop style="stop-color:#FFFCDD" offset=".3498"/>
   <stop style="stop-color:#F8EAC3" offset=".3738"/>
   <stop style="stop-color:#E1BA72" offset=".4663"/>
   <stop style="stop-color:#D59F41" offset=".5309"/>
   <stop style="stop-color:#D09530" offset=".5616"/>
   <stop style="stop-color:#895323" offset=".798"/>
   <stop style="stop-color:#E8C069" offset="1"/>
  </linearGradient>
  <linearGradient id="SVGID_204_" x1="-3343" x2="-3322" y1="693.4" y2="693.4" gradientTransform="matrix(-1,0,0,1,-2005,0)" gradientUnits="userSpaceOnUse">
   <stop style="stop-color:#E8C069" offset="0"/>
   <stop style="stop-color:#E9C26C" offset=".05817"/>
   <stop style="stop-color:#EBC776" offset=".1185"/>
   <stop style="stop-color:#EECF87" offset=".1797"/>
   <stop style="stop-color:#F3DA9E" offset=".2417"/>
   <stop style="stop-color:#F9EABE" offset=".3035"/>
   <stop style="stop-color:#FFFCDD" offset=".3498"/>
   <stop style="stop-color:#F8EAC3" offset=".3738"/>
   <stop style="stop-color:#E1BA72" offset=".4663"/>
   <stop style="stop-color:#D59F41" offset=".5309"/>
   <stop style="stop-color:#D09530" offset=".5616"/>
   <stop style="stop-color:#895323" offset=".798"/>
   <stop style="stop-color:#E8C069" offset="1"/>
  </linearGradient>
  <radialGradient id="SVGID_203_" cx="-3333" cy="677.1" r="14.49" gradientTransform="matrix(-1 0 0 .9221 -2755 -384.8)" gradientUnits="userSpaceOnUse">
   <stop style="stop-color:#FFFCDD" offset="0"/>
   <stop style="stop-color:#F5E1AC" offset=".1453"/>
   <stop style="stop-color:#ECC97C" offset=".3202"/>
   <stop style="stop-color:#E8C069" offset=".4039"/>
   <stop style="stop-color:#E7BD65" offset=".4754"/>
   <stop style="stop-color:#E2B55A" offset=".5494"/>
   <stop style="stop-color:#DAA847" offset=".6246"/>
   <stop style="stop-color:#D19631" offset=".7002"/>
   <stop style="stop-color:#D09530" offset=".7044"/>
   <stop style="stop-color:#895323" offset="1"/>
  </radialGradient>
  <linearGradient id="SVGID_202_" x1="-3341" x2="-3325" y1="779.1" y2="779.1" gradientTransform="matrix(-1,0,0,1,-2755,-437.5)" gradientUnits="userSpaceOnUse">
   <stop style="stop-color:#E8C069" offset="0"/>
   <stop style="stop-color:#E9C26C" offset=".05817"/>
   <stop style="stop-color:#EBC776" offset=".1185"/>
   <stop style="stop-color:#EECF87" offset=".1797"/>
   <stop style="stop-color:#F3DA9E" offset=".2417"/>
   <stop style="stop-color:#F9EABE" offset=".3035"/>
   <stop style="stop-color:#FFFCDD" offset=".3498"/>
   <stop style="stop-color:#F8EAC3" offset=".3738"/>
   <stop style="stop-color:#E1BA72" offset=".4663"/>
   <stop style="stop-color:#D59F41" offset=".5309"/>
   <stop style="stop-color:#D09530" offset=".5616"/>
   <stop style="stop-color:#895323" offset=".798"/>
   <stop style="stop-color:#E8C069" offset="1"/>
  </linearGradient>
  <linearGradient id="SVGID_201_" x1="989.5" x2="1046" y1="659" y2="659" gradientTransform="translate(-749.9,-437.5)" gradientUnits="userSpaceOnUse">
   <stop style="stop-color:#E8C069" offset="0"/>
   <stop style="stop-color:#E9C26C" offset=".05817"/>
   <stop style="stop-color:#EBC776" offset=".1185"/>
   <stop style="stop-color:#EECF87" offset=".1797"/>
   <stop style="stop-color:#F3DA9E" offset=".2417"/>
   <stop style="stop-color:#F9EABE" offset=".3035"/>
   <stop style="stop-color:#FFFCDD" offset=".3498"/>
   <stop style="stop-color:#F8EAC3" offset=".3738"/>
   <stop style="stop-color:#E1BA72" offset=".4663"/>
   <stop style="stop-color:#D59F41" offset=".5309"/>
   <stop style="stop-color:#D09530" offset=".5616"/>
   <stop style="stop-color:#895323" offset=".798"/>
   <stop style="stop-color:#E8C069" offset="1"/>
  </linearGradient>
  <linearGradient id="SVGID_200_" x1="1001" x2="1037" y1="655.8" y2="655.8" gradientTransform="translate(-749.9,-437.5)" gradientUnits="userSpaceOnUse">
   <stop style="stop-color:#E8C069" offset="0"/>
   <stop style="stop-color:#E9C26C" offset=".05817"/>
   <stop style="stop-color:#EBC776" offset=".1185"/>
   <stop style="stop-color:#EECF87" offset=".1797"/>
   <stop style="stop-color:#F3DA9E" offset=".2417"/>
   <stop style="stop-color:#F9EABE" offset=".3035"/>
   <stop style="stop-color:#FFFCDD" offset=".3498"/>
   <stop style="stop-color:#F8EAC3" offset=".3738"/>
   <stop style="stop-color:#E1BA72" offset=".4663"/>
   <stop style="stop-color:#D59F41" offset=".5309"/>
   <stop style="stop-color:#D09530" offset=".5616"/>
   <stop style="stop-color:#895323" offset=".798"/>
   <stop style="stop-color:#E8C069" offset="1"/>
  </linearGradient>
  <linearGradient id="SVGID_199_" x1="1012" x2="1029" y1="542.8" y2="542.8" gradientTransform="translate(-749.9,-437.5)" gradientUnits="userSpaceOnUse">
   <stop style="stop-color:#E8C069" offset="0"/>
   <stop style="stop-color:#E9C26C" offset=".05817"/>
   <stop style="stop-color:#EBC776" offset=".1185"/>
   <stop style="stop-color:#EECF87" offset=".1797"/>
   <stop style="stop-color:#F3DA9E" offset=".2417"/>
   <stop style="stop-color:#F9EABE" offset=".3035"/>
   <stop style="stop-color:#FFFCDD" offset=".3498"/>
   <stop style="stop-color:#F8EAC3" offset=".3738"/>
   <stop style="stop-color:#E1BA72" offset=".4663"/>
   <stop style="stop-color:#D59F41" offset=".5309"/>
   <stop style="stop-color:#D09530" offset=".5616"/>
   <stop style="stop-color:#895323" offset=".798"/>
   <stop style="stop-color:#E8C069" offset="1"/>
  </linearGradient>
  <linearGradient id="SVGID_198_" x1="1009" x2="1031" y1="540.6" y2="540.6" gradientTransform="translate(-749.9,-437.5)" gradientUnits="userSpaceOnUse">
   <stop style="stop-color:#E8C069" offset="0"/>
   <stop style="stop-color:#E9C26C" offset=".05817"/>
   <stop style="stop-color:#EBC776" offset=".1185"/>
   <stop style="stop-color:#EECF87" offset=".1797"/>
   <stop style="stop-color:#F3DA9E" offset=".2417"/>
   <stop style="stop-color:#F9EABE" offset=".3035"/>
   <stop style="stop-color:#FFFCDD" offset=".3498"/>
   <stop style="stop-color:#F8EAC3" offset=".3738"/>
   <stop style="stop-color:#E1BA72" offset=".4663"/>
   <stop style="stop-color:#D59F41" offset=".5309"/>
   <stop style="stop-color:#D09530" offset=".5616"/>
   <stop style="stop-color:#895323" offset=".798"/>
   <stop style="stop-color:#E8C069" offset="1"/>
  </linearGradient>
  <linearGradient id="SVGID_197_" x1="1013" x2="1028" y1="537.8" y2="537.8" gradientUnits="userSpaceOnUse">
   <stop style="stop-color:#E8C069" offset="0"/>
   <stop style="stop-color:#E9C26C" offset=".05817"/>
   <stop style="stop-color:#EBC776" offset=".1185"/>
   <stop style="stop-color:#EECF87" offset=".1797"/>
   <stop style="stop-color:#F3DA9E" offset=".2417"/>
   <stop style="stop-color:#F9EABE" offset=".3035"/>
   <stop style="stop-color:#FFFCDD" offset=".3498"/>
   <stop style="stop-color:#F8EAC3" offset=".3738"/>
   <stop style="stop-color:#E1BA72" offset=".4663"/>
   <stop style="stop-color:#D59F41" offset=".5309"/>
   <stop style="stop-color:#D09530" offset=".5616"/>
   <stop style="stop-color:#895323" offset=".798"/>
   <stop style="stop-color:#E8C069" offset="1"/>
  </linearGradient>
  <radialGradient id="SVGID_196_" cx="1020" cy="526.3" r="10.18" gradientTransform="matrix(1 0 0 .9221 -749.9 -396.5)" gradientUnits="userSpaceOnUse">
   <stop style="stop-color:#FFFCDD" offset="0"/>
   <stop style="stop-color:#F5E1AC" offset=".1453"/>
   <stop style="stop-color:#ECC97C" offset=".3202"/>
   <stop style="stop-color:#E8C069" offset=".4039"/>
   <stop style="stop-color:#E7BD65" offset=".4754"/>
   <stop style="stop-color:#E2B55A" offset=".5494"/>
   <stop style="stop-color:#DAA847" offset=".6246"/>
   <stop style="stop-color:#D19631" offset=".7002"/>
   <stop style="stop-color:#D09530" offset=".7044"/>
   <stop style="stop-color:#895323" offset="1"/>
  </radialGradient>
  <linearGradient id="SVGID_195_" x1="1014" x2="1026" y1="598" y2="598" gradientTransform="translate(-749.9,-437.5)" gradientUnits="userSpaceOnUse">
   <stop style="stop-color:#E8C069" offset="0"/>
   <stop style="stop-color:#E9C26C" offset=".05817"/>
   <stop style="stop-color:#EBC776" offset=".1185"/>
   <stop style="stop-color:#EECF87" offset=".1797"/>
   <stop style="stop-color:#F3DA9E" offset=".2417"/>
   <stop style="stop-color:#F9EABE" offset=".3035"/>
   <stop style="stop-color:#FFFCDD" offset=".3498"/>
   <stop style="stop-color:#F8EAC3" offset=".3738"/>
   <stop style="stop-color:#E1BA72" offset=".4663"/>
   <stop style="stop-color:#D59F41" offset=".5309"/>
   <stop style="stop-color:#D09530" offset=".5616"/>
   <stop style="stop-color:#895323" offset=".798"/>
   <stop style="stop-color:#E8C069" offset="1"/>
  </linearGradient>
  <linearGradient id="SVGID_194_" x1="922.5" x2="988" y1="738.9" y2="738.9" gradientTransform="translate(-749.9,-437.5)" gradientUnits="userSpaceOnUse">
   <stop style="stop-color:#E8C069" offset="0"/>
   <stop style="stop-color:#E9C26C" offset=".05817"/>
   <stop style="stop-color:#EBC776" offset=".1185"/>
   <stop style="stop-color:#EECF87" offset=".1797"/>
   <stop style="stop-color:#F3DA9E" offset=".2417"/>
   <stop style="stop-color:#F9EABE" offset=".3035"/>
   <stop style="stop-color:#FFFCDD" offset=".3498"/>
   <stop style="stop-color:#F8EAC3" offset=".3738"/>
   <stop style="stop-color:#E1BA72" offset=".4663"/>
   <stop style="stop-color:#D59F41" offset=".5309"/>
   <stop style="stop-color:#D09530" offset=".5616"/>
   <stop style="stop-color:#895323" offset=".798"/>
   <stop style="stop-color:#E8C069" offset="1"/>
  </linearGradient>
  <linearGradient id="SVGID_193_" x1="936.1" x2="977.5" y1="735.3" y2="735.3" gradientTransform="translate(-749.9,-437.5)" gradientUnits="userSpaceOnUse">
   <stop style="stop-color:#E8C069" offset="0"/>
   <stop style="stop-color:#E9C26C" offset=".05817"/>
   <stop style="stop-color:#EBC776" offset=".1185"/>
   <stop style="stop-color:#EECF87" offset=".1797"/>
   <stop style="stop-color:#F3DA9E" offset=".2417"/>
   <stop style="stop-color:#F9EABE" offset=".3035"/>
   <stop style="stop-color:#FFFCDD" offset=".3498"/>
   <stop style="stop-color:#F8EAC3" offset=".3738"/>
   <stop style="stop-color:#E1BA72" offset=".4663"/>
   <stop style="stop-color:#D59F41" offset=".5309"/>
   <stop style="stop-color:#D09530" offset=".5616"/>
   <stop style="stop-color:#895323" offset=".798"/>
   <stop style="stop-color:#E8C069" offset="1"/>
  </linearGradient>
  <linearGradient id="SVGID_192_" x1="947.8" x2="967.9" y1="605.2" y2="605.2" gradientTransform="translate(-749.9,-437.5)" gradientUnits="userSpaceOnUse">
   <stop style="stop-color:#E8C069" offset="0"/>
   <stop style="stop-color:#E9C26C" offset=".05817"/>
   <stop style="stop-color:#EBC776" offset=".1185"/>
   <stop style="stop-color:#EECF87" offset=".1797"/>
   <stop style="stop-color:#F3DA9E" offset=".2417"/>
   <stop style="stop-color:#F9EABE" offset=".3035"/>
   <stop style="stop-color:#FFFCDD" offset=".3498"/>
   <stop style="stop-color:#F8EAC3" offset=".3738"/>
   <stop style="stop-color:#E1BA72" offset=".4663"/>
   <stop style="stop-color:#D59F41" offset=".5309"/>
   <stop style="stop-color:#D09530" offset=".5616"/>
   <stop style="stop-color:#895323" offset=".798"/>
   <stop style="stop-color:#E8C069" offset="1"/>
  </linearGradient>
  <linearGradient id="SVGID_191_" x1="945.2" x2="969.8" y1="602.6" y2="602.6" gradientTransform="translate(-749.9,-437.5)" gradientUnits="userSpaceOnUse">
   <stop style="stop-color:#E8C069" offset="0"/>
   <stop style="stop-color:#E9C26C" offset=".05817"/>
   <stop style="stop-color:#EBC776" offset=".1185"/>
   <stop style="stop-color:#EECF87" offset=".1797"/>
   <stop style="stop-color:#F3DA9E" offset=".2417"/>
   <stop style="stop-color:#F9EABE" offset=".3035"/>
   <stop style="stop-color:#FFFCDD" offset=".3498"/>
   <stop style="stop-color:#F8EAC3" offset=".3738"/>
   <stop style="stop-color:#E1BA72" offset=".4663"/>
   <stop style="stop-color:#D59F41" offset=".5309"/>
   <stop style="stop-color:#D09530" offset=".5616"/>
   <stop style="stop-color:#895323" offset=".798"/>
   <stop style="stop-color:#E8C069" offset="1"/>
  </linearGradient>
  <linearGradient id="SVGID_190_" x1="949.9" x2="966.9" y1="599.4" y2="599.4" gradientUnits="userSpaceOnUse">
   <stop style="stop-color:#E8C069" offset="0"/>
   <stop style="stop-color:#E9C26C" offset=".05817"/>
   <stop style="stop-color:#EBC776" offset=".1185"/>
   <stop style="stop-color:#EECF87" offset=".1797"/>
   <stop style="stop-color:#F3DA9E" offset=".2417"/>
   <stop style="stop-color:#F9EABE" offset=".3035"/>
   <stop style="stop-color:#FFFCDD" offset=".3498"/>
   <stop style="stop-color:#F8EAC3" offset=".3738"/>
   <stop style="stop-color:#E1BA72" offset=".4663"/>
   <stop style="stop-color:#D59F41" offset=".5309"/>
   <stop style="stop-color:#D09530" offset=".5616"/>
   <stop style="stop-color:#895323" offset=".798"/>
   <stop style="stop-color:#E8C069" offset="1"/>
  </linearGradient>
  <radialGradient id="SVGID_189_" cx="957.4" cy="586.2" r="11.71" gradientTransform="matrix(1 0 0 .9221 -749.9 -391.8)" gradientUnits="userSpaceOnUse">
   <stop style="stop-color:#FFFCDD" offset="0"/>
   <stop style="stop-color:#F5E1AC" offset=".1453"/>
   <stop style="stop-color:#ECC97C" offset=".3202"/>
   <stop style="stop-color:#E8C069" offset=".4039"/>
   <stop style="stop-color:#E7BD65" offset=".4754"/>
   <stop style="stop-color:#E2B55A" offset=".5494"/>
   <stop style="stop-color:#DAA847" offset=".6246"/>
   <stop style="stop-color:#D19631" offset=".7002"/>
   <stop style="stop-color:#D09530" offset=".7044"/>
   <stop style="stop-color:#895323" offset="1"/>
  </radialGradient>
  <linearGradient id="SVGID_188_" x1="951.2" x2="964.6" y1="668.7" y2="668.7" gradientTransform="translate(-749.9,-437.5)" gradientUnits="userSpaceOnUse">
   <stop style="stop-color:#E8C069" offset="0"/>
   <stop style="stop-color:#E9C26C" offset=".05817"/>
   <stop style="stop-color:#EBC776" offset=".1185"/>
   <stop style="stop-color:#EECF87" offset=".1797"/>
   <stop style="stop-color:#F3DA9E" offset=".2417"/>
   <stop style="stop-color:#F9EABE" offset=".3035"/>
   <stop style="stop-color:#FFFCDD" offset=".3498"/>
   <stop style="stop-color:#F8EAC3" offset=".3738"/>
   <stop style="stop-color:#E1BA72" offset=".4663"/>
   <stop style="stop-color:#D59F41" offset=".5309"/>
   <stop style="stop-color:#D09530" offset=".5616"/>
   <stop style="stop-color:#895323" offset=".798"/>
   <stop style="stop-color:#E8C069" offset="1"/>
  </linearGradient>
  <linearGradient id="SVGID_187_" x1="823.9" x2="905" y1="866" y2="866" gradientTransform="translate(-749.9,-437.5)" gradientUnits="userSpaceOnUse">
   <stop style="stop-color:#E8C069" offset="0"/>
   <stop style="stop-color:#E9C26C" offset=".05817"/>
   <stop style="stop-color:#EBC776" offset=".1185"/>
   <stop style="stop-color:#EECF87" offset=".1797"/>
   <stop style="stop-color:#F3DA9E" offset=".2417"/>
   <stop style="stop-color:#F9EABE" offset=".3035"/>
   <stop style="stop-color:#FFFCDD" offset=".3498"/>
   <stop style="stop-color:#F8EAC3" offset=".3738"/>
   <stop style="stop-color:#E1BA72" offset=".4663"/>
   <stop style="stop-color:#D59F41" offset=".5309"/>
   <stop style="stop-color:#D09530" offset=".5616"/>
   <stop style="stop-color:#895323" offset=".798"/>
   <stop style="stop-color:#E8C069" offset="1"/>
  </linearGradient>
  <linearGradient id="SVGID_186_" x1="840.8" x2="892" y1="861.5" y2="861.5" gradientTransform="translate(-749.9,-437.5)" gradientUnits="userSpaceOnUse">
   <stop style="stop-color:#E8C069" offset="0"/>
   <stop style="stop-color:#E9C26C" offset=".05817"/>
   <stop style="stop-color:#EBC776" offset=".1185"/>
   <stop style="stop-color:#EECF87" offset=".1797"/>
   <stop style="stop-color:#F3DA9E" offset=".2417"/>
   <stop style="stop-color:#F9EABE" offset=".3035"/>
   <stop style="stop-color:#FFFCDD" offset=".3498"/>
   <stop style="stop-color:#F8EAC3" offset=".3738"/>
   <stop style="stop-color:#E1BA72" offset=".4663"/>
   <stop style="stop-color:#D59F41" offset=".5309"/>
   <stop style="stop-color:#D09530" offset=".5616"/>
   <stop style="stop-color:#895323" offset=".798"/>
   <stop style="stop-color:#E8C069" offset="1"/>
  </linearGradient>
  <linearGradient id="SVGID_185_" x1="855.3" x2="880" y1="700.6" y2="700.6" gradientTransform="translate(-749.9,-437.5)" gradientUnits="userSpaceOnUse">
   <stop style="stop-color:#E8C069" offset="0"/>
   <stop style="stop-color:#E9C26C" offset=".05817"/>
   <stop style="stop-color:#EBC776" offset=".1185"/>
   <stop style="stop-color:#EECF87" offset=".1797"/>
   <stop style="stop-color:#F3DA9E" offset=".2417"/>
   <stop style="stop-color:#F9EABE" offset=".3035"/>
   <stop style="stop-color:#FFFCDD" offset=".3498"/>
   <stop style="stop-color:#F8EAC3" offset=".3738"/>
   <stop style="stop-color:#E1BA72" offset=".4663"/>
   <stop style="stop-color:#D59F41" offset=".5309"/>
   <stop style="stop-color:#D09530" offset=".5616"/>
   <stop style="stop-color:#895323" offset=".798"/>
   <stop style="stop-color:#E8C069" offset="1"/>
  </linearGradient>
  <linearGradient id="SVGID_184_" x1="852" x2="882.4" y1="697.4" y2="697.4" gradientTransform="translate(-749.9,-437.5)" gradientUnits="userSpaceOnUse">
   <stop style="stop-color:#E8C069" offset="0"/>
   <stop style="stop-color:#E9C26C" offset=".05817"/>
   <stop style="stop-color:#EBC776" offset=".1185"/>
   <stop style="stop-color:#EECF87" offset=".1797"/>
   <stop style="stop-color:#F3DA9E" offset=".2417"/>
   <stop style="stop-color:#F9EABE" offset=".3035"/>
   <stop style="stop-color:#FFFCDD" offset=".3498"/>
   <stop style="stop-color:#F8EAC3" offset=".3738"/>
   <stop style="stop-color:#E1BA72" offset=".4663"/>
   <stop style="stop-color:#D59F41" offset=".5309"/>
   <stop style="stop-color:#D09530" offset=".5616"/>
   <stop style="stop-color:#895323" offset=".798"/>
   <stop style="stop-color:#E8C069" offset="1"/>
  </linearGradient>
  <linearGradient id="SVGID_183_" x1="857.9" x2="878.9" y1="693.4" y2="693.4" gradientUnits="userSpaceOnUse">
   <stop style="stop-color:#E8C069" offset="0"/>
   <stop style="stop-color:#E9C26C" offset=".05817"/>
   <stop style="stop-color:#EBC776" offset=".1185"/>
   <stop style="stop-color:#EECF87" offset=".1797"/>
   <stop style="stop-color:#F3DA9E" offset=".2417"/>
   <stop style="stop-color:#F9EABE" offset=".3035"/>
   <stop style="stop-color:#FFFCDD" offset=".3498"/>
   <stop style="stop-color:#F8EAC3" offset=".3738"/>
   <stop style="stop-color:#E1BA72" offset=".4663"/>
   <stop style="stop-color:#D59F41" offset=".5309"/>
   <stop style="stop-color:#D09530" offset=".5616"/>
   <stop style="stop-color:#895323" offset=".798"/>
   <stop style="stop-color:#E8C069" offset="1"/>
  </linearGradient>
  <radialGradient id="SVGID_182_" cx="867.1" cy="677.1" r="14.49" gradientTransform="matrix(1 0 0 .9221 -749.9 -384.8)" gradientUnits="userSpaceOnUse">
   <stop style="stop-color:#FFFCDD" offset="0"/>
   <stop style="stop-color:#F5E1AC" offset=".1453"/>
   <stop style="stop-color:#ECC97C" offset=".3202"/>
   <stop style="stop-color:#E8C069" offset=".4039"/>
   <stop style="stop-color:#E7BD65" offset=".4754"/>
   <stop style="stop-color:#E2B55A" offset=".5494"/>
   <stop style="stop-color:#DAA847" offset=".6246"/>
   <stop style="stop-color:#D19631" offset=".7002"/>
   <stop style="stop-color:#D09530" offset=".7044"/>
   <stop style="stop-color:#895323" offset="1"/>
  </radialGradient>
  <linearGradient id="SVGID_181_" x1="859.4" x2="876" y1="779.1" y2="779.1" gradientTransform="translate(-749.9,-437.5)" gradientUnits="userSpaceOnUse">
   <stop style="stop-color:#E8C069" offset="0"/>
   <stop style="stop-color:#E9C26C" offset=".05817"/>
   <stop style="stop-color:#EBC776" offset=".1185"/>
   <stop style="stop-color:#EECF87" offset=".1797"/>
   <stop style="stop-color:#F3DA9E" offset=".2417"/>
   <stop style="stop-color:#F9EABE" offset=".3035"/>
   <stop style="stop-color:#FFFCDD" offset=".3498"/>
   <stop style="stop-color:#F8EAC3" offset=".3738"/>
   <stop style="stop-color:#E1BA72" offset=".4663"/>
   <stop style="stop-color:#D59F41" offset=".5309"/>
   <stop style="stop-color:#D09530" offset=".5616"/>
   <stop style="stop-color:#895323" offset=".798"/>
   <stop style="stop-color:#E8C069" offset="1"/>
  </linearGradient>
 </defs>
 <path id="fHub" d="m67.99 133.3c31.6-22.81 62.45 2.558 62.75 32.21 0.1164 11.89-17.39 38.97-39.79 36.63-41.96-4.398-47.1-51.41-22.95-68.82z" style="fill:#ffffff"/>
 <path id="fWheel" d="m90.98 117.8c22.3 0 46.59 15.7 46.59 46.69 0.3994 21.87-19.32 44.21-44.83 44.21-25.98 0-46.05-19.84-46.05-45.83 0-26.78 22.91-45.06 44.28-45.06zm36.01 57.83c6.936-21.32-3.63-42.68-27.45-48.92-27.8-4.434-44.13 17.66-44.78 34.28-1.136 19.15 11.71 32.77 24.98 37.6 23.83 7.53 43.28-8.304 47.25-22.95zm-48.73 20.82c-0.439-0.4783-0.4495-0.5756-0.1531-1.435 3.346-6.663 6.143-11.72 9.788-17.98 0.979-1.412 1.437-1.382 4.687 0.3129 4.428 2.31 5.326 3.216 5.988 6.028 1.387 4.481 3.026 8.691 4.011 13.48-4.584 3.432-17.54 2.335-24.32-0.4063zm22.79 0.3839c-0.7997-0.3365-2.438-1.832-2.807-2.561-0.5377-1.064-3.026-12.16-2.782-12.4 0.2402-0.2457 0.9579-0.2713 1.377-0.04942 0.8275 0.4388 0.2895-0.5905-0.6427-1.229-1.268-0.8689-6.331-3.44-6.774-3.44-0.7975 0-1.255 0.5638-2.666 3.289-0.8074 1.559-2.632 4.877-4.056 7.375-3.392 5.955-3.614 6.435-3.428 7.442 0.2001 1.092 0.7811 0.8777 0.7811-0.2875 0-0.587 0.1964-1.094 0.6402-1.65 1.949-3.195 7.519-16.25 9.044-15.01 0.5554 0.00402 2.573 1.031 3.006 1.531 1.962 6.228 2.454 9.521 3.939 15.57 0.2879 0.7655 0.2732 1.978-0.02943 2.45-0.1763 0.2753-0.2767 0.5456-0.2229 0.6005 1.957 0.1424 5.316-1.129 4.62-1.624zm-1.709-22.6c2.856-2.531 6.047-4.202 9.046-4.293 2.647 0.5272 13.03 4.526 15.78 6.337 0.8141 2.371-8.16 14.66-14.68 18.04-3.209 3.183-8.266-15.89-10.15-20.08zm9.802 18.69c0.06298-0.4438-0.6019-0.2519-0.8672-0.363-2.429-6.49-4.953-11.23-6.726-17.5 0.07172-0.6279 1.155-1.286 2.724-1.654 1.773-0.5762 9.757 3.492 13.04 5.096 3.194 1.566 4.029 2.187 4.063 3.026 1.121-0.9576 2.035-3.232 2.607-4.803-0.04148-0.04229-0.8436 0.08547-1.783 0.284-0.9391 0.1985-1.987 0.3609-2.327 0.3609-4.204-1.536-8.125-3.028-11.76-5.41 0.03274-0.2434 0.3873-0.6074 0.7881-0.8088 1.109-0.5572 0.8869-0.777-0.6722-0.6671-2.993 0.6055-5.299 1.722-7.411 3.684-0.5679 1.139-0.5588 1.241 0.2732 3.112 1.955 5.207 4.399 10.62 6.294 15.31 0.2682 0.7002 0.7908 1.424 1.028 1.424 0.5572-0.1772 0.5912-0.6116 0.7338-1.092zm-50.48-20.6c7.931-1.305 14.48-3.129 21.59-3.169 0.8287 1.183 2.442 6.876 1.692 10.12-1.356 2.736-8.757 14.09-9.123 14-3.633 0.2378-17.62-18.75-14.16-20.95zm13.79 20.37c-0.2255-0.9322-0.2902-1.926-0.2447-2.71-0.8951-1.356 4.393-7.604 7.337-11.53 0.6083-0.5602 1.072-0.3127 1.328 0.7087 0.2117 1.07 0.2323 0.8186 0.6411-0.03927-0.04851-4.268-0.08862-10.69-3.884-9.416-5.984 0.8484-12.36 1.787-17.48 3.214-0.2922 0.2989-0.06296 1.069 0.2581 0.8652 5.704-1.013 11.76-2.484 17.2-3.123 1.791-0.3722 3.035 3.955 1.531 5.452-2.666 4.311-8.242 13.95-10.85 12.67-0.9314-0.3026-0.3138 0.5846 1.61 2.312 0.5965 0.892 1.887 1.391 2.552 1.593zm16.39-22.35c1.506-1.764 4.073-1.333 4.733 1.022 0.1543 1.155-0.4959 2.366-1.498 2.852-2.585 0.9947-4.603-1.611-3.235-3.873zm7.07-2.78c0.9194-2.448 3.248-1.955 3.86-1.389 1.673 0.955 1.448 3.353 0.1814 4.206-2.043 1.456-4.727-0.4466-4.04-2.817zm8.523-4.987c0-0.7186 0.9084-4.683 1.378-6.013 1.934-5.553 10.52-8.359 15.98-10.95 4.47 5.574 5.466 15.83 4.324 24.11-1.856 0.9882-22.77-4.296-21.68-7.144zm20.19 6.554c0.1966-0.07734 0.3572-0.3221 0.3572-0.5445 0-0.3319-0.2811-0.4309-1.572-0.5537-5.652-1.542-13.52-2.684-17.17-6.017 0.07885-1.122 0.375-2.034 0.6849-3.108 0.2055-1.914 10.37-5.454 16.1-7.889 0.5813 0 1.057-0.09662 1.057-0.2147 0-0.4585-2.018-4.637-2.241-4.637-0.5617 0.7331-0.8259 1.828-1.155 2.657-0.7457 1.671-1.053 1.879-7.517 5.082-4.87 2.415-5.117 2.455-5.117 0.8597 0-0.8016-0.00804-0.8088-0.4516-0.398-0.2484 0.23-0.4516 0.5164-0.4516 0.6362-1.084 2.951-2.713 7.573-1.575 8.614 5.474 2.622 11.54 3.666 16.47 5.502 0.8987 0.21 1.814 0.1117 2.574 0.01115zm-41.63-4.259c0.9196-0.966 3.271-0.4558 3.796 0.8651 0.9413 1.451-0.1454 3.839-2.392 3.81-2.749-0.3342-3.154-3.562-1.405-4.675zm-25.46 1.804c-1.497 0.00972-1.086-18.24 6.75-24.2 5.174 4.15 10.28 9.159 15.06 13.82 1.122 1.135 1.21 1.3 1.092 2.047-0.7603 2.436-4.451 6.673-6.782 7.118-5.506 0.23-11.17 1.275-16.12 1.216zm0.956-1.773c1.867-1.846 1.889-1.851 8.554-1.725 3.248 0.06217 6.149 0.164 6.446 0.227 0.5348 0.113 0.5307 0.1256-0.3281 1.026-0.945 0.9903-0.9167 1.079 0.1889 0.5907 1.32-0.582 4.792-4.332 5.675-6.13 0.7977-1.623 0.7883-1.643-1.958-4.192-2.983-2.906-6.468-5.894-9.314-8.449-2.101-2.082-3.26-2.672-3.58-1.821-0.07333 0.1948 0.1142 0.4006 0.4887 0.5368 4.603 4.115 9.625 7.985 13.82 12.73 0 0.528-1.972 2.784-2.688 3.075-0.9105 0.3695-16.13 0.3976-17.4 0.03184-0.5529-0.1601-1.05-0.2455-1.105-0.1899-0.1371 0.1403-0.2189 4.553-0.09084 4.907 0.9737 0.773 0.3951 0.1566 1.286-0.6118zm38.08-4.562c0.07734-3.113 3.334-3.446 4.712-1.724 1.27 2.504-0.5504 3.827-1.137 3.943-1.968 0.6607-3.382-0.6288-3.576-2.219zm-13.3-3.081c0.8163-0.9086 2.788-1.551 4.029-0.00804 1.738 2.3-0.5282 4.234-1.659 4.265-2.632 0.04509-3.637-2.377-2.37-4.257zm6.764-0.8223c-0.5464-2.558 1.424-3.584 2.734-3.482 2.97 0.4798 2.96 3.951 0.9042 4.976-1.026 0.3392-2.446 0.5706-3.637-1.493zm4.141-12.1c0.6943-5.429 1.441-11.92 3.108-15.99 4.128-0.3865 14.53 5.209 18.45 9.174 2.558 2.448 2.736 2.978 1.412 4.192-5.977 4.579-15.76 12.14-16.99 11.83-1.256-0.1327-6.688-7.428-5.976-9.208zm7.366 7.933c4.926-3.505 10.5-7.294 14.88-10.97 0.164-0.3137 0.162-0.5896-0.00603-0.9119-0.3068-0.587-0.6863-0.5926-0.8345-0.01276-5.475 4.499-9.698 7.848-15.19 11.32-2.542-2.703-2.381-4.901-1.943-6.985 0.9771-4.69 1.595-8.6 2.713-12.7 0.1709-0.9437 0.6761-1.129 1.148-1.651 0.4059-0.3037 0.3791-0.3451-0.4649-0.7126-1.435-0.6621-3.062-0.7499-4.585-0.9228-0.02505 0.5106 1.834 2.973 1.696 4.829-0.2295 3.243-1.112 6.58-1.717 9.624-0.2343 1.569-0.6053 2.291-1.177 2.291-0.6364-0.433-1.002-0.9086-1.547-1.502-0.1258 0.868 0.1787 1.688 0.3943 2.457 2.943 3.59 3.905 7.243 6.633 5.841zm-33.44-14.25c0.4379-4.21 17.32-11.31 22.42-9.983 0.5276 7.784-0.5168 22.14-1.332 23.24-2.991 0.4144-5.982 0.481-8.973-0.07021-4.114-3.939-11.71-10.36-12.11-13.19zm20.73 12.11c0.5216-0.9598 0.3562-1.463 0.8227-7.308 0.1009-4.449 0.7238-9.307 0.0832-13.32-0.7133-0.1239-0.7645-0.03907-0.7828 1.306-0.05604 6.678-0.6813 12.27-0.9972 18.31-2.405 0.5086-3.885 0.1679-5.166-1.625-3.244-4.15-7.448-7.811-9.852-12.43-0.08144-0.4932-0.2372-0.8966-0.3461-0.8966-1.714 0.6759-3.032 2.626-3.496 3.521 0.193 0.1107 0.4478 0.14 0.5658 0.06539 0.1181-0.07493 0.8821 0.0462 1.697 0.2684 3.645 3.059 6.882 6.901 9.372 10.85-0.6906 0.3988-1.419 0.241-2.068-0.00904-0.3637 0.23 0.1467 0.8597 1.03 1.27 3.257 0.2351 6.495 0.9972 9.138-6.1e-4z" style="fill:#000000"/>
 <path id="trim" d="m395.4 11.84c-9.047-0.2485-2.634-0.5362-7.138-0.01651l9.903 54c6.393-0.3453 5.337-0.6708 10.08-1.725 0.9632-8.364-12.17-46.56-12.84-52.26zm-382.1 76.2c-6.845 10.93-5.873 25.04-8.037 35.19 0.6573 1.877 16.88-5.054 18.81-6.242 2.172-10.72 13.07-25.46 13.06-25.47 13.12-1.548 19.57-4.713 24.34-12.03-9.405-6.623-40.25 0.5032-48.17 8.559zm270.8 84.12c-22.71 1.124-126.4-3.712-134.7 3.87 47.04 3.413 116.6 0.1303 154.2-0.5102 32.52-1.082 68.39-0.28 100.3-3.112-0.5148-0.7108-1.783-1.715-4.148-2.134-7.424-1.314-78.02 3.072-115.7 1.886zm251.6-169.6c-8.282-3.382-21.24 0.3648-27.72-1.431-66.96 0.09227-140-0.5052-189.6 1.45-10.61 0.67-26.07 2.525-34.75 5.764 9.399 0.05518 243.4-2.423 258-1.769z" style="fill:#ffffff"/>
 <path id="brake" d="m563.6 16.05c1.409-0.7641 1.616-0.01928 10.2 13.04 7.641 11.99 15.83 29.19 18.7 38.91 2.084 6.12 3.236 28.14 1.326 28.71-0.5925 0.1745-6.317 2.291-7.464-0.3897-1.01-2.36-0.2152-9.176-0.8403-15.28-1.285-12.3-4.301-23.98-9.195-34.76-4.856-13.28-14.06-22.64-15.56-30.32z" style="fill:#8a112b"/>
 <path id="rHub" d="m435.7 133.3c31.6-22.81 62.45 2.558 62.75 32.21 0.1164 11.89-17.39 38.97-39.79 36.63-41.96-4.398-47.1-51.41-22.95-68.82z" style="fill:#ffffff"/>
 <path id="rWheel" d="m458.7 117.8c22.3 0 46.59 15.7 46.59 46.69 0.3994 21.87-19.32 44.21-44.83 44.21-25.98 0-46.05-19.84-46.05-45.83 0-26.78 22.91-45.06 44.28-45.06zm36.01 57.83c6.936-21.32-3.63-42.68-27.45-48.92-27.8-4.434-44.13 17.66-44.78 34.28-1.136 19.15 11.71 32.77 24.98 37.6 23.83 7.53 43.28-8.304 47.25-22.95zm-48.73 20.82c-0.439-0.4783-0.4495-0.5756-0.1531-1.435 3.346-6.663 6.143-11.72 9.788-17.98 0.979-1.412 1.437-1.382 4.687 0.3129 4.428 2.31 5.326 3.216 5.988 6.028 1.387 4.481 3.026 8.691 4.011 13.48-4.584 3.432-17.54 2.335-24.32-0.4063zm22.79 0.3839c-0.7997-0.3365-2.438-1.832-2.807-2.561-0.5377-1.064-3.026-12.16-2.782-12.4 0.2402-0.2457 0.9579-0.2713 1.377-0.04942 0.8275 0.4388 0.2895-0.5905-0.6427-1.229-1.268-0.8689-6.331-3.44-6.774-3.44-0.7975 0-1.255 0.5638-2.666 3.289-0.8074 1.559-2.632 4.877-4.056 7.375-3.392 5.955-3.614 6.435-3.428 7.442 0.2001 1.092 0.7811 0.8777 0.7811-0.2875 0-0.587 0.1964-1.094 0.6402-1.65 1.949-3.195 7.519-16.25 9.044-15.01 0.5554 0.00402 2.573 1.031 3.006 1.531 1.962 6.228 2.454 9.521 3.939 15.57 0.2879 0.7655 0.2732 1.978-0.02943 2.45-0.1763 0.2753-0.2767 0.5456-0.2229 0.6005 1.957 0.1424 5.316-1.129 4.62-1.624zm-1.709-22.6c2.856-2.531 6.047-4.202 9.046-4.293 2.647 0.5272 13.03 4.526 15.78 6.337 0.8141 2.371-8.16 14.66-14.68 18.04-3.209 3.183-8.266-15.89-10.15-20.08zm9.802 18.69c0.06298-0.4438-0.6019-0.2519-0.8672-0.363-2.429-6.49-4.953-11.23-6.726-17.5 0.07172-0.6279 1.155-1.286 2.724-1.654 1.773-0.5762 9.757 3.492 13.04 5.096 3.194 1.566 4.029 2.187 4.063 3.026 1.121-0.9576 2.035-3.232 2.607-4.803-0.04148-0.04229-0.8436 0.08547-1.783 0.284-0.9391 0.1985-1.987 0.3609-2.327 0.3609-4.204-1.536-8.125-3.028-11.76-5.41 0.03274-0.2434 0.3873-0.6074 0.7881-0.8088 1.109-0.5572 0.8869-0.777-0.6722-0.6671-2.993 0.6055-5.299 1.722-7.411 3.684-0.5679 1.139-0.5588 1.241 0.2732 3.112 1.955 5.207 4.399 10.62 6.294 15.31 0.2682 0.7002 0.7908 1.424 1.028 1.424 0.5572-0.1772 0.5912-0.6116 0.7338-1.092zm-50.48-20.6c7.931-1.305 14.48-3.129 21.59-3.169 0.8288 1.183 2.442 6.876 1.692 10.12-1.356 2.736-8.757 14.09-9.123 14-3.633 0.2378-17.62-18.75-14.16-20.95zm13.79 20.37c-0.2255-0.9322-0.2902-1.926-0.2447-2.71-0.8951-1.356 4.393-7.604 7.337-11.53 0.6083-0.5602 1.072-0.3127 1.328 0.7087 0.2118 1.07 0.2323 0.8186 0.6411-0.03927-0.04851-4.268-0.08862-10.69-3.884-9.416-5.984 0.8484-12.36 1.787-17.48 3.214-0.2922 0.2989-0.06296 1.069 0.2581 0.8652 5.704-1.013 11.76-2.484 17.2-3.123 1.791-0.3722 3.035 3.955 1.531 5.452-2.666 4.311-8.242 13.95-10.85 12.67-0.9314-0.3026-0.3138 0.5846 1.61 2.312 0.5965 0.892 1.887 1.391 2.552 1.593zm16.39-22.35c1.506-1.764 4.073-1.333 4.733 1.022 0.1543 1.155-0.4959 2.366-1.498 2.852-2.585 0.9947-4.603-1.611-3.235-3.873zm7.07-2.78c0.9194-2.448 3.248-1.955 3.86-1.389 1.673 0.955 1.448 3.353 0.1814 4.206-2.043 1.456-4.727-0.4466-4.04-2.817zm8.523-4.987c0-0.7186 0.9084-4.683 1.378-6.013 1.934-5.553 10.52-8.359 15.98-10.95 4.47 5.574 5.466 15.83 4.324 24.11-1.856 0.9882-22.77-4.296-21.68-7.144zm20.19 6.554c0.1966-0.07734 0.3572-0.3221 0.3572-0.5445 0-0.3319-0.2811-0.4309-1.572-0.5537-5.652-1.542-13.52-2.684-17.17-6.017 0.07885-1.122 0.375-2.034 0.6849-3.108 0.2055-1.914 10.37-5.454 16.1-7.889 0.5813 0 1.057-0.09662 1.057-0.2147 0-0.4585-2.018-4.637-2.241-4.637-0.5617 0.7331-0.8259 1.828-1.155 2.657-0.7457 1.671-1.053 1.879-7.517 5.082-4.87 2.415-5.117 2.455-5.117 0.8597 0-0.8016-0.00804-0.8088-0.4516-0.398-0.2484 0.23-0.4516 0.5164-0.4516 0.6362-1.084 2.951-2.713 7.573-1.575 8.614 5.474 2.622 11.54 3.666 16.47 5.502 0.8987 0.21 1.814 0.1117 2.574 0.01115zm-41.63-4.259c0.9196-0.966 3.271-0.4558 3.796 0.8651 0.9413 1.451-0.1454 3.839-2.392 3.81-2.749-0.3342-3.154-3.562-1.405-4.675zm-25.46 1.804c-1.497 0.00972-1.086-18.24 6.75-24.2 5.174 4.15 10.28 9.159 15.06 13.82 1.122 1.135 1.21 1.3 1.092 2.047-0.7603 2.436-4.451 6.673-6.782 7.118-5.506 0.23-11.17 1.275-16.12 1.216zm0.956-1.773c1.867-1.846 1.889-1.851 8.554-1.725 3.248 0.06217 6.149 0.164 6.446 0.227 0.5348 0.113 0.5307 0.1256-0.3281 1.026-0.945 0.9903-0.9167 1.079 0.1889 0.5907 1.32-0.582 4.792-4.332 5.675-6.13 0.7977-1.623 0.7883-1.643-1.958-4.192-2.983-2.906-6.468-5.894-9.314-8.449-2.101-2.082-3.26-2.672-3.58-1.821-0.07333 0.1948 0.1142 0.4006 0.4888 0.5368 4.603 4.115 9.625 7.985 13.82 12.73 0 0.528-1.972 2.784-2.688 3.075-0.9105 0.3695-16.13 0.3976-17.4 0.03184-0.5529-0.1601-1.05-0.2455-1.105-0.1899-0.1371 0.1403-0.2189 4.553-0.09084 4.907 0.9737 0.773 0.3951 0.1566 1.286-0.6118zm38.08-4.562c0.07734-3.113 3.334-3.446 4.712-1.724 1.27 2.504-0.5504 3.827-1.137 3.943-1.968 0.6607-3.382-0.6288-3.576-2.219zm-13.3-3.081c0.8163-0.9086 2.788-1.551 4.029-0.00804 1.738 2.3-0.5282 4.234-1.659 4.265-2.632 0.04509-3.637-2.377-2.37-4.257zm6.764-0.8223c-0.5464-2.558 1.424-3.584 2.734-3.482 2.97 0.4798 2.96 3.951 0.9042 4.976-1.026 0.3392-2.446 0.5706-3.637-1.493zm4.141-12.1c0.6942-5.429 1.441-11.92 3.108-15.99 4.128-0.3865 14.53 5.209 18.45 9.174 2.558 2.448 2.736 2.978 1.412 4.192-5.977 4.579-15.76 12.14-16.99 11.83-1.256-0.1327-6.688-7.428-5.976-9.208zm7.366 7.933c4.926-3.505 10.5-7.294 14.88-10.97 0.164-0.3137 0.162-0.5896-0.00603-0.9119-0.3068-0.587-0.6863-0.5926-0.8345-0.01276-5.475 4.499-9.698 7.848-15.19 11.32-2.542-2.703-2.381-4.901-1.943-6.985 0.9771-4.69 1.595-8.6 2.713-12.7 0.1709-0.9437 0.6761-1.129 1.148-1.651 0.4059-0.3037 0.3791-0.3451-0.4649-0.7126-1.435-0.6621-3.062-0.7499-4.585-0.9228-0.02505 0.5106 1.834 2.973 1.696 4.829-0.2295 3.243-1.112 6.58-1.717 9.624-0.2343 1.569-0.6053 2.291-1.177 2.291-0.6364-0.433-1.002-0.9086-1.547-1.502-0.1258 0.868 0.1787 1.688 0.3943 2.457 2.943 3.59 3.905 7.243 6.633 5.841zm-33.44-14.25c0.4379-4.21 17.32-11.31 22.42-9.983 0.5276 7.784-0.5168 22.14-1.332 23.24-2.991 0.4144-5.982 0.481-8.973-0.07021-4.114-3.939-11.71-10.36-12.11-13.19zm20.73 12.11c0.5216-0.9598 0.3562-1.463 0.8227-7.308 0.101-4.449 0.7238-9.307 0.0832-13.32-0.7133-0.1239-0.7645-0.03907-0.7828 1.306-0.05604 6.678-0.6813 12.27-0.9972 18.31-2.405 0.5086-3.885 0.1679-5.166-1.625-3.244-4.15-7.448-7.811-9.852-12.43-0.08144-0.4932-0.2372-0.8966-0.3461-0.8966-1.714 0.6759-3.032 2.626-3.496 3.521 0.193 0.1107 0.4478 0.14 0.5658 0.06539 0.1181-0.07493 0.8821 0.0462 1.697 0.2684 3.645 3.059 6.882 6.901 9.372 10.85-0.6906 0.3988-1.419 0.241-2.068-0.00904-0.3637 0.23 0.1467 0.8597 1.03 1.27 3.257 0.2351 6.495 0.9972 9.138-6.1e-4z" style="fill:#000000"/>
 <path id="body" d="m308.1 2.993c-6.166 0.7284-18.34 1.996-29.37 5.498-12.7 0.1653-29.81 1.326-37.56 2.218-1.65 0.1899-5.407 0.3885-8.142 1.298-1.161 0.3859-0.5895-3.174-4.355-1.747 0.3695-4.87-1.698-4.284-6.737-1.343-2.586 2.732-0.1 5.884-9.769 9.848-22.96 11.27-47.8 31.09-65.03 46.94-29.22 1.61-60.95 2.643-85.22 6.444-12.35 1.694-36.61 5.119-46.03 9.936-7.92 3.534-11.87 19.12-13.23 26.55-2.765 10.92-2.767 28.28-2.624 36.4 0.2956 15.68 1.805 16.87 4.701 21.25 3.232 8.579 8.526 7.055 12.91 12.98 0.3709 1.634 0.5074 6.761 1.784 7.494 6.824 1.32 16.65 2.313 23.48 1.821-2.675-34.75-1.279-60.42 16.21-69.74 19.66-9.399 57.85-12.59 72.49 0 8.946 14.6 8.436 25.01 12.66 41.28 0.2956 5.132 2.654 15.62 3.412 19.07 0.748 0.2964 10.32 0.5424 20.32 0.3707 39.75 0.04741 81.92 0.9329 123.3 0.4452 38.13-0.9233 78.53-3.608 113.5-4.644 2.142-7.246 2.192-10.29 3.017-15.88 2.599-22.11 8.271-40.8 19.42-47.75 14.42-10.26 56.57-7.443 68.03 0 5.736 2.259 17.74 28.14 19.07 53.97 6.133-0.3986 30.26-2.685 40.14-3.504 20.78-1.722 29.67-2.957 29.77-3.381 0.718 0.03218 11.39-13.91 14.2-21.02 1.474-5.685 1.318-11.02 1.373-15.13 0.1619-4.069 0.5515-9.849-1.658-12.08-1.984-3.165-2.532-1.986-3.3-3.654 0.3167-2.247-0.1575-4.191-0.7722-10.54l-6.853-0.3491c-0.1491-3.642 0.4018-5.222-0.09084-7.723-1.137-14.77 0.127-12.61-2.429-23.52-2.96-8.664-10.82-26.78-13.11-30.71-5.24-8.813-5.318-9.019-10.31-16.9-0.4212-1.453 4.793 0.01072 4.633 0.2076-3.374-5.207 0.9769 1.243 5.462-2.92-0.3667-1.678 2.23-7.025-6.551-7.703-6.093-0.5726-15.78-0.1699-23.48-1.099-4.481-2.415-2.794-3.469-10.18-5.067-28.43-1.296-81.54-0.2425-128.1 0.5641-8.122 0.296-86.54 0.01588-95.11 1.797zm219.2-0.9678c6.804-0.3315 7.228 1.99 12.33 3.873-101.4-0.6707-174.9-0.02068-255.6 2.326 2.527-0.7437 16.89-3.125 24.35-4.237 5.442-1.228 59.15-1.911 90.16-1.906 13.61-0.139 120.9-0.7412 128.7-0.05529zm-129.4 59.95c-2.191-14.44-5.561-29.46-9.05-47.16l-0.5014-2.467c1.994 0.01123 3.666 0.1152 5.623 0.1295 7.317 22.17 9.041 33.68 12.86 49.11-0.3249 3.158-3.316 2.693-8.697 2.816zm-339.5 17.88c-2.999 4.85-5.086 6.637-9.359 7.562-11.05 1.375-15.71 2.542-18.48 6.518-5.668 5.767-5.097 16.22-12.83 24.32-2.642 1.013-8.501 2.394-10.4 2.055 0.2302-4.44 4.317-30.1 6.651-31.59 17.68-8.369 28.45-6.772 44.42-8.863zm343.6 92.06c-37.18 2.309-96.89 2.236-111 2.982-14.58 0.2022-32.6 0.5082-47.82 0.6091-33.79 0.03662-83.1 1.834-91.89 0.1523 0.4139-0.6436 2.283-1.748 3.512-1.231 7.335 0.5302 71.37-0.3134 136-1.122 41.19-0.5156 74.77-1.938 109.6-2.687z" style="fill:#000000"/>
 <path id="dDTrim" d="m285.3 14.53c-22.43-0.02721-50.06-0.6451-71.37 10.39-18.65 12.29-42.29 24.18-54.17 43.6 0.7047 1.737 1.866 3.141 3.813 3.964l119.8-4.287 0.2475-3.388-119 3.733c0.2479-7.751 38.54-34.9 53.93-41.61 22.63-9.858 46.73-9.076 66.71-9.845zm-10.9 66.57-30.1 1.387 0.5536 5.272 32.74-0.972zm7.345 45.83-123.7 2.03 2.498 10.68 121.6-6.874z" style="fill:#ffffff"/>
 <path id="dDoor" d="m285.3 14.73c-24.65 0.7226-35.83 1.196-43.59 2.643-18.46 2.666-32.7 10.09-47.56 20.66-9.597 7.551-23.39 17.6-31.75 27.25-0.9422 1.286-5.325 7.191 5.264 6.445 15.93-0.3879 35.39-1.115 51.5-1.655 24.35-0.513 39.23-1.729 64.28-2.258l0.1776-2.761c-56.13 1.237-98.06 3.81-105 3.93-3.327 0.05764-15.61 1.399-14.79-0.4541 2.33-7.061 19.58-21.09 33.84-30.54 23.5-15.93 36.58-18.59 66.37-20.59 9.57-0.2593 10.79-0.3535 21.23-0.6079zm-10.55 68.25c-1.656-1.439-16.94-0.3789-21.53-0.1058-12.27 0.5201-6.848 4.925-4.853 4.244 9.468-0.9744 22.02 0.1518 26.85-1.542zm7.056 44.28c-17.93 0.3968-26.31 0.9929-43.55 1.237-27.24 0.4823-54.57 0.8995-78.72 1.574 0.2832 10.28 1.706 8.748 11.3 7.735 42.69-2.358 73.29-4.393 111.2-5.19zm-118.4 39.4c-6.906-14.28-7.491-31.08-9.688-47.24-0.3563-15.4-1.676-31.66-0.6-45.79 0.7561-4.513 2.229-7.815 4.571-10.39 2.556-3.235 6.972-6.967 10.51-9.808 9.094-7.642 18.7-14.37 28.77-21.43 12.53-8.517 26.15-14.57 41.09-17.2 10.17-2.353 19.46-2.544 28.97-2.595l18.34-0.2092c-0.4175 17.74-0.1719 37.35-2.114 57.34 0 0-1.371 26.04-1.521 40.37-0.08641 8.272-0.01197 16.14 0.2791 23.66 1.173 17.08 2.823 20.06 5.16 32.63z" style="fill:#000000"/>
 <path id="rDTrim" d="m371.6 78.33c-5.717 1.131-11 0.7763-10.73 3.994 0.4986 1.687 3.94 1.848 12.51 1.517 5.4-0.7569 19.3-0.339 19.35-2.686-0.1702-3.934-5.604-3.849-21.13-2.825zm-89.63 54.54 110.7-3.574c4.227-5.249 2.374-2.316 3.643-6.795l-114.5 4.585m1.616-58.61 0.277-3.708 113.7-3.033 0.4292 2.783zm1.811-51.39 0.04-2.562c34.36-0.8008 68.88-2.676 103.2-2.384l0.5117 2.899c-36.11-0.06602-72.81 1.348-103.7 2.047z" style="fill:#ffffff"/>
 <path id="rD" d="m283.6 65.05c40.77-0.8967 82.02-2.38 113.7-3.08l0.3536 2.436c-17.95 0.195-110.6 3.631-114.2 3.41 0.02591-0.7069 0.1452-2.205 0.1549-2.765zm105.2-50.16c-35.04-0.424-71.35 0.9488-103.6 1.9l0.03-2.062c31.34-0.9909 68.21-2.593 103.1-2.391m-16.77 70.84c-10.98 0.4277-9.336 1.055-9.407-2.72 4.483-1.933 25.65-2.692 28.91-1.51 0.6698 0.6792 1.534 2.572 0.4288 2.916-3.544 1.103-14.84 0.6504-19.94 1.313zm-89.86 44.09c40.32-0.8836 80.35-2.559 113.3-3.447 0.9566 0.6355-1.128 2.543-3.896 3.895-40.12 1.331-75.97 4.211-109.2 4.907zm115.7 35.53c2.589-28.18 6.661-59.05 2.004-88.92-3.329-21.35-7.508-43.22-11.64-64.32l-102.5 2.447c-0.2659 10.39-0.04319 34.04-2.114 57.34-0.9483 14.78-1.406 32.76-1.521 40.37-0.1722 9.664-0.08823 17.51 0.2793 23.66 0.718 12.27 2.466 20.16 5.161 32.63z" style="fill:#000000"/>
 <g transform="translate(.0149 .02176)">
  <g transform="translate(-1.399,-5.743)">
   <path d="m462.4 178.5c-6.135-1.021-11.44-4.177-16.08-9.575-8.115-9.43-17.06-30.87-20.43-48.99-0.4025-2.161-0.7318-4.14-0.7318-4.4 0-0.3999 0.2526-0.5129 1.66-0.7428 2.531-0.4135 3.092-0.368 3.222 0.261 0.06051 0.2927 0.3355 1.809 0.6111 3.37 1.641 9.292 5.186 20.52 9.562 30.27 5.967 13.3 11.14 20.08 17.76 23.25 6.854 3.281 13.52 2.341 22.81-3.221 1.343-0.8035 2.527-1.461 2.63-1.461 0.2272 0 2.458 3.581 2.458 3.946 0 0.491-6.493 4.084-9.757 5.399-2.695 1.086-4.057 1.456-6.926 1.882-2.857 0.4245-4.277 0.426-6.793 0.00722z" style="fill:#e39fa0;stroke-width:.2378"/>
   <path d="m462.2 178.3c-6.092-1.014-11.39-4.145-15.9-9.403-8.105-9.444-17.03-30.92-20.4-49.07-0.4162-2.244-0.6996-4.227-0.6296-4.407 0.08061-0.2078 0.8844-0.4392 2.197-0.6324 2.249-0.331 2.496-0.2432 2.504 0.8888 0.00202 0.2861 0.3302 2.149 0.7293 4.139 2.468 12.31 6.607 24.06 12.61 35.78 4.293 8.386 9.089 13.82 14.46 16.4 2.936 1.406 4.781 1.808 8.3 1.811 3.379 0.00294 5.335-0.4116 8.894-1.886 1.817-0.7525 6.132-3.058 7.841-4.189l0.5985-0.3963 1.267 2.026c0.697 1.114 1.234 2.048 1.194 2.076-1.736 1.197-7.198 4.072-9.472 4.986-2.699 1.085-4.06 1.455-6.926 1.88-2.867 0.426-4.744 0.4279-7.272 0.00722z" style="fill:#a86a6b;stroke-width:.2378"/>
   <path d="m462.4 178.3c-6.092-1.014-11.39-4.145-15.9-9.403-8.073-9.406-17.01-30.86-20.37-48.92-0.4025-2.161-0.7318-4.092-0.7318-4.293 0-0.5537 3.629-1.178 4.336-0.7461 0.1133 0.06928 0.206 0.3804 0.206 0.6913s0.3265 2.194 0.7256 4.184c2.468 12.31 6.607 24.06 12.61 35.78 2.342 4.575 5.054 8.57 7.658 11.28 2.561 2.665 4.491 4.131 7.046 5.354 6.859 3.283 13.52 2.341 22.83-3.23 1.352-0.8086 2.548-1.415 2.659-1.347 0.2756 0.1685 2.175 3.299 2.17 3.576-0.00909 0.4412-6.459 3.961-9.514 5.191-2.695 1.086-4.057 1.456-6.926 1.882-2.857 0.4245-4.277 0.426-6.793 0.00722z" style="fill:#e44728;stroke-width:.2378"/>
   <path d="m462.4 178.3c-6.092-1.014-11.39-4.145-15.9-9.403-8.073-9.406-17.01-30.86-20.37-48.92-0.4025-2.161-0.7318-4.096-0.7318-4.302 0-0.4666 2.109-0.8538 2.37-0.4352 0.09118 0.146 0.4717 1.889 0.8457 3.874 3.661 19.43 12.93 40.98 21.31 49.54 4.302 4.394 8.288 6.436 14 7.178 5.213 0.6758 10.79-1.013 18.56-5.625 1.645-0.9755 1.783-1.017 2.189-0.6535 0.4328 0.3875 1.102 1.726 0.9276 1.857-1.277 0.9596-7.207 4.087-9.491 5.005-2.699 1.085-4.06 1.455-6.926 1.88-2.857 0.4245-4.277 0.426-6.793 0.00722zm0.5276-3.797c-3.172-0.4892-6.809-2.079-9.324-4.074-0.5917-0.4696-1.968-1.764-3.058-2.877-6.702-6.841-15.04-24.84-19.18-41.4-1.244-4.974-2.353-11.35-1.974-11.35 0.3995 0 0.38-0.06917 1.03 3.666 1.605 9.227 5.145 20.45 9.553 30.27 3.898 8.69 7.31 14.34 10.96 18.13 2.561 2.665 4.491 4.131 7.046 5.354 6.865 3.286 13.51 2.342 22.85-3.245 1.872-1.12 2.529-1.408 2.674-1.176 0.1333 0.2134-0.09144 0.4683-0.7284 0.8263-0.5067 0.2847-1.387 0.8258-1.957 1.202-0.8467 0.5598-5.531 2.823-7.49 3.62-1.491 0.606-6.057 1.446-7.576 1.394-0.435-0.01491-1.705-0.1681-2.822-0.3404z" style="fill:#ce3327;stroke-width:.2378"/>
   <path d="m462.4 178.3c-6.092-1.014-11.39-4.145-15.9-9.403-8.189-9.541-17.25-31.48-20.52-49.67-0.3678-2.049-0.6139-3.78-0.5469-3.846 0.06697-0.06625 0.5405-0.1458 1.052-0.1767l0.9306-0.0563 0.2729 1.419c0.1501 0.7805 0.4609 2.483 0.6906 3.784 0.5454 3.088 1.847 8.407 2.75 11.23 2.243 7.026 2.896 9.037 3.091 9.517 0.1188 0.2938 0.6045 1.545 1.079 2.781s1.007 2.566 1.182 2.956c2.176 4.848 2.982 6.544 4.742 9.989 1.017 1.99 2.657 4.776 3.646 6.19s1.797 2.67 1.797 2.79c0 0.4046 5.229 5.463 6.746 6.527 4.506 3.158 10.14 4.594 15.13 3.857 0.5259-0.07769 1.334-0.1871 1.795-0.2432 0.7884-0.09577 2.626-0.6811 5.377-1.713 1.402-0.526 5.893-2.894 7.614-4.016 0.8444-0.5502 1.285-0.7112 1.489-0.544 0.3174 0.2606 0.9383 1.614 0.7911 1.725-1.277 0.9596-7.207 4.087-9.491 5.005-2.699 1.085-4.06 1.455-6.926 1.88-2.857 0.4245-4.277 0.426-6.793 0.00722z" style="fill:#ae2f24;stroke-width:.2378"/>
   <path d="m462.4 178.3c-6.092-1.014-11.39-4.145-15.9-9.403-8.073-9.406-17.01-30.86-20.37-48.92-0.8846-4.748-0.8829-4.704-0.1764-4.704 0.6159 0 0.6877 0.2525 1.58 5.558 0.2408 1.431 0.6585 3.347 0.9282 4.257s0.6038 2.28 0.7424 3.044c0.3943 2.174 3.232 10.84 5.278 16.11 0.5549 1.431 1.14 2.951 1.301 3.378 0.1604 0.4269 0.4173 0.9006 0.5708 1.052s0.2792 0.4227 0.2792 0.6017c0 0.802 5.043 10.43 7.256 13.86 2.045 3.165 2.863 4.186 5.212 6.504 3.033 2.993 3.572 3.439 5.352 4.425 1.939 1.074 2.365 1.278 2.679 1.279 0.1644 8e-4 0.2988 0.1079 0.2988 0.238s0.2474 0.2365 0.5498 0.2365 0.652 0.09202 0.7769 0.2045c0.1249 0.1125 1.195 0.3896 2.379 0.6159 1.183 0.2263 2.313 0.463 2.51 0.5262 1.13 0.3617 6.135-0.09432 8.703-0.7931 2.663-0.7244 7.066-2.774 10.6-4.935 1.871-1.143 2.089-1.222 2.365-0.8629 0.5035 0.6551 0.378 0.8297-1.299 1.807-6.448 3.758-10.09 5.209-14.83 5.914-2.857 0.4245-4.277 0.426-6.793 0.00722z" style="fill:#871a1b;stroke-width:.2378"/>
   <path d="m462.4 178.3c-6.092-1.014-11.39-4.145-15.9-9.403-8.189-9.541-17.25-31.48-20.52-49.67-0.5943-3.311-0.6515-4.337-0.2181-3.908 0.0732 0.07243 0.442 1.82 0.8194 3.883 2.854 15.6 9.849 33.97 17.07 44.84 1.798 2.706 2.91 4.072 5.002 6.149 1.479 1.469 2.848 2.781 3.042 2.916 2.393 1.672 4.204 2.671 6.073 3.352 4.611 1.679 9.81 1.906 14.48 0.6329 3.037-0.8278 7.546-2.81 10.16-4.465 2.472-1.566 2.946-1.799 3.113-1.531 0.08931 0.143 0.1247 0.2874 0.07869 0.3209-1.414 1.029-7.207 4.082-9.482 4.997-2.699 1.085-4.06 1.455-6.926 1.88-2.857 0.4245-4.277 0.426-6.793 0.00722z" style="fill:#791416;stroke-width:.2378"/>
  </g>
  <rect x="111.6" y="260.9" width="13.7" height="161.5" style="fill:url(#SVGID_181_)"/>
  <g transform="translate(-2.094,-6.503)">
   <path d="m144.2 273.3c-5.3-0.5376-10.78-2.289-17.07-5.451-3.616-1.818-9.869-5.52-9.869-5.842 0-0.1203 0.5676-1.096 1.261-2.167 0.6938-1.072 1.441-2.243 1.66-2.602s0.4817-0.6537 0.5836-0.6537 1.615 0.8666 3.362 1.926c9.152 5.547 16.38 8.108 22.91 8.114 4.908 0.00474 8.548-0.8684 13.12-3.146 8.943-4.459 16.2-13.5 23.65-29.48 8.877-19.03 14.18-35.45 17.46-54.04 0.435-2.466 0.9076-4.6 1.05-4.744 0.1884-0.1894 1.085-0.1424 3.272 0.1717 1.657 0.238 3.048 0.4642 3.091 0.5028 0.1908 0.171-2.431 13.58-3.616 18.49-2.953 12.25-7.052 24.22-12.58 36.76-6.904 15.66-12.96 25.29-20.01 31.8-8.126 7.507-18.58 11.33-28.27 10.35z" style="fill:#d59f9f;stroke-width:.237"/>
   <path d="m144 273.1c-3.471-0.352-7.974-1.496-11.64-2.957-4.852-1.935-14.83-7.434-14.83-8.173 0-0.3282 3-4.937 3.29-5.054 0.0849-0.03427 1.586 0.8056 3.336 1.866 9.157 5.551 16.38 8.111 22.92 8.117 4.907 0.00473 8.547-0.8682 13.12-3.146 9.016-4.494 16.41-13.7 23.88-29.71 8.875-19.03 14.18-35.45 17.46-54.03 0.4341-2.46 0.8566-4.541 0.939-4.624 0.1161-0.1168 6.016 0.5943 6.206 0.748 0.1544 0.125-2.694 14.45-3.68 18.51-5.043 20.75-15.58 46.07-24.46 58.77-8.168 11.68-18.05 18.21-29.68 19.61-1.897 0.2274-5.045 0.2641-6.86 0.08004z" style="fill:#e44728;stroke-width:.237"/>
   <path d="m144 273.1c-3.471-0.352-7.974-1.496-11.64-2.957-4.982-1.987-14.83-7.437-14.83-8.206 0-0.1981 0.401-0.9234 0.8911-1.612l0.8911-1.252 2.713 1.648c2.874 1.746 9.741 5.408 10.14 5.408 0.2049 0 0.8354 0.2614 3.442 1.427 1.256 0.5616 5.943 1.648 8.201 1.9 2.978 0.333 7.169 0.1657 9.216-0.3678 0.7938-0.2069 1.72-0.4172 2.057-0.4673 1.023-0.1519 4.297-1.426 6.415-2.497 1.616-0.817 5.869-3.515 6.37-4.041 0.06499-0.0682 1.021-0.9774 2.124-2.02 3.851-3.64 7.657-8.528 10.92-14.02 2.669-4.494 7.627-14.75 10.52-21.75 2.814-6.819 6.662-17.67 7.505-21.16 0.1736-0.719 0.6904-2.539 1.148-4.044 0.4581-1.505 1.006-3.591 1.218-4.635 0.3441-1.697 0.9127-4.09 1.557-6.555 0.1917-0.7328 0.7317-3.714 1.945-10.73 0.2154-1.246 0.3577-1.581 0.6385-1.503 0.1988 0.0556 1.025 0.1727 1.837 0.2602 1.354 0.146 1.466 0.2015 1.363 0.6708-0.06199 0.2814-0.5942 3.152-1.183 6.379-2.98 16.34-7.758 31.68-14.94 47.97-6.904 15.66-12.96 25.29-20.01 31.8-8.175 7.553-18.64 11.35-28.51 10.35zm-0.5908-5.452c-4.535-0.6661-9.407-2.381-14.65-5.158-3.989-2.112-8.202-4.688-8.333-5.097-0.2503-0.7784 0.809-0.3848 3.731 1.386 9.16 5.553 16.39 8.113 22.92 8.119 4.907 0.00473 8.547-0.8682 13.12-3.146 8.726-4.349 16.1-13.33 23.22-28.27 8.896-18.68 14.72-36.35 17.91-54.33 1.114-6.281 0.9909-5.824 1.563-5.824 0.3935 0 0.467 0.1086 0.3622 0.5348-0.07235 0.2942-0.5708 2.995-1.108 6.002-1.696 9.496-4.411 19.92-7.585 29.12-1.46 4.23-4.993 13.41-5.993 15.57-0.3027 0.6537-1.241 2.739-2.084 4.635-5.702 12.81-11.3 21.61-17.48 27.46-7.443 7.052-16.69 10.31-25.58 9z" style="fill:#9a5354;stroke-width:.237"/>
   <path d="m144.2 273.1c-5.211-0.5285-10.75-2.281-16.84-5.325-3.196-1.599-9.853-5.471-9.862-5.737-0.00307-0.0928 0.3932-0.8004 0.8806-1.572l0.8862-1.404 2.718 1.654c2.87 1.746 9.743 5.413 10.15 5.413 0.2049 0 0.8354 0.2614 3.442 1.427 1.256 0.5616 5.943 1.648 8.201 1.9 2.978 0.333 7.169 0.1657 9.216-0.3678 0.7938-0.2069 1.72-0.4172 2.057-0.4673 1.023-0.1519 4.297-1.426 6.415-2.497 1.616-0.817 5.869-3.515 6.37-4.041 0.06499-0.0682 1.021-0.9774 2.124-2.02 3.851-3.64 7.657-8.528 10.92-14.02 2.669-4.494 7.627-14.75 10.52-21.75 2.814-6.819 6.662-17.67 7.505-21.16 0.1736-0.719 0.6904-2.539 1.148-4.044 0.4581-1.505 1.006-3.591 1.218-4.635 0.3441-1.697 0.9127-4.09 1.557-6.555 0.1917-0.7328 0.7317-3.714 1.945-10.73 0.215-1.244 0.3581-1.582 0.6385-1.505 0.1988 0.0543 0.9729 0.1687 1.72 0.2542 0.7474 0.08549 1.359 0.1883 1.359 0.2284 0 0.04014-0.529 2.951-1.176 6.469-3.134 17.05-7.801 32.1-15.06 48.57-8.202 18.61-15.3 28.9-24.29 35.22-7.138 5.02-15.89 7.485-23.75 6.688zm-0.8272-5.452c-4.535-0.6661-9.407-2.381-14.65-5.158-3.989-2.112-8.202-4.688-8.333-5.097-0.2503-0.7784 0.809-0.3848 3.731 1.386 9.16 5.553 16.39 8.113 22.92 8.119 4.907 0.00473 8.547-0.8682 13.12-3.146 8.726-4.349 16.1-13.33 23.22-28.27 8.896-18.68 14.72-36.35 17.91-54.33 1.114-6.281 0.9909-5.824 1.563-5.824 0.3935 0 0.467 0.1086 0.3622 0.5348-0.07235 0.2942-0.5708 2.995-1.108 6.002-1.696 9.496-4.411 19.92-7.585 29.12-1.46 4.23-4.993 13.41-5.993 15.57-0.3027 0.6537-1.241 2.739-2.084 4.635-5.702 12.81-11.3 21.61-17.48 27.46-7.443 7.052-16.69 10.31-25.58 9z" style="fill:#cd3127;stroke-width:.237"/>
   <path d="m144.2 273.1c-5.211-0.5285-10.75-2.281-16.84-5.325-3.165-1.583-9.853-5.47-9.862-5.732-0.01041-0.3052 1.293-2.317 1.506-2.325 0.1164-0.00414 1.233 0.6248 2.481 1.398 6.088 3.77 11.6 6.4 15.98 7.625 1.04 0.291 2.007 0.6236 2.149 0.7391 0.1419 0.1155 0.3114 0.1564 0.3765 0.09093 0.06512-0.0655 1.119 0.08667 2.342 0.3381 4.043 0.8314 9.677 0.3679 14.62-1.203 4.227-1.343 9.681-4.534 12.73-7.448 0.8221-0.7859 1.639-1.51 1.816-1.61 0.4322-0.244 5.038-5.727 5.938-7.069 0.3946-0.5883 1.189-1.765 1.764-2.615 1.588-2.344 3.367-5.371 4.401-7.487 0.5105-1.046 1.578-3.132 2.372-4.635s1.653-3.268 1.909-3.922c0.2562-0.6537 0.935-2.205 1.509-3.447s1.264-2.793 1.535-3.447 0.8636-2.044 1.317-3.09c0.4535-1.046 1.001-2.436 1.217-3.09 0.3659-1.107 2.015-5.346 2.497-6.418 0.1175-0.2615 0.3694-1.027 0.5598-1.702 0.1903-0.6745 0.7151-2.279 1.166-3.565 1.186-3.381 3.214-10.32 3.733-12.76 0.2454-1.157 0.7087-3.082 1.03-4.279 0.7304-2.722 1.482-6.156 1.622-7.41 0.05877-0.5262 0.4569-2.758 0.8848-4.96l0.778-4.003 1.304 0.1542c0.7173 0.0848 1.337 0.1872 1.377 0.2275 0.1831 0.1842-2.416 13.44-3.589 18.3-2.951 12.24-7.051 24.22-12.58 36.76-8.202 18.61-15.3 28.9-24.29 35.22-7.138 5.02-15.89 7.485-23.75 6.688z" style="fill:#ae2e24;stroke-width:.237"/>
   <path d="m144.2 273.1c-5.211-0.5285-10.75-2.281-16.84-5.325-3.596-1.799-9.856-5.486-9.856-5.806-1.8e-4 -0.1307 0.1966-0.4953 0.4372-0.8101l0.4375-0.5724 0.6808 0.4536c0.3744 0.2495 0.893 0.5811 1.152 0.737 4.081 2.453 5.536 3.283 7.34 4.188 2.561 1.285 6.742 3.098 8.035 3.485 0.5114 0.1531 1.462 0.4404 2.112 0.6386 0.6499 0.1982 1.607 0.4516 2.127 0.5632 0.5199 0.1116 1.477 0.3269 2.127 0.4783 1.454 0.3388 7.534 0.4592 9.187 0.1819 4.403-0.739 7.533-1.748 11.26-3.626 2.504-1.264 5.595-3.288 7.056-4.619 0.4363-0.3978 1.518-1.376 2.405-2.174 0.8863-0.7981 2.231-2.213 2.988-3.144s1.603-1.932 1.879-2.224c0.2764-0.2919 0.8171-0.9937 1.202-1.56 0.3845-0.5658 1.212-1.776 1.838-2.69 2.768-4.035 7.423-12.88 10.64-20.21 1.605-3.659 2.175-4.94 2.499-5.616 0.1019-0.2126 0.5224-1.282 0.9345-2.377s1.105-2.9 1.54-4.011c2.232-5.702 4.537-12.71 6.568-19.97 0.9572-3.421 2.871-12.05 3.716-16.76 0.5165-2.876 0.9939-5.502 1.061-5.834 0.1071-0.5332 0.2187-0.5936 0.9406-0.5088 0.4504 0.05289 0.819 0.125 0.819 0.1603s-0.529 2.942-1.176 6.46c-3.134 17.05-7.801 32.1-15.06 48.57-8.202 18.61-15.3 28.9-24.29 35.22-7.138 5.02-15.89 7.485-23.75 6.688z" style="fill:#871a1b;stroke-width:.237"/>
   <path d="m144.2 273.1c-6.915-0.7014-14.08-3.429-23.21-8.833-3.052-1.806-4.087-2.654-3.242-2.654 0.3134 0 2.602 1.261 4.005 2.208 0.5849 0.3945 2.499 1.463 4.254 2.376 1.755 0.9121 3.426 1.805 3.714 1.984 0.2879 0.1792 0.6304 0.3258 0.7611 0.3258s0.7991 0.2532 1.485 0.5627c2.261 1.02 6.623 2.45 8.101 2.658 0.3899 0.05463 1.241 0.2101 1.891 0.3455 1.717 0.3578 6 0.6407 6.333 0.4183 0.1565-0.1047 0.8413-0.1687 1.522-0.1424 0.6804 0.02635 1.31-0.02499 1.398-0.1141s0.4736-0.162 0.8556-0.162c1.784 0 7.279-1.799 10.57-3.46 7.655-3.864 14.52-10.83 20.37-20.67 1.726-2.903 6.353-12 7.976-15.69 0.5761-1.307 1.388-3.126 1.805-4.041 0.4167-0.9151 0.8357-1.931 0.9312-2.258 0.09544-0.3268 0.2538-0.7012 0.3519-0.8319 0.09812-0.1307 0.6773-1.575 1.287-3.209s1.513-3.987 2.008-5.229c1.504-3.777 5.517-16.64 6.305-20.2 0.2166-0.9805 0.7437-3.173 1.171-4.873 0.4276-1.7 1.002-4.374 1.276-5.942 1.322-7.569 1.764-9.627 2.068-9.627 0.1993 0 0.2679 0.1912 0.1917 0.5348-0.06517 0.2942-0.6 3.175-1.189 6.402-2.98 16.34-7.758 31.68-14.94 47.97-6.904 15.66-12.96 25.29-20.01 31.8-8.075 7.46-18.52 11.31-28.04 10.35z" style="fill:#791415;stroke-width:.237"/>
  </g>
  <circle cx="118.5" cy="243.5" r="10.6" style="fill:url(#SVGID_182_)"/>
  <polygon transform="translate(-749.9,-437.5)" points="860.9 690.4 875.8 690.4 878.9 696.5 857.9 696.5" style="fill:url(#SVGID_183_)"/>
  <rect x="105.9" y="257.8" width="25.2" height="4.2" style="fill:url(#SVGID_184_)"/>
  <rect x="108.4" y="262" width="20.5" height="2.3" style="fill:url(#SVGID_185_)"/>
  <rect x="97.2" y="422.4" width="42.5" height="3.2" style="fill:url(#SVGID_186_)"/>
  <rect x="90.3" y="425.5" width="56.4" height="6" style="fill:url(#SVGID_187_)"/>
  <rect x="203" y="165.9" width="11.1" height="130.6" style="fill:url(#SVGID_188_)"/>
  <circle cx="208.5" cy="151.9" r="8.6" style="fill:url(#SVGID_189_)"/>
  <g transform="translate(-1.808,-8.243)">
   <path d="m226.4 178.5c-2.604-0.4079-3.651-0.7014-6.355-1.782-3.543-1.415-9.885-4.974-9.885-5.547 0-0.392 2.172-3.881 2.42-3.888 0.1014-0.00287 1.266 0.6522 2.589 1.456 7.126 4.33 12.53 5.811 17.62 4.828 9.902-1.911 16.9-10.66 24.98-31.25 2.734-6.965 5.606-17.11 6.756-23.88 0.7087-4.165 0.6124-3.902 1.43-3.902 0.3933 0 1.45 0.122 2.349 0.2712 1.419 0.2355 1.634 0.3367 1.633 0.7686-0.00162 0.8619-1.381 7.923-2.237 11.45-1.114 4.591-3.811 13.15-5.499 17.45-3.442 8.762-6.374 14.69-9.928 20.07-5.545 8.396-11.47 12.71-19.17 13.97-2.504 0.4092-3.999 0.4048-6.707-0.01944z" style="fill:#e39fa0;stroke-width:.2359"/>
   <path d="m226.2 178.3c-2.604-0.4079-3.651-0.7014-6.355-1.782-2.753-1.1-9.644-4.805-9.639-5.183 8.6e-4 -0.06504 0.5568-0.985 1.236-2.044l1.234-1.926 1.878 1.174c7.121 4.452 13.14 6.1 18.51 5.065 9.902-1.911 16.9-10.66 24.98-31.25 2.789-7.107 5.589-17.05 6.841-24.3 0.3098-1.794 0.6288-3.328 0.709-3.409 0.2724-0.2737 4.178 0.44 4.311 0.7877 0.1649 0.4319-1.155 7.521-2.185 11.74-0.4453 1.822-1.549 5.677-2.452 8.567-4.857 15.54-11.67 28.89-17.92 35.12-4.403 4.388-8.484 6.569-13.97 7.465-2.515 0.4111-4.463 0.4059-7.178-0.01944z" style="fill:#a86a6b;stroke-width:.2359"/>
   <path d="m226.4 178.3c-2.604-0.4079-3.651-0.7014-6.355-1.782-3.402-1.359-9.636-4.819-9.645-5.353-0.00477-0.3051 2.056-3.614 2.251-3.614 0.06279 0 1.196 0.6574 2.519 1.461 7.126 4.33 12.53 5.811 17.62 4.828 8.943-1.726 15.45-8.948 22.51-24.98 4.469-10.15 7.943-21.34 9.48-30.53 0.2909-1.739 0.5929-3.239 0.671-3.332 0.2186-0.2607 1.406-0.2344 2.9 0.0642 0.9929 0.1985 1.353 0.3744 1.352 0.6609-0.00184 0.7729-1.433 8.03-2.237 11.35-0.452 1.864-1.563 5.759-2.468 8.655-4.861 15.55-11.67 28.9-17.92 35.13-4.403 4.388-8.484 6.569-13.97 7.465-2.504 0.4092-3.999 0.4048-6.707-0.01944z" style="fill:#e44728;stroke-width:.2359"/>
   <path d="m226.4 178.3c-2.604-0.4079-3.651-0.7014-6.355-1.782-3.658-1.461-9.637-4.826-9.645-5.428-0.00247-0.2 0.2914-0.72 0.6532-1.155l0.6577-0.7917 1.755 1.057c7.939 4.784 13.41 6.395 18.82 5.547 4.066-0.6375 6.172-1.466 9.549-3.76 9.495-6.446 20.37-29.82 24.79-53.27l0.6682-3.548 1.11 0.04004c0.6106 0.02202 1.174 0.104 1.252 0.1822 0.07778 0.07816-0.1521 1.763-0.5108 3.744-2.933 16.2-9.751 34.33-17.09 45.44-5.476 8.291-11.27 12.49-18.94 13.75-2.504 0.4092-3.999 0.4048-6.707-0.01944zm0.4702-3.752c-2.887-0.5041-4.274-0.9699-7.574-2.544-3.967-1.892-7.041-3.795-6.791-4.202 0.1332-0.2166 0.8414 0.1037 2.625 1.188 7.167 4.355 12.56 5.836 17.66 4.851 8.943-1.726 15.45-8.948 22.51-24.98 4.475-10.17 7.903-21.22 9.531-30.74 0.4215-2.464 0.6329-3.209 0.926-3.266 0.2611-0.05052 0.35 0.06023 0.2845 0.3542-0.05243 0.2352-0.4087 2.139-0.7916 4.231-2.135 11.66-6.413 24.26-12.03 35.46-2.856 5.688-5.673 9.982-8.387 12.78-2.941 3.038-3.809 3.648-8.577 6.032-0.7019 0.3509-3.826 0.91-5.735 1.026-1.054 0.06428-2.66-0.02084-3.648-0.1934z" style="fill:#cf3327;stroke-width:.2359"/>
   <path d="m226.4 178.3c-2.604-0.4079-3.651-0.7014-6.355-1.782-3.631-1.45-9.638-4.826-9.644-5.419-0.00183-0.1951 0.2344-0.6506 0.525-1.012l0.5284-0.6574 1.197 0.7954c1.375 0.9137 5.993 3.449 7.041 3.865 2.269 0.9008 4.935 1.775 5.704 1.87 0.4873 0.0603 1.31 0.1732 1.827 0.2509 4.968 0.7454 10.31-0.643 14.89-3.868 1.483-1.045 6.642-6.105 6.642-6.515 0-0.1205 0.7961-1.376 1.769-2.79 1.962-2.852 5.158-9.005 7.544-14.52 0.1687-0.3902 0.5251-1.195 0.792-1.789s0.4853-1.211 0.4853-1.372 0.1714-0.6248 0.3808-1.032c0.5318-1.033 1.341-3.291 2.565-7.16 0.5764-1.821 1.308-4.109 1.625-5.085 0.8899-2.734 2.016-7.471 2.952-12.42l0.8501-4.494 0.9101 0.0563c0.5005 0.03096 0.9664 0.1129 1.035 0.1822 0.06888 0.06922-0.1682 1.747-0.5269 3.728-2.933 16.2-9.751 34.33-17.09 45.44-5.476 8.291-11.27 12.49-18.94 13.75-2.504 0.4092-3.999 0.4048-6.707-0.01944z" style="fill:#ae2f24;stroke-width:.2359"/>
   <path d="m226.4 178.3c-4.423-0.6929-8.254-2.264-14.41-5.908-1.646-0.9745-1.774-1.153-1.285-1.798 0.2637-0.3482 0.4834-0.2681 2.17 0.791 2.333 1.465 7.488 3.992 9.525 4.668 2.031 0.6744 5.603 1.233 7.674 1.2 2.041-0.03269 7.726-1.214 8.094-1.682 0.06472-0.08228 0.3824-0.2327 0.706-0.3343s0.9834-0.4352 1.466-0.7414c0.4828-0.3062 0.949-0.5567 1.036-0.5567 0.4285 0 2.544-1.813 5.003-4.287 2.295-2.309 3.115-3.351 5.117-6.504 2.201-3.465 7.147-13.07 7.147-13.88 0-0.19 0.1589-0.4778 0.353-0.6398 0.1942-0.1619 0.353-0.4469 0.353-0.6332s0.2148-0.8126 0.4773-1.392c1.413-3.118 5.586-15.7 6.112-18.43 0.1502-0.7805 0.4891-2.164 0.7529-3.075 0.2639-0.9106 0.6737-2.826 0.9108-4.257 0.8789-5.305 0.9496-5.558 1.556-5.558 0.6983 0 0.6979 0.00941-0.1623 4.612-1.022 5.469-2.128 9.848-3.997 15.83-4.861 15.55-11.67 28.9-17.92 35.13-4.403 4.388-8.484 6.569-13.97 7.465-2.504 0.4092-3.999 0.4048-6.707-0.01944z" style="fill:#871a1b;stroke-width:.2359"/>
   <path d="m226.4 178.3c-2.604-0.4079-3.651-0.7014-6.355-1.782-3.428-1.369-9.637-4.82-9.645-5.36-0.00247-0.1626 0.06243-0.2956 0.1442-0.2956 0.1683 0 1.295 0.6606 3.028 1.776 2.52 1.621 6.75 3.54 9.626 4.367 4.508 1.296 9.896 1.191 13.91-0.2702 2.081-0.7576 4.521-2.074 6.703-3.616 0.1917-0.1355 1.568-1.482 3.06-2.992 2.068-2.095 3.153-3.441 4.575-5.676 1.025-1.612 1.996-3.09 2.158-3.285 0.4633-0.5593 3.976-7.736 5.534-11.3 4.231-9.695 7.6-20.68 9.393-30.64 0.3716-2.063 0.7346-3.81 0.8067-3.883 0.4339-0.436 0.3795 0.6063-0.1978 3.795-2.933 16.2-9.751 34.33-17.09 45.44-5.476 8.291-11.27 12.49-18.94 13.75-2.504 0.4092-3.999 0.4048-6.707-0.01944z" style="fill:#791416;stroke-width:.2359"/>
  </g>
  <polygon transform="translate(-749.9,-437.5)" points="952.4 597 964.4 597 966.9 601.9 949.9 601.9" style="fill:url(#SVGID_190_)"/>
  <rect x="198.3" y="163.4" width="20.4" height="3.4" style="fill:url(#SVGID_191_)"/>
  <rect x="200.4" y="166.8" width="16.6" height="1.8" style="fill:url(#SVGID_192_)"/>
  <rect x="191.4" y="296.5" width="34.3" height="2.6" style="fill:url(#SVGID_193_)"/>
  <rect x="185.7" y="299" width="45.6" height="4.9" style="fill:url(#SVGID_194_)"/>
  <rect x="266" y="103.7" width="9.6" height="113.4" style="fill:url(#SVGID_195_)"/>
  <circle cx="270.8" cy="91.5" r="7.5" style="fill:url(#SVGID_196_)"/>
  <polygon transform="translate(-749.9,-437.5)" points="1016 535.6 1026 535.6 1028 539.9 1013 539.9" style="fill:url(#SVGID_197_)"/>
  <rect x="261.9" y="101.6" width="17.7" height="2.9" style="fill:url(#SVGID_198_)"/>
  <rect x="263.8" y="104.5" width="14.4" height="1.6" style="fill:url(#SVGID_199_)"/>
  <rect x="255.9" y="217.2" width="29.8" height="2.3" style="fill:url(#SVGID_200_)"/>
  <rect x="251" y="219.3" width="39.6" height="4.2" style="fill:url(#SVGID_201_)"/>
  <rect x="570.3" y="260.9" width="13.7" height="161.5" style="fill:url(#SVGID_202_)"/>
  <g transform="translate(2.893,-7.328)">
   <path d="m544 273.2c-9.751-1.455-17.72-6.018-24.95-14.28-4.277-4.891-7.671-10.16-11.7-18.18-7.814-15.55-13.6-31.15-17.42-46.97-1.174-4.862-3.356-16.11-3.356-17.29 0-0.5566 0.1092-0.6032 2.089-0.8923 1.149-0.1678 2.621-0.3125 3.272-0.3217l1.182-0.01661 0.5372 3.189c2.889 17.15 7.765 32.97 15.53 50.41 6.487 14.56 11.74 22.96 18.12 28.98 9.019 8.498 19.83 10.95 31.43 7.128 2.978-0.9818 8.861-3.834 13.02-6.314 3.302-1.967 3.429-2.02 3.88-1.614 0.2562 0.2308 0.4658 0.5069 0.4658 0.6135s0.6326 1.133 1.406 2.281 1.36 2.163 1.305 2.255c-0.05526 0.09263-1.52 1.012-3.256 2.043-10.71 6.363-17.95 8.914-26.08 9.188-2.159 0.07276-4.104-9e-4 -5.492-0.2079z" style="fill:#d59f9f;stroke-width:.2382"/>
   <path d="m544 272.9c-9.751-1.455-17.72-6.018-24.95-14.28-4.277-4.891-7.671-10.16-11.7-18.18-9.63-19.16-16.08-38.1-19.7-57.83-0.5904-3.217-1.073-6.004-1.073-6.193 0-0.3426 1.631-0.6784 5.028-1.035l1.327-0.1393 0.2995 1.99c1.52 10.1 5.345 24.88 9.189 35.51 3.763 10.4 9.443 23.06 13.71 30.54 11.36 19.94 25.85 27.37 42.61 21.84 2.974-0.9804 8.859-3.833 13.01-6.305 1.869-1.113 3.489-1.968 3.6-1.9 0.1113 0.06846 0.6159 0.798 1.121 1.621 0.5055 0.8232 1.222 1.869 1.593 2.323 0.3705 0.4547 0.6737 0.9382 0.6737 1.074s-1.477 1.115-3.283 2.175c-8.348 4.901-13.73 7.157-20.12 8.426-3.019 0.6003-8.535 0.7722-11.34 0.3534z" style="fill:#e44728;stroke-width:.2382"/>
   <path d="m544 272.9c-9.751-1.455-17.72-6.018-24.95-14.28-4.277-4.891-7.671-10.16-11.7-18.18-7.919-15.76-13.68-31.35-17.52-47.43-1.271-5.321-3.448-16.65-3.239-16.86 0.1119-0.1114 3.404-0.5897 3.5-0.5084 0.07268 0.06164 0.6194 3.043 1.375 7.501 0.5889 3.473 0.7258 4.116 1.566 7.369 0.2534 0.9805 0.7371 3.013 1.075 4.516 0.3378 1.503 0.9236 3.696 1.302 4.873 0.378 1.177 0.8633 2.835 1.078 3.684 0.4266 1.686 2.827 8.937 3.777 11.41 0.5769 1.502 2.68 6.866 3.728 9.508 0.2852 0.719 0.7695 1.842 1.076 2.496 0.3067 0.6537 1.273 2.779 2.146 4.723 1.935 4.304 5.384 11 7.489 14.53 7.357 12.35 16.24 19.88 26.54 22.49 3.487 0.8842 8.226 1.114 11.83 0.5725 1.438-0.2159 2.884-0.4848 3.212-0.5975 0.3283-0.1127 1.242-0.3863 2.029-0.608s1.755-0.5355 2.149-0.6973 1.468-0.5924 2.388-0.957c0.9192-0.3645 2.531-1.099 3.581-1.633 1.051-0.5337 2.421-1.218 3.045-1.521s2.532-1.394 4.239-2.425c3.039-1.835 3.109-1.864 3.378-1.357 0.151 0.2846 0.5803 0.8894 0.9541 1.344 0.3738 0.4547 0.6796 0.9382 0.6796 1.074s-1.477 1.115-3.283 2.175c-8.348 4.901-13.73 7.157-20.12 8.426-3.019 0.6003-8.535 0.7722-11.34 0.3534zm1.313-5.148c-11.29-1.417-20.67-8.54-28.78-21.85-2.105-3.455-6.262-11.66-8.797-17.38-7.236-16.3-12.02-31.76-14.93-48.23-0.2653-1.503-0.5804-3.242-0.7002-3.863-0.2064-1.07-0.1905-1.129 0.307-1.129 0.4743 0 0.5532 0.1887 0.8198 1.961 1.515 10.07 5.346 24.87 9.185 35.48 3.763 10.4 9.443 23.06 13.71 30.54 11.36 19.94 25.85 27.37 42.61 21.84 2.98-0.9824 8.861-3.834 13.03-6.319 3.054-1.819 3.461-2 3.783-1.679 0.3222 0.3208 0.01827 0.5642-2.825 2.263-6.772 4.046-13.78 7.127-17.72 7.789-4.833 0.8125-6.819 0.9287-9.696 0.5674z" style="fill:#9a5454;stroke-width:.2382"/>
   <path d="m544 272.9c-11.46-1.71-20.62-7.792-28.67-19.05-2.741-3.833-4.858-7.435-7.742-13.17-7.814-15.55-13.6-31.15-17.42-46.97-1.12-4.64-3.356-16.09-3.356-17.18 0-0.3917 0.2055-0.5049 1.134-0.6248 0.6238-0.08052 1.371-0.1948 1.66-0.254 0.4508-0.09221 0.5467 0.02021 0.6703 0.7855 0.07933 0.4912 0.2946 1.642 0.4784 2.557 0.1838 0.9151 0.5609 3.054 0.838 4.754s0.5972 3.464 0.7113 3.922c0.1141 0.4576 0.4288 1.688 0.6993 2.734s0.7682 3.132 1.106 4.635 0.9236 3.696 1.302 4.873c0.378 1.177 0.8633 2.835 1.078 3.684 0.4266 1.686 2.827 8.937 3.777 11.41 0.5769 1.502 2.68 6.866 3.728 9.508 0.2852 0.719 0.7695 1.842 1.076 2.496 0.3067 0.6537 1.273 2.779 2.146 4.723 1.935 4.304 5.384 11 7.489 14.53 7.357 12.35 16.24 19.88 26.54 22.49 3.487 0.8842 8.226 1.114 11.83 0.5725 1.438-0.2159 2.884-0.4848 3.212-0.5975 0.3283-0.1127 1.242-0.3863 2.029-0.608s1.755-0.5355 2.149-0.6973 1.468-0.5924 2.388-0.957c0.9192-0.3645 2.531-1.099 3.581-1.633 1.051-0.5337 2.421-1.218 3.045-1.521s2.521-1.388 4.215-2.411l3.079-1.86 0.9647 1.506 0.9647 1.507-3.15 1.871c-10.7 6.359-17.95 8.911-26.07 9.185-2.159 0.07275-4.104-9e-4 -5.492-0.208zm1.313-5.148c-11.29-1.417-20.67-8.54-28.78-21.85-2.105-3.455-6.262-11.66-8.797-17.38-7.236-16.3-12.02-31.76-14.93-48.23-0.2653-1.503-0.5804-3.242-0.7002-3.863-0.2064-1.07-0.1905-1.129 0.307-1.129 0.4743 0 0.5532 0.1887 0.8198 1.961 1.515 10.07 5.346 24.87 9.185 35.48 3.763 10.4 9.443 23.06 13.71 30.54 11.36 19.94 25.85 27.37 42.61 21.84 2.98-0.9824 8.861-3.834 13.03-6.319 3.054-1.819 3.461-2 3.783-1.679 0.3222 0.3208 0.01827 0.5642-2.825 2.263-6.772 4.046-13.78 7.127-17.72 7.789-4.833 0.8125-6.819 0.9287-9.696 0.5674z" style="fill:#cd3127;stroke-width:.2382"/>
   <path d="m544 272.9c-11.46-1.71-20.62-7.792-28.67-19.05-2.741-3.833-4.858-7.435-7.742-13.17-9.63-19.16-16.08-38.1-19.7-57.83-0.5904-3.217-1.073-6.057-1.073-6.312 0-0.3287 0.2167-0.5064 0.7461-0.6118 1.387-0.2763 1.863-0.184 1.991 0.3863 0.3838 1.715 1.535 7.831 1.645 8.735 0.1857 1.536 0.5146 3.059 1.36 6.299 0.4094 1.569 0.9412 3.762 1.182 4.873 0.2405 1.111 0.8289 3.251 1.308 4.754s0.9738 3.161 1.1 3.684c0.4323 1.786 2.665 8.315 3.984 11.65 0.7242 1.83 1.558 4.023 1.853 4.873 0.4659 1.342 1.188 3.083 2.656 6.404 2.712 6.135 7.078 15.01 8.775 17.84 0.6663 1.111 1.374 2.313 1.572 2.672 0.5714 1.032 3.093 4.593 4.654 6.571 2.265 2.872 6.936 7.378 9.555 9.219 7.549 5.306 16.51 7.443 24.76 5.903 6.053-1.13 13.11-4.087 20.32-8.521 1.417-0.8708 2.652-1.581 2.746-1.579 0.09327 0.00235 0.5162 0.5321 0.9399 1.177l0.7703 1.173-3.158 1.876c-10.71 6.364-17.95 8.916-26.08 9.19-2.159 0.07275-4.104-9e-4 -5.492-0.208z" style="fill:#ae2e24;stroke-width:.2382"/>
   <path d="m544 272.9c-11.46-1.71-20.62-7.792-28.67-19.05-2.741-3.833-4.858-7.435-7.742-13.17-9.63-19.16-16.08-38.1-19.7-57.83-0.5904-3.217-1.073-6.058-1.073-6.314 0-0.3392 0.201-0.4954 0.7384-0.5739 0.418-0.06108 0.7713 0.00456 0.8142 0.1513 0.04165 0.1426 0.414 2.185 0.8273 4.538 0.9427 5.366 1.021 5.753 2.197 10.82 1.948 8.387 4.982 18.47 7.549 25.08 0.4062 1.046 1.176 3.078 1.711 4.516 0.5349 1.438 1.186 3.068 1.447 3.622 0.2609 0.5542 0.4743 1.058 0.4743 1.12s0.4835 1.142 1.074 2.402 1.074 2.34 1.074 2.401c0 0.3351 6.293 13.05 7.513 15.18 0.9865 1.722 2.246 3.791 2.749 4.516 2.605 3.755 5.691 7.683 7.186 9.144 2.366 2.313 4.31 3.98 6.01 5.156 1.083 0.7495 2.085 1.475 2.226 1.613 0.141 0.1376 0.8394 0.5165 1.552 0.842s1.349 0.6464 1.415 0.7131c0.5991 0.609 5.542 2.397 8.118 2.936 3.394 0.7108 4.295 0.7981 7.693 0.7454 4.786-0.07424 8.669-0.9309 13.92-3.072 2.779-1.132 8.229-3.881 10.83-5.463 1.128-0.6856 2.445-1.481 2.926-1.768l0.8744-0.5212 0.5025 0.7026 0.5025 0.7025-3.168 1.882c-10.72 6.37-17.96 8.922-26.09 9.196-2.159 0.07275-4.104-9e-4 -5.492-0.208z" style="fill:#871a1b;stroke-width:.2382"/>
   <path d="m544.3 272.9c-9.75-1.454-17.72-6.018-24.95-14.28-4.277-4.891-7.671-10.16-11.7-18.18-9.712-19.33-16.24-38.59-19.84-58.54-0.8863-4.91-1.026-6.293-0.5904-5.859 0.1322 0.1316 1.379 6.416 1.912 9.64 0.2198 1.329 0.6593 3.415 0.9767 4.635s0.853 3.449 1.19 4.952c1.053 4.695 4.863 16.86 6.923 22.11 0.6931 1.765 1.586 4.065 1.984 5.111 0.6661 1.75 2.531 6.095 4.235 9.864 1.765 3.906 6.412 12.98 7.91 15.45 8.226 13.56 17.68 21.27 29.28 23.88 0.8946 0.2015 1.924 0.3664 2.288 0.3664 0.3639 0 0.7247 0.0627 0.8016 0.1393 0.1331 0.1325 1.738 0.2586 4.357 0.3425 3.181 0.1019 9.683-1.312 13.73-2.985 0.8536-0.353 1.874-0.7638 2.268-0.9129 1.472-0.5572 6.319-3.116 9.558-5.046 3.352-1.998 3.785-2.188 4.041-1.775 0.3072 0.4948-9.827 6.097-14.43 7.979-6.967 2.846-14.17 3.97-19.94 3.111z" style="fill:#791415;stroke-width:.2382"/>
  </g>
  <circle cx="577.2" cy="243.5" r="10.6" style="fill:url(#SVGID_203_)"/>
  <polygon transform="translate(-749.9,-437.5)" points="1334 690.4 1320 690.4 1317 696.5 1338 696.5" style="fill:url(#SVGID_204_)"/>
  <rect x="564.6" y="257.8" width="25.2" height="4.2" style="fill:url(#SVGID_205_)"/>
  <rect x="566.7" y="262" width="20.5" height="2.3" style="fill:url(#SVGID_206_)"/>
  <rect x="555.9" y="422.4" width="42.5" height="3.2" style="fill:url(#SVGID_207_)"/>
  <rect x="549" y="425.5" width="56.4" height="6" style="fill:url(#SVGID_208_)"/>
  <rect x="481.6" y="165.9" width="11.1" height="130.6" style="fill:url(#SVGID_209_)"/>
  <circle cx="487.1" cy="151.9" r="8.6" style="fill:url(#SVGID_210_)"/>
  <polygon transform="translate(-749.9,-437.5)" points="1243 597 1231 597 1228 601.9 1246 601.9" style="fill:url(#SVGID_211_)"/>
  <rect x="476.9" y="163.4" width="20.4" height="3.4" style="fill:url(#SVGID_212_)"/>
  <rect x="478.6" y="166.8" width="16.6" height="1.8" style="fill:url(#SVGID_213_)"/>
  <rect x="470" y="296.5" width="34.3" height="2.6" style="fill:url(#SVGID_214_)"/>
  <rect x="464.3" y="299" width="45.6" height="4.9" style="fill:url(#SVGID_215_)"/>
  <rect x="420" y="103.7" width="9.6" height="113.4" style="fill:url(#SVGID_216_)"/>
  <circle cx="424.8" cy="91.5" r="7.5" style="fill:url(#SVGID_217_)"/>
  <polygon transform="translate(-749.9,-437.5)" points="1180 535.6 1170 535.6 1167 539.9 1182 539.9" style="fill:url(#SVGID_218_)"/>
  <rect x="416" y="101.6" width="17.7" height="2.9" style="fill:url(#SVGID_219_)"/>
  <rect x="417.5" y="104.5" width="14.4" height="1.6" style="fill:url(#SVGID_220_)"/>
  <rect x="409.9" y="217.2" width="29.8" height="2.3" style="fill:url(#SVGID_221_)"/>
  <rect x="405" y="219.3" width="39.6" height="4.2" style="fill:url(#SVGID_222_)"/>
  <polygon transform="translate(-749.9,-437.5)" points="1053 654.7 904.6 869 1100 869 1295 869 1147 654.7 1100 654.7" style="fill:url(#SVGID_223_)"/>
  <polygon transform="translate(-749.9,-437.5)" points="1059 654.7 1057 654.7 913.8 869 918.1 869" style="fill:url(#SVGID_224_)"/>
  <polygon transform="translate(-749.9,-437.5)" points="1142 654.7 1144 654.7 1288 869 1283 869" style="fill:url(#SVGID_225_)"/>
 </g>
</svg>
