<svg width="196.6mm" height="114.4mm" version="1.1" viewBox="0 0 196.6 114.4" xmlns="http://www.w3.org/2000/svg">
 <defs>
  <clipPath id="clipPath854">
   <text x="-237.38159" y="30.918245" style="fill:#000000;font-family:Allura;font-size:10.27px;letter-spacing:0px;line-height:1.25;stroke-width:.4279;word-spacing:0px" xml:space="preserve"><tspan x="-237.38159" y="30.918245" style="font-size:82.15px;stroke-width:.4279">Linda</tspan></text>
  </clipPath>
 </defs>
 <g transform="translate(238 56.66)">
  <path d="m-234.4 44.16 6.949-2.673 8.553-11.49 5.144-13.56 4.611-14.37c1.881-7.868 5.557-12.9 11.63-18.04l8.018 0.2673c3.839 4.097 2.042 10.62 1.203 14.57-3.336 5.127-6.494 11.24-11.23 15.77-13.68 7.688-23.89 10.57-35.55 15.9l0.4009-2.94 17.91 9.087 16.3 8.82c5.327 1.783 10.15 2.258 14.22 1.768 4.177-0.4981 5.452-1.905 8.528-4.333l-0.423-5.877-1.229-1.462-23.77 0.01482 7.122-11.04c3.766-5.564 8.411-11.45 12.55-16.27l-0.3238 2.415-7.411 17.85 2.231 2.233 5.88-1.336c5.669-5.003 10.86-13.11 15.85-19.03l1.54 0.1121-10.91 22.55 17.04-17.8c2.98-2.051 6.855-6.508 9.387-5.534l-6.729 15.93c-0.2807 4.251 0.4516 5.562 2.688 5.109 5.282 2.07 7.803-5.356 11.74-7.534l14-16.75 14.35 1.896-2.285 0.8308-8.139 0.4388-12.29 9.622-4.276 9.354c2.042 1.496 3.197 6.736 6.682 2.138l12.29-10.96 24.32-20.85 9.622-10.69-0.8018-5.613-9.122 3.917-10.66 15.06-10.16 26.46-0.8018 10.42 5.078 1.604 8.018-4.811 37.69 19.24 24.32-46.5s-22.18-12.29-23.79-11.23c-1.604 1.069-9.354 16.84-9.354 16.84l-4.544-4.009c-3.232-1.497-6.474-2.955-10.69-0.2673l-11.67 8.239c-5.898 7.93-4.03 7.601-4.905 10.74l4.544 2.673 9.211-6.147c1.249-3.863 5.906-7.698 10.83-11.23l1.336 0.2673c-2.439 5.569-6.226 10.73-4.655 15.08-0.08705 1.343-0.6882 3.013 1.871 2.673l9.466-5.195 13.63-13.1 13.63-67.08-89.27 17.11-34.48 27.53-3.475 17.11-8.82-4.009 3.474-1.871 4.811-5.88 1.604-17.91" clip-path="url(#clipPath854)" style="fill:none;stroke-width:4.762;stroke:#00ff66"/>
  <text x="-301.625" y="105.74404" style="fill:none;font-family:'Great Vibes';font-size:6.35px;letter-spacing:0px;line-height:1.25;stroke-width:.2646;stroke:#00ff00;word-spacing:0px" xml:space="preserve"><tspan x="-301.625" y="105.74404" style="fill:none;stroke-width:.2646;stroke:#00ff00">1</tspan></text>
 </g>
</svg>
