<?xml version="1.0" encoding="UTF-8" standalone="no"?>
<svg xmlns:dc="http://purl.org/dc/elements/1.1/" xmlns:cc="http://creativecommons.org/ns#" xmlns:rdf="http://www.w3.org/1999/02/22-rdf-syntax-ns#" xmlns:svg="http://www.w3.org/2000/svg" xmlns="http://www.w3.org/2000/svg" xmlns:sodipodi="http://sodipodi.sourceforge.net/DTD/sodipodi-0.dtd" xmlns:inkscape="http://www.inkscape.org/namespaces/inkscape" width="167.4mm" height="67.36mm" version="1.1" viewBox="0 0 167.4 67.36" id="svg15" sodipodi:docname="linda_animated2.svg" inkscape:version="0.92.2 (5c3e80d, 2017-08-06)">
  <metadata id="metadata19">
    <rdf:RDF>
      <cc:Work rdf:about="">
        <dc:format>image/svg+xml</dc:format>
        <dc:type rdf:resource="http://purl.org/dc/dcmitype/StillImage" />
        <dc:title></dc:title>
      </cc:Work>
    </rdf:RDF>
  </metadata>
  <sodipodi:namedview pagecolor="#ffffff" bordercolor="#666666" borderopacity="1" objecttolerance="10" gridtolerance="10" guidetolerance="10" inkscape:pageopacity="0" inkscape:pageshadow="2" inkscape:window-width="2560" inkscape:window-height="1001" id="namedview17" showgrid="false" inkscape:zoom="0.63063772" inkscape:cx="75.320582" inkscape:cy="127.29449" inkscape:window-x="-9" inkscape:window-y="41" inkscape:window-maximized="1" inkscape:current-layer="svg15" />
  <defs id="defs7">
    <clipPath clipPathUnits="userSpaceOnUse" id="clipPath4530">
      <path inkscape:connector-curvature="0" id="path4532" d="M -92.022258,-17.714316 C -98.86809,-17.714316 -106.04246,-9.006645 -113.54549,8.4091551 -114.85989,7.4233551 -116.25672,6.9306925 -117.73542,6.9306925 -119.21412,6.9306925 -120.72002,7.1219677 -122.25349,7.5053344 -123.78696,7.8887011 -125.86823,8.8471442 -128.49704,10.380611 -131.12584,11.914078 -133.67238,13.776168 -136.13688,15.966833 -138.17074,17.769567 -139.73468,19.631217 -140.8322,21.550989 -141.97484,22.847858 -143.28678,24.162792 -144.77925,25.496485 -147.29851,27.741919 -149.2702,29.275222 -150.69413,30.096722 -152.11806,30.863455 -153.2409,30.808657 -154.0624,29.932391 -154.50053,29.439491 -154.71921,28.453648 -154.71921,26.974948 -154.71921,25.441481 -154.19915,23.415 -153.15858,20.895733 -152.55615,19.417032 -151.6251,17.500663 -150.36547,15.145696 -149.10583,12.79073 -148.47618,10.956038 -148.47618,9.6416378 -148.47618,8.2724716 -149.10583,7.5875 -150.36547,7.5875 -151.67987,7.5875 -153.37756,8.3267525 -155.4587,9.8054519 -157.53983,11.448454 -160.08637,13.858519 -163.09854,17.034985 -166.11071,20.156685 -168.60297,22.92242 -170.57457,25.332155 -167.7267,17.774353 -166.00161,13.36572 -165.39918,12.106089 -164.79674,10.791686 -164.49536,9.9428394 -164.49536,9.559474 -164.49536,9.011805 -164.87842,8.6830195 -165.64516,8.5734862 -166.41189,8.4091863 -167.04206,8.3543885 -167.53496,8.4091551 -168.02786,8.4091551 -168.43833,8.628346 -168.76693,9.0664785 -169.04076,9.4498466 -169.23255,9.8055154 -169.34209,10.134115 -169.45162,10.462714 -169.56122,10.873697 -169.67075,11.366597 -169.72552,11.804731 -169.88991,12.352191 -170.16374,13.009392 -170.37705,13.649311 -171.049,15.557618 -172.14502,18.63799 -172.18532,18.67264 -172.22475,18.711687 -172.26336,18.759944 -173.85159,20.950612 -175.93287,23.196285 -178.5069,25.496485 -181.02617,27.796685 -182.99785,29.329988 -184.42179,30.096722 -185.84572,30.863455 -186.94116,30.808657 -187.70789,29.932391 -188.14602,29.439491 -188.36522,28.809833 -188.36522,28.0431 -188.36522,27.276366 -188.33782,26.646192 -188.28305,26.153292 -188.11875,24.455527 -186.47534,20.485274 -183.35364,14.241874 -183.0798,13.748974 -182.80633,13.228396 -182.5325,12.680729 -182.47773,12.516428 -182.39553,12.297756 -182.286,12.023922 -182.17647,11.750089 -182.01208,11.393904 -181.79301,10.95577 -181.51918,10.46287 -181.43698,9.9702079 -181.54651,9.4773077 -181.82035,8.6010405 -182.64179,8.1626587 -184.01096,8.1626587 H -184.58612 C -185.40762,8.3269586 -186.36606,9.9424584 -187.4614,13.009392 -187.68046,13.447526 -187.73526,13.803711 -187.62573,14.077544 -189.15919,16.377744 -191.26787,19.198277 -193.95144,22.539044 -194.17051,22.812877 -194.27959,23.059466 -194.27959,23.278533 -194.27959,23.442831 -194.25218,23.579311 -194.19742,23.688844 -193.92359,24.23651 -193.54052,24.23651 -193.04762,23.688844 -191.18555,21.552944 -190.11751,20.184035 -189.84368,19.5816 -191.59621,23.470033 -192.47246,26.372764 -192.47246,28.289596 -192.47246,28.837263 -192.41766,29.302527 -192.30813,29.685895 -191.59616,31.767028 -190.14506,32.807666 -187.95439,32.807666 -187.02336,32.807666 -185.87312,32.561077 -184.50395,32.068177 -182.14899,31.191911 -179.21886,28.864557 -175.71379,25.085659 -174.8873,24.19559 -174.16221,23.368634 -173.53253,22.60157 -174.15181,24.355078 -174.75793,26.050099 -175.33914,27.632273 -176.27017,30.315839 -176.79023,31.794344 -176.89977,32.068177 -177.0093,32.396776 -177.0641,32.643368 -177.0641,32.807666 -177.0641,32.971967 -176.81802,33.054163 -176.32512,33.054163 -175.83222,33.054163 -174.59979,32.561501 -172.62819,31.5757 -172.19006,31.301867 -170.32797,28.973997 -167.04197,24.592666 -163.7012,20.156563 -161.18206,17.14424 -159.48429,15.556007 -157.01979,13.420107 -155.34949,12.352585 -154.47323,12.352585 -154.03509,12.352585 -153.8159,12.571258 -153.8159,13.009392 -153.8159,13.392758 -154.19897,14.241607 -154.9657,15.556007 -155.67767,16.870407 -156.52652,18.705096 -157.51232,21.060063 -158.11475,22.538763 -158.52573,23.853391 -158.7448,25.003492 -158.96387,26.098825 -159.07346,27.249061 -159.07346,28.453926 -159.07346,29.658794 -158.68988,30.644637 -157.92315,31.41137 -157.15641,32.23287 -155.8423,32.670734 -153.98024,32.725503 -152.0634,32.725503 -150.11911,32.041047 -148.14752,30.671881 -146.21484,29.276058 -144.20278,27.456296 -142.11223,25.218466 -142.12501,25.392033 -142.13393,25.566576 -142.13393,25.742981 -142.13393,26.838314 -141.77774,27.878439 -141.06578,28.864239 -140.35381,29.795271 -139.50497,30.507643 -138.51916,31.000541 -137.4786,31.54821 -136.52015,31.821681 -135.64388,31.821681 -131.97452,31.821681 -125.75859,26.728591 -116.99593,16.541993 -117.98173,19.06126 -119.07717,22.237977 -120.28203,26.071644 -121.1583,28.864745 -121.59616,31.90395 -121.59616,35.189951 -121.59616,38.585484 -120.28205,40.502369 -117.65325,40.940503 -117.26989,40.995272 -116.50324,41.02267 -115.35313,41.02267 -114.14827,41.02267 -113.10763,40.721283 -112.23136,40.11885 -111.84799,39.735482 -111.43701,39.270218 -110.99888,38.722551 -110.77981,38.229651 -110.75241,37.928264 -110.91671,37.818732 -111.08101,37.709197 -111.355,37.736597 -111.73837,37.900896 -112.06697,38.119963 -112.36836,38.339154 -112.64219,38.558221 -112.86126,38.777288 -113.21692,39.023877 -113.70982,39.297711 -114.14796,39.62631 -114.69594,39.708508 -115.35313,39.544207 -116.01034,39.434675 -116.503,39.023692 -116.8316,38.311725 -117.4888,37.216392 -117.81758,35.737884 -117.81758,33.875818 -117.81758,32.013752 -117.3244,29.19322 -116.3386,25.414319 -115.3528,21.63542 -113.98389,17.719449 -112.23136,13.666715 -111.73846,13.228584 -109.1914,11.174702 -104.591,7.5053344 -99.990603,3.7812008 -96.458215,0.65979762 -93.993713,-1.8594692 -91.529215,-4.3787357 -89.721923,-6.6792067 -88.571824,-8.7603399 -87.366956,-10.89624 -86.764698,-12.648733 -86.764698,-14.0179 -86.764698,-14.5108 -86.95649,-15.08566 -87.339858,-15.74286 -88.161357,-17.05726 -89.722058,-17.714316 -92.022258,-17.714316 Z M -193.84188,-17.550501 C -194.88245,-17.550501 -196.41627,-17.139518 -198.44264,-16.318018 -200.469,-15.496518 -202.68676,-13.716627 -205.0965,-10.978292 -207.50623,-8.2399592 -210.35416,-1.6130519 -213.64016,8.9021485 -213.64016,8.9569146 -214.18814,10.791604 -215.28347,14.406207 -216.32404,17.966038 -217.28248,21.005246 -218.15875,23.524514 L -219.96587,24.017506 C -220.62307,24.236574 -220.95134,24.53796 -220.95134,24.921326 -220.95134,25.304694 -220.67787,25.469087 -220.1302,25.414319 -219.58254,25.304786 -219.14416,25.167793 -218.81556,25.003492 -219.36322,26.756026 -220.29427,29.165576 -221.60867,32.23251 L -225.96292,29.521562 C -227.00349,28.91913 -227.96193,28.453865 -228.8382,28.125266 -228.61913,28.015731 -228.01636,27.878738 -227.03056,27.714437 -225.98999,27.550139 -225.25074,27.330947 -224.81261,27.057114 -224.37447,26.728515 -224.31967,26.509323 -224.64827,26.399788 -224.92211,26.290256 -225.38789,26.372452 -226.04509,26.646285 -226.64752,26.865352 -227.55117,26.974948 -228.75603,26.974948 L -234.26009,26.481955 H -234.42442 C -235.84836,26.86532 -236.56021,27.63249 -236.56021,28.782589 -236.56021,29.604089 -236.09443,30.178949 -235.1634,30.507548 -234.94433,30.562317 -234.47906,30.589714 -233.7671,30.589714 -233.05513,30.589714 -231.7679,30.206129 -229.90583,29.439396 -227.8247,30.151363 -225.25076,31.520791 -222.18383,33.547156 -224.42926,38.476158 -226.45574,41.022701 -228.26304,41.187 -228.42734,41.187 -228.59173,41.269198 -228.75603,41.433499 -228.86557,41.597797 -228.86557,41.762191 -228.75603,41.926492 -228.6465,42.145559 -228.31771,42.255152 -227.77005,42.255152 -225.57938,42.255152 -223.06024,39.790291 -220.21237,34.861288 -216.26917,37.81869 -213.47604,39.84517 -211.83304,40.940503 -211.01154,41.488172 -209.61471,42.391817 -207.64311,43.651451 -205.61674,44.96585 -203.94645,45.869495 -202.63205,46.362395 -201.26288,46.910062 -199.42819,47.594518 -197.12799,48.416017 -194.77302,49.237517 -192.06209,49.648499 -188.99515,49.648499 -184.44952,49.648499 -181.08153,48.717457 -178.89086,46.855388 -177.02879,45.267155 -176.07035,43.432466 -176.01558,41.351332 V 40.365347 C -176.01558,38.448512 -176.42605,36.586422 -177.24755,34.779124 -177.57615,34.121923 -178.01453,33.821052 -178.5622,33.875818 -179.10986,33.985353 -179.16466,34.505413 -178.72653,35.436447 -178.23363,36.367482 -177.98704,37.43552 -177.98704,38.640385 -177.98704,39.845253 -178.67149,40.995489 -180.04066,42.090822 -182.66946,44.28149 -185.98317,45.37641 -189.98114,45.37641 -193.65051,45.37641 -197.51168,44.691954 -201.56441,43.322788 -205.06948,42.172689 -211.01141,38.914292 -219.39071,33.547156 -217.91201,31.027891 -216.35131,27.823773 -214.70831,23.93534 -209.99838,22.292341 -205.45275,19.937589 -201.07142,16.870655 -196.69008,13.748955 -192.96591,9.9425801 -189.89897,5.4517129 -186.77727,0.96084611 -185.21657,-3.5573825 -185.21657,-8.1030159 -185.21657,-10.512749 -185.79143,-12.511832 -186.94153,-14.100066 -188.6393,-16.400266 -190.93925,-17.550501 -193.84188,-17.550501 Z M -193.26724,-15.907191 C -190.14554,-15.907191 -188.58433,-13.825911 -188.58433,-9.6636438 -188.58433,-8.6778441 -188.69392,-7.6103218 -188.91299,-6.4602219 -190.06309,-0.3263553 -192.93842,5.1777156 -197.53882,10.051948 -202.08445,14.926182 -207.50633,18.787355 -213.80449,21.635222 -212.98299,19.71839 -211.66888,16.240799 -209.86158,11.202267 -209.25915,8.6829996 -208.40978,5.889866 -207.31445,2.8229326 -206.87632,1.5632992 -206.16446,-0.38098647 -205.17866,-3.0097866 -204.19286,-5.6933533 -202.60476,-8.5686839 -200.4141,-11.635617 -198.44249,-14.483484 -196.06034,-15.907191 -193.26724,-15.907191 Z M -90.297299,-15.660694 C -89.475799,-15.660694 -89.064817,-15.19543 -89.064817,-14.264397 -89.064817,-13.38813 -89.421001,-12.292692 -90.132969,-10.978292 -91.885503,-7.6922926 -94.706035,-4.1325076 -98.594468,-0.29884075 -102.4829,3.5348258 -106.20708,6.6019482 -109.76691,8.9021485 -104.89268,-1.8868851 -99.443403,-9.5818312 -93.419073,-14.182231 -92.104673,-15.168031 -91.064032,-15.660694 -90.297299,-15.660694 Z M -177.84958,-3.0919521 C -178.06865,-3.0919521 -178.61662,-2.7083679 -179.49289,-1.9416345 L -180.88919,-0.87399943 C -183.24415,0.9333006 -184.42179,1.9465418 -184.42179,2.1656084 -184.42179,3.3157085 -183.24415,3.8910847 -180.88919,3.8910847 -180.50582,3.8910844 -179.95836,3.3431072 -179.24639,2.2477739 -178.53443,1.1524407 -178.17824,0.35839036 -178.17824,-0.13450962 L -177.52143,-2.7632899 C -177.52143,-2.9823567 -177.63051,-3.0919521 -177.84958,-3.0919521 Z M -87.011195,6.9306925 C -88.43513,6.9306925 -89.913634,7.1219677 -91.447099,7.5053344 -92.980566,7.8887011 -95.061847,8.8471442 -97.690646,10.380611 -100.31945,11.914078 -102.86599,13.776168 -105.33049,15.966833 -107.74022,18.102735 -109.49272,20.321007 -110.58805,22.621208 -111.08095,23.607008 -111.32754,24.647649 -111.32754,25.742981 -111.32754,26.838314 -110.97136,27.878439 -110.25939,28.864239 -109.54742,29.795271 -108.69857,30.507643 -107.71277,31.000541 -106.67221,31.54821 -105.71376,31.821681 -104.8375,31.821681 -102.92066,31.821681 -100.7851,30.863238 -98.430136,28.946403 -96.020403,27.029571 -93.911724,25.031004 -92.104424,22.94987 -90.297124,20.868737 -89.283884,19.773299 -89.064817,19.663766 -90.105383,22.402098 -90.625962,25.003442 -90.625962,27.467941 -90.625962,28.28944 -90.543766,29.028694 -90.379465,29.685895 -89.667498,31.767028 -88.270672,32.807666 -86.189539,32.807666 -83.998874,32.807666 -81.616721,31.849224 -79.042688,29.932391 -77.673522,28.946591 -75.701839,27.084501 -73.127803,24.346167 -70.499003,21.553069 -69.184376,19.745777 -69.184376,18.924277 -69.184376,18.814742 -69.321369,18.705147 -69.595203,18.595614 -69.869036,18.431313 -70.115625,18.486111 -70.334692,18.759944 -71.868159,20.950612 -73.92204,23.196285 -76.496073,25.496485 -79.015341,27.796685 -80.987026,29.329988 -82.410958,30.096722 -83.834893,30.863455 -84.957213,30.808657 -85.778713,29.932391 -86.216844,29.439491 -86.436036,28.809833 -86.436036,28.0431 -86.436036,27.276366 -86.408638,26.646192 -86.353869,26.153292 -85.860972,22.155327 -84.218073,18.185074 -81.424973,14.241874 -81.096373,13.694208 -81.39776,13.228427 -82.328792,12.845059 -83.259826,12.461694 -84.053878,12.270419 -84.711077,12.270419 -85.094445,12.270419 -87.805381,14.981356 -92.843914,20.403256 -94.267848,21.936723 -96.923987,24.346272 -100.81242,27.632273 -103.16739,29.494339 -104.91988,30.425384 -106.06998,30.425384 -107.22008,30.425384 -107.79494,29.412141 -107.79494,27.385777 -107.79494,26.34521 -107.08308,24.702312 -105.65915,22.456878 -104.18045,20.156677 -102.48276,18.102796 -100.56592,16.295496 -98.265724,14.269129 -95.828776,12.598833 -93.254743,11.284433 -90.62594,9.9152646 -88.298073,9.2308113 -86.271706,9.2308113 -84.190572,9.2308113 -82.821663,9.7508736 -82.164462,10.79144 -81.945395,10.900972 -81.808402,10.92837 -81.753635,10.873604 -81.698867,10.818838 -81.671469,10.654444 -81.671469,10.380611 -81.671469,9.5591116 -82.191531,8.7924602 -83.232098,8.0804931 -84.272665,7.3137597 -85.532494,6.9306925 -87.011195,6.9306925 Z M -117.65325,9.2308113 C -116.01025,9.2308113 -114.86002,9.3946862 -114.20282,9.7232882 L -115.35313,12.516399 C -120.11783,17.609697 -125.53971,22.648505 -131.61881,27.632273 -133.97377,29.494339 -135.72627,30.425384 -136.87637,30.425384 -138.02647,30.425384 -138.60133,29.412141 -138.60133,27.385777 -138.60133,26.34521 -137.88948,24.702312 -136.46554,22.456878 -134.98684,20.156677 -133.28915,18.102796 -131.37231,16.295496 -129.07211,14.269129 -126.63465,12.598833 -124.06061,11.284433 -121.43181,9.9152646 -119.29625,9.2308113 -117.65325,9.2308113 Z" style="fill:#000000;stroke-width:0.42789999" />
    </clipPath>
  </defs>
  <g transform="translate(236.6,17.72)" id="g11" clip-path="none">
    <path d="M -234.4,44.16 -227.451,41.487 -218.898,29.997 -213.754,16.437 -209.143,2.067 C -207.262,-5.801 -203.586,-10.833 -197.513,-15.973 L -189.495,-15.7057 C -185.656,-11.6087 -187.453,-5.0857 -188.292,-1.1357 -191.628,3.9913 -194.786,10.1043 -199.522,14.6343 -213.202,22.3223 -223.412,25.2043 -235.072,30.5343 L -234.6711,27.5943 -216.7611,36.6813 -200.4611,45.5013 C -195.1341,47.2843 -190.3111,47.7593 -186.2411,47.2693 -182.0641,46.7712 -180.7891,45.3643 -177.7131,42.9363 L -178.1361,37.0593 -179.3651,35.5973 -203.1351,35.61212 -197.6731,26.32212 C -193.9071,20.75812 -189.2621,14.87212 -185.1231,10.05212 L -182.9851,10.58662 C -185.8691,16.66962 -189.8991,23.43662 -191.1981,28.57662 L -188.9671,30.80962 -183.0871,29.47362 C -177.4181,24.47062 -172.2271,16.36362 -167.2371,10.44362 L -165.6971,10.55572 -176.6071,33.10572 -159.5671,15.30572 C -156.5871,13.25472 -152.7121,8.79772 -150.1801,9.77172 L -156.9091,25.70172 C -157.1898,29.95272 -156.4575,31.26372 -154.2211,30.81072 -148.9391,32.88072 -146.4181,25.45472 -142.4811,23.27672 L -128.4811,6.52672 -114.1311,8.42272 -116.4161,9.25352 -124.5551,9.69232 -136.8451,19.31432 -141.1211,28.66832 C -139.0791,30.16432 -137.9241,35.40432 -134.4391,30.80632 L -122.1491,19.84632 -97.8291,-1.00368 -88.2071,-11.69368 -89.0089,-17.30668 -98.1309,-13.38968 -108.7909,1.67032 -118.9509,28.13032 -119.7527,38.55032 -114.6747,40.15432 -106.6567,35.34332 -68.9667,54.58332 -44.6467,8.08332 C -44.6467,8.08332 -66.8267,-4.20668 -68.4367,-3.14668 -70.0407,-2.07768 -77.7907,13.69332 -77.7907,13.69332 L -82.3347,9.68432 C -85.5667,8.18732 -88.8087,6.72932 -93.0247,9.41702 L -104.6947,17.65602 C -110.5927,25.58602 -108.7247,25.25702 -109.5997,28.39602 L -105.0557,31.06902 -95.8447,24.92202 C -94.5957,21.05902 -89.9387,17.22402 -85.0147,13.69202 L -83.6787,13.95932 C -86.1177,19.52832 -89.9047,24.68932 -88.3337,29.03932 -88.42075,30.38232 -89.0219,32.05232 -86.4627,31.71232 L -76.9967,26.51732 -63.3667,13.41732 -76.9467,-36.66268 -138.9967,-36.56636 -173.4767,-9.03636 -176.9517,8.07364 -185.7717,4.06464 -182.2977,2.19364 -177.4867,-3.68636 -175.8827,-21.59636" clip-path="url(#clipPath4530)" style="fill:none;stroke:#410071;stroke-width:4.76200008;stroke-dasharray:1157, 1159;stroke-dashoffset:1158" class="CyJBCRjD_0" id="path9" inkscape:connector-curvature="0" />
  </g>
  <style id="style13">.CyJBCRjD_0{stroke-dasharray:1157 1159;stroke-dashoffset:1158;animation:CyJBCRjD_draw_0 7900ms linear 0ms infinite,CyJBCRjD_fade 7900ms linear 0ms infinite;}@keyframes CyJBCRjD_draw{100%{stroke-dashoffset:0;}}@keyframes CyJBCRjD_fade{0%{stroke-opacity:1;}94.9367088607595%{stroke-opacity:1;}100%{stroke-opacity:0;}}@keyframes CyJBCRjD_draw_0{10.126582278481013%{stroke-dashoffset: 1158}41.35021097046414%{ stroke-dashoffset: 0;}100%{ stroke-dashoffset: 0;}}</style>
</svg>
