<?xml version="1.0" encoding="UTF-8" standalone="no"?>
<svg
   xmlns:dc="http://purl.org/dc/elements/1.1/"
   xmlns:cc="http://creativecommons.org/ns#"
   xmlns:rdf="http://www.w3.org/1999/02/22-rdf-syntax-ns#"
   xmlns:svg="http://www.w3.org/2000/svg"
   xmlns="http://www.w3.org/2000/svg"
   xmlns:xlink="http://www.w3.org/1999/xlink"
   xmlns:sodipodi="http://sodipodi.sourceforge.net/DTD/sodipodi-0.dtd"
   xmlns:inkscape="http://www.inkscape.org/namespaces/inkscape"
   width="595"
   height="159"
   version="1.1"
   viewBox="0 0 594.9671 159.0157"
   id="svg128"
   sodipodi:docname="current_working_logo-no_anim.svg">
  <metadata
     id="metadata132">
    <rdf:RDF>
      <cc:Work
         rdf:about="">
        <dc:format>image/svg+xml</dc:format>
        <dc:type
           rdf:resource="http://purl.org/dc/dcmitype/StillImage" />
      </cc:Work>
    </rdf:RDF>
  </metadata>
  <sodipodi:namedview
     pagecolor="#ffffff"
     bordercolor="#666666"
     borderopacity="1"
     objecttolerance="10"
     gridtolerance="10"
     guidetolerance="10"
     inkscape:pageopacity="0"
     inkscape:pageshadow="2"
     inkscape:window-width="640"
     inkscape:window-height="480"
     id="namedview130"
     showgrid="false" />
  <defs
     id="defs50">
    <linearGradient
       id="linearGradientSlvr"
       x1="-1869"
       x2="-1869"
       y1="794.4"
       y2="828"
       gradientTransform="matrix(1.301,0,0,1.301,1365,-35.3)"
       gradientUnits="userSpaceOnUse">
      <stop
         style="stop-color:#696969"
         offset="0"
         id="stop2" />
      <stop
         style="stop-color:#c7c7c9"
         offset=".17"
         id="stop4" />
      <stop
         style="stop-color:#f9f9ff"
         offset=".36"
         id="stop6" />
      <stop
         style="stop-color:#ccccce"
         offset=".73"
         id="stop8" />
      <stop
         style="stop-color:#696969"
         offset="1"
         id="stop10" />
    </linearGradient>
    <linearGradient
       id="linearGradient5862"
       x1="-794.1"
       x2="-794.1"
       y1="896"
       y2="998.9"
       gradientTransform="matrix(1.001 0 0 1 1.395 .0333)"
       gradientUnits="userSpaceOnUse"
       xlink:href="#linearGradientSlvr" />
    <linearGradient
       id="linearGradient5990"
       x1="-1869"
       x2="-1869"
       y1="794.4"
       y2="828"
       gradientTransform="matrix(1.301 0 0 1.301 1365 -35.3)"
       gradientUnits="userSpaceOnUse"
       xlink:href="#linearGradientSlvr" />
    <linearGradient
       id="linearGradient7728"
       x1="-1405"
       x2="-1405"
       y1="704.4"
       y2="781.4"
       gradientTransform="scale(.7835 1.276)"
       gradientUnits="userSpaceOnUse">
      <stop
         style="stop-color:#1c072d"
         offset="0"
         id="stop15" />
      <stop
         style="stop-color:#5700aa"
         offset=".29"
         id="stop17" />
      <stop
         style="stop-color:#4b127b"
         offset=".64"
         id="stop19" />
      <stop
         style="stop-color:#290a43"
         offset="1"
         id="stop21" />
    </linearGradient>
    <linearGradient
       id="linearGradient7732"
       x1="-1040"
       x2="-1040"
       y1="884.3"
       y2="1076"
       gradientTransform="matrix(.5122 0 0 .5116 -456 447.2)"
       gradientUnits="userSpaceOnUse">
      <stop
         style="stop-color:#141414"
         offset="0"
         id="stop24" />
      <stop
         style="stop-color:#0a0a0a"
         offset=".15"
         id="stop26" />
      <stop
         style="stop-color:#6d6d6d"
         offset=".3"
         id="stop28" />
      <stop
         style="stop-color:#000000"
         offset=".44"
         id="stop30" />
      <stop
         style="stop-color:#141414"
         offset=".62"
         id="stop32" />
      <stop
         style="stop-color:#262626"
         offset=".75"
         id="stop34" />
      <stop
         style="stop-color:#040404"
         offset="1"
         id="stop36" />
    </linearGradient>
    <linearGradient
       id="linearGradient10368"
       x1="-1869"
       x2="-1869"
       y1="794.4"
       y2="828"
       gradientTransform="matrix(1.301 0 0 1.301 1365 -35.33)"
       gradientUnits="userSpaceOnUse"
       xlink:href="#linearGradientSlvr" />
    <linearGradient
       id="linearGradient10370"
       x1="-1869"
       x2="-1869"
       y1="794.4"
       y2="828"
       gradientTransform="matrix(1.301,0,0,1.301,1365,-36.28)"
       gradientUnits="userSpaceOnUse"
       xlink:href="#linearGradientSlvr" />
    <linearGradient
       id="linearGradient10372"
       x1="-1869"
       x2="-1869"
       y1="794.4"
       y2="828"
       gradientTransform="matrix(1.301 0 0 1.301 1365 -35.02)"
       gradientUnits="userSpaceOnUse"
       xlink:href="#linearGradientSlvr" />
    <linearGradient
       id="linearGradient10374"
       x1="-1869"
       x2="-1869"
       y1="794.4"
       y2="828"
       gradientTransform="matrix(1.301 0 0 1.301 1365 -35.66)"
       gradientUnits="userSpaceOnUse"
       xlink:href="#linearGradientSlvr" />
    <linearGradient
       id="linearGradient10376"
       x1="-1869"
       x2="-1869"
       y1="794.4"
       y2="828"
       gradientTransform="matrix(1.301 0 0 1.301 1365 -35.32)"
       gradientUnits="userSpaceOnUse"
       xlink:href="#linearGradientSlvr" />
    <linearGradient
       id="linearGradient10380"
       x1="-1869"
       x2="-1869"
       y1="794.4"
       y2="828"
       gradientTransform="matrix(1.301 0 0 1.301 1365 -35.34)"
       gradientUnits="userSpaceOnUse"
       xlink:href="#linearGradientSlvr" />
    <linearGradient
       id="linearGradient10382"
       x1="-1869"
       x2="-1869"
       y1="794.4"
       y2="828"
       gradientTransform="matrix(1.301 0 0 1.301 1365 -36.32)"
       gradientUnits="userSpaceOnUse"
       xlink:href="#linearGradientSlvr" />
    <linearGradient
       id="linearGradient10384"
       x1="-1869"
       x2="-1869"
       y1="794.4"
       y2="828"
       gradientTransform="matrix(1.301 0 0 1.301 1365 -35.25)"
       gradientUnits="userSpaceOnUse"
       xlink:href="#linearGradientSlvr" />
    <linearGradient
       id="linearGradient10386"
       x1="-1869"
       x2="-1869"
       y1="794.4"
       y2="828"
       gradientTransform="matrix(1.301 0 0 1.301 1365 -36.34)"
       gradientUnits="userSpaceOnUse"
       xlink:href="#linearGradientSlvr" />
    <linearGradient
       id="linearGradient10388"
       x1="-1869"
       x2="-1869"
       y1="794.4"
       y2="828"
       gradientTransform="matrix(1.301 0 0 1.301 1365 -35.32)"
       gradientUnits="userSpaceOnUse"
       xlink:href="#linearGradientSlvr" />
    <linearGradient
       id="linearGradient10392"
       x1="-1869"
       x2="-1869"
       y1="794.4"
       y2="828"
       gradientTransform="matrix(1.301 0 0 1.301 1365 -35.3)"
       gradientUnits="userSpaceOnUse"
       xlink:href="#linearGradientSlvr" />
    <linearGradient
       inkscape:collect="always"
       xlink:href="#linearGradient7728"
       id="linearGradient4617"
       x1="-1120.7445"
       y1="898.237"
       x2="-1120.7445"
       y2="998.77496"
       gradientUnits="userSpaceOnUse" />
    <linearGradient
       inkscape:collect="always"
       xlink:href="#linearGradient7728"
       id="linearGradient4625"
       x1="-1120.7445"
       y1="898.237"
       x2="-1120.7445"
       y2="998.77496"
       gradientUnits="userSpaceOnUse" />
    <linearGradient
       inkscape:collect="always"
       xlink:href="#linearGradientSlvr"
       id="linearGradient4635"
       x1="-1122.4102"
       y1="896.06189"
       x2="-1122.4102"
       y2="1000.8663"
       gradientUnits="userSpaceOnUse" />
    <linearGradient
       inkscape:collect="always"
       xlink:href="#linearGradientSlvr"
       id="linearGradient4645"
       gradientUnits="userSpaceOnUse"
       x1="-1122.4102"
       y1="896.06189"
       x2="-1122.4102"
       y2="1000.8663" />
    <linearGradient
       inkscape:collect="always"
       xlink:href="#linearGradientSlvr"
       id="linearGradient4660"
       gradientUnits="userSpaceOnUse"
       gradientTransform="matrix(1.001 0 0 1 1.395 .0333)"
       x1="-786.83679"
       y1="896"
       x2="-786.83679"
       y2="999.94934" />
    <linearGradient
       inkscape:collect="always"
       xlink:href="#linearGradientSlvr"
       id="linearGradient4662"
       gradientUnits="userSpaceOnUse"
       gradientTransform="matrix(1.001 0 0 1 1.395 .0333)"
       x1="-786.83679"
       y1="896"
       x2="-786.83679"
       y2="999.94934" />
  </defs>
  <rect
     style="opacity:1;fill:#000000;fill-opacity:1;stroke:#000000;stroke-width:7.2807188;stroke-linecap:round;stroke-linejoin:round;stroke-miterlimit:4;stroke-dasharray:none;stroke-dashoffset:0;stroke-opacity:1"
     id="rect4664"
     width="777.00647"
     height="436.97293"
     x="-71.631836"
     y="-148.20761" />
  <g
     id="trans"
     transform="matrix(1.017,0,0,1.008,1192,-895.3)">
    <g
       id="1T">
      <path
         id="p1T"
         d="M -1172,997.5 V 1005.652 H -1159.49 V 1044.292 H -1149.923 V 1005.652 H -1137.353 V 997.5 Z"
         style="fill:#290a43"
         inkscape:connector-curvature="0" />
      <path
         id="s1T"
         d="M -1170,1004 V 999.752 H -1139.26 V 1004 H -1151.83 V 1042.64 H -1157.494 V 1004 Z"
         style="fill:url(#linearGradient10374)"
         inkscape:connector-curvature="0" />
    </g>
    <g
       id="1R"
       transform="translate(1.082)">
      <path
         id="p1R"
         d="M -1116,997.1 C -1120.313,997.074 -1124.64,997.7462 -1128.47,998.495 L -1130.046,998.8036 V 1044.7236 H -1120.536 V 1024.1736 C -1119.346,1024.4377 -1118.316,1024.9563 -1117.081,1025.2026 -1116.1377,1025.3904 -1115.116,1025.3162 -1114.196,1025.2373 -1111.753,1026.5143 -1110.599,1030.1483 -1109.895,1032.3763 -1109.3611,1034.0923 -1108.881,1035.8893 -1108.459,1037.7693 V 1037.7888 C -1107.7385,1040.3438 -1106.979,1042.4518 -1105.92,1044.7228 H -1095.75 L -1096.994,1041.9668 C -1098.707,1038.3428 -1099.374,1034.6378 -1100.556,1030.9468 V 1030.9368 C -1101.1015,1029.0928 -1101.799,1027.3928 -1102.658,1025.8448 -1103.2394,1024.7488 -1104.058,1023.8068 -1104.974,1022.9388 -1101.025,1020.3798 -1098.515,1016.0918 -1098.466,1011.7888 -1098.7325,1007.6128 -1100.46,1003.8318 -1103.396,1001.3488 -1107.084,998.3378 -1111.68,997.1208 -1115.996,997.0968 Z M -1116,1005.311 H -1115.9844 C -1113.8304,1005.2925 -1112.1444,1006.1495 -1110.4844,1007.254 -1109.0614,1008.491 -1108.5824,1009.955 -1108.3184,1011.678 -1108.3184,1013.608 -1109.2249,1015.069 -1110.3474,1016.341 -1111.7114,1017.541 -1113.1464,1018.71 -1114.8654,1018.973 -1116.4544,1019.022 -1117.8024,1019.8009 -1119.0134,1020.777 -1119.6283,1021.273 -1120.5214,1022.977 -1120.5214,1022.254 V 1005.584 C -1119.0134,1005.2867 -1117.3234,1005.3168 -1116.0004,1005.3047 Z"
         style="fill:#290a43"
         inkscape:connector-curvature="0" />
      <path
         id="s1R"
         d="M -1102,1018 C -1103.298,1019.77 -1104.97,1021.166 -1107.015,1022.189 L -1108.431,1022.6609 -1107.251,1023.1329 C -1105.796,1024.1162 -1104.694,1025.3159 -1103.947,1026.7319 -1103.1603,1028.1479 -1102.511,1029.7209 -1102,1031.4519 -1101.4493,1033.1429 -1100.938,1034.9529 -1100.466,1036.8799 -1099.9547,1038.7679 -1099.247,1040.7149 -1098.342,1042.7209 H -1104.242 C -1105.0287,1041.0299 -1105.658,1039.2199 -1106.13,1037.2929 -1107.0132,1033.6619 -1107.802,1029.9779 -1109.729,1027.0229 -1110.555,1025.6459 -1111.735,1024.6629 -1113.269,1024.0729 -1113.387,1024.1123 -1113.564,1024.132 -1113.8,1024.132 -1114.6653,1024.2107 -1115.59,1024.2303 -1116.573,1024.1909 -1117.5563,1024.1122 -1118.599,1023.9352 -1119.7,1023.6598 -1119.2673,1022.6368 -1118.618,1021.7918 -1117.753,1021.1228 -1116.8483,1020.4541 -1115.767,1020.0998 -1114.508,1020.0608 -1112.188,1019.9284 -1110.276,1019.0188 -1108.726,1017.6418 -1106.848,1015.9928 -1105.971,1013.8248 -1105.953,1011.6238 -1105.9315,1009.3078 -1107.149,1007.1578 -1108.785,1005.7238 -1110.872,1003.9528 -1113.228,1003.3198 -1115.57,1003.3048 -1117.803,1003.2496 -1120.146,1003.4672 -1122.06,1003.8357 V 1042.7157 H -1127.665 V 1000.3557 C -1125.462,999.9231 -1123.437,999.5889 -1121.588,999.3527 -1119.739,999.1167 -1117.733,998.9988 -1115.57,998.9988 -1113.21,998.9988 -1111.066,999.3331 -1109.139,1000.0018 -1105.512,1001.3338 -1102.726,1003.4678 -1101.115,1006.7868 -1099.377,1010.4618 -1099.604,1014.6798 -1102,1017.9968 Z"
         style="fill:url(#linearGradient10368)"
         inkscape:connector-curvature="0" />
    </g>
    <g
       id="1A"
       transform="translate(3.6)">
      <path
         id="p1A"
         d="M -1074,997.5 -1090.87,1044.3 H -1081.095 L -1077.558,1033.43 H -1062.658 L -1059.103,1044.3 H -1048.913 L -1065.773,997.5 Z M -1070.1,1012.53 -1063.615,1030.91 C -1064.0047,1030.3929 -1064.615,1029.111 -1065.397,1028.163 -1066.48,1026.849 -1066.891,1026.471 -1068.38,1026.379 H -1075.051 Z"
         style="fill:#290a43"
         inkscape:connector-curvature="0" />
      <path
         id="s1A"
         d="M -1067,999.4 -1051.54,1042.29 H -1057.558 L -1069.538,1007.72 -1069.951,1006.009 -1070.364,1007.72 C -1073.012,1015.021 -1075.031,1020.42 -1077.621,1027.9 -1074.433,1027.7378 -1071.831,1027.782 -1068.948,1027.782 -1067.532,1027.782 -1066.45,1028.2147 -1065.703,1029.08 -1064.9557,1029.906 -1064.366,1030.889 -1063.933,1032.03 H -1078.803 L -1082.343,1042.3 H -1087.948 L -1072.488,999.41 Z"
         style="fill:url(#linearGradient10388)"
         inkscape:connector-curvature="0" />
    </g>
    <g
       id="1N"
       transform="translate(1.937)">
      <path
         id="p1N"
         d="M -1040,997.5 V 1044.3 H -1031.317 V 1013.73 L -1012.167,1044.3 H -1004.12 V 997.5 H -1012.981 V 1026.87 L -1031.361,997.5 Z"
         style="fill:#290a43"
         inkscape:connector-curvature="0" />
      <path
         id="s1N"
         d="M -1033,1008 -1033.826,1005.994 -1033.7079,1008 V 1042.28 H -1038.4869 V 999.39 H -1032.8819 L -1012.0519,1032.66 -1011.3439,1034.607 -1011.4619,1032.542 V 999.382 H -1006.5059 V 1042.272 H -1011.5209 Z"
         style="fill:url(#linearGradient10392)"
         inkscape:connector-curvature="0" />
    </g>
    <g
       id="S"
       transform="translate(-0.4421)">
      <path
         id="pS"
         d="M -988.6,1000 C -991.11,1002.465 -992.444,1005.653 -992.538,1008.983 -992.3725,1013.734 -990.061,1017.349 -986.766,1019.843 -983.471,1022.337 -980.073,1023.656 -976.92,1025.577 -974.541,1026.981 -973.257,1028.635 -972.708,1031.175 -972.708,1032.728 -973.1909,1033.827 -974.373,1034.922 -977.522,1036.942 -980.693,1036.612 -983.94,1035.987 -986.556,1035.4161 -988.345,1034.626 -990.694,1033.583 L -993.658,1040.995 C -990.92,1042.398 -987.789,1043.451 -985.153,1044.009 -983.012,1044.389 -980.947,1044.5648 -978.897,1044.6318 -974.553,1044.5276 -970.352,1043.3738 -967.277,1040.6588 -964.591,1038.1048 -962.99,1034.7448 -962.961,1031.2948 -963.1193,1026.4688 -965.447,1022.7528 -968.919,1020.0648 -972.103,1017.6988 -975.529,1016.1448 -978.71,1014.2238 -980.07,1013.4008 -981.152,1012.5288 -981.986,1011.6308 -983.108,1010.1208 -983.02,1008.8948 -982.6724,1007.2718 -981.6214,1005.3098 -980.0384,1004.7878 -978.0684,1004.5698 -975.3314,1004.6578 -972.6724,1005.0487 -970.1364,1005.7848 L -968.4464,1006.2958 -965.3554,998.8588 -967.3944,998.2182 C -971.1514,997.0462 -975.0104,996.3712 -978.7144,996.4112 -982.4184,996.4512 -985.9894,997.6292 -988.5944,1000.0032 Z"
         style="fill:#290a43"
         inkscape:connector-curvature="0" />
      <path
         id="sS"
         d="M -978.1,1003 C -979.201,1003 -980.071,1003.2097 -981.05,1003.531 -982.916,1004.539 -983.839,1005.194 -984.531,1006.953 -985.2605,1009.157 -985.0612,1011.624 -983.469,1013.325 -980.882,1015.972 -977.936,1017.289 -974.973,1018.989 -973.242,1019.8543 -971.63,1020.857 -970.135,1021.998 -966.929,1024.487 -964.78,1027.538 -964.943,1031.674 -965.0788,1035.149 -966.454,1037.681 -968.601,1039.58 -969.781,1040.642 -971.236,1041.488 -972.967,1042.117 -974.698,1042.746 -976.684,1043.061 -978.926,1043.061 -983.438,1042.9232 -987.397,1042.2175 -991.196,1040.406 L -989.662,1036.571 C -987.892,1037.3577 -986.122,1037.928 -984.352,1038.282 -980.607,1038.995 -975.976,1039.354 -973.082,1036.748 -971.548,1035.332 -970.781,1033.601 -970.781,1031.556 -970.781,1029.865 -971.2727,1028.468 -972.256,1027.367 -973.2393,1026.226 -974.459,1025.204 -975.914,1024.299 -979.312,1022.12 -982.468,1021.145 -985.472,1018.812 -988.91,1016.162 -990.574,1013.432 -990.605,1009.372 -990.59983,1006.184 -989.303,1003.701 -987.301,1001.82 -986.239,1000.8367 -984.98,1000.07 -983.525,999.519 -979.979,998.283 -976.94,998.6575 -973.613,999.1061 -971.882,999.3814 -970.014,999.8336 -968.008,1000.4631 L -969.601,1004.2981 C -971.292,1003.7868 -972.866,1003.4525 -974.321,1003.2951 -975.737,1003.0984 -976.996,1003.0001 -978.097,1003.0001 Z"
         style="fill:url(#linearGradient10386)"
         inkscape:connector-curvature="0" />
    </g>
    <g
       id="P"
       transform="translate(-0.5709)">
      <path
         id="pP"
         d="M -939.4,997.1 C -941.608,997.1 -943.666,997.2001 -945.584,997.4027 -948.571,997.7004 -950.701,998.0895 -953.441,998.6257 V 1044.5057 L -943.931,1044.7049 V 1025.1349 C -942.75,1025.4629 -941.598,1026.0751 -940.478,1026.1201 -937.504,1026.4991 -934.348,1026.217 -931.797,1025.2599 -928.116,1023.7709 -925.053,1021.3109 -923.262,1017.9859 -921.51,1014.0749 -921.499,1009.7989 -923.1722,1006.1859 -925.1342,1002.2699 -928.5602,999.6059 -932.3092,998.2739 -934.4752,997.4805 -936.8452,997.0939 -939.3952,997.0939 Z M -939.4,1005.309 C -937.232,1005.279 -935.495,1006.0456 -933.923,1007.28 -932.345,1008.518 -931.838,1010.286 -931.73,1012.03 -932.0141,1016.019 -935.063,1018.297 -938.334,1019.279 -939.958,1019.6077 -940.742,1019.9575 -942.104,1020.756 -942.8733,1021.2067 -943.631,1022.555 -943.93,1023.322 V 1005.552 C -942.346,1005.4508 -940.721,1005.3065 -939.401,1005.302 Z"
         style="fill:#290a43"
         inkscape:connector-curvature="0" />
      <path
         id="sP"
         d="M -925,1017 C -926.694,1020.157 -929.467,1022.258 -932.493,1023.431 -935.214,1024.3908 -937.777,1024.769 -940.399,1024.67 -941.3823,1024.6307 -942.425,1024.4538 -943.526,1024.1392 -943.0933,1023.1162 -942.444,1022.2712 -941.579,1021.6022 -940.6743,1020.8942 -939.593,1020.5402 -938.334,1020.5402 -937.311,1020.5402 -936.289,1020.3239 -935.266,1019.8912 -933.163,1018.9386 -931.515,1017.3152 -930.546,1015.4072 -930.0347,1014.3452 -929.779,1013.1852 -929.779,1011.9262 -929.87065,1009.4492 -930.943,1007.2702 -932.611,1005.7312 -934.593,1004.0612 -937.041,1003.2682 -939.396,1003.2532 -941.599,1003.2532 -943.762,1003.3712 -945.886,1003.6072 V 1042.6072 L -951.491,1042.4893 V 1000.1293 C -949.288,999.6967 -947.263,999.4017 -945.414,999.2444 -943.565,999.0477 -941.559,998.9494 -939.396,998.9494 -937.036,998.9494 -934.892,999.3034 -932.965,1000.0114 -929.445,1001.3434 -926.424,1003.6934 -924.941,1006.9144 -924.1937,1008.4874 -923.82,1010.1594 -923.82,1011.9864 -923.82,1013.8134 -924.2133,1015.5054 -925,1016.9994 Z"
         style="fill:url(#linearGradient10384)"
         inkscape:connector-curvature="0" />
    </g>
    <g
       id="1O"
       transform="translate(-1.798)">
      <path
         id="p1O"
         d="M -902.5,998.8 C -906.664,1000.505 -910.846,1005.051 -913.19,1011.06 -915.534,1017.068 -915.743,1024.43 -913.4522,1030.5 -911.1614,1036.57 -907.0072,1040.98 -901.7822,1043.39 -896.1562,1045.552 -890.0222,1045.536 -884.6322,1043.1605 -879.2422,1040.785 -875.2062,1036.0205 -873.1222,1030.8105 -870.9592,1024.3825 -870.9022,1017.6805 -872.7882,1011.6405 -874.7452,1005.8065 -878.8092,1001.0305 -883.8982,998.5505 -886.7512,997.4375 -889.7022,996.8265 -892.6012,996.7415 -895.5002,996.6565 -898.3362,997.0935 -902.5002,998.7985 Z M -885.13,1008.778 C -882.424,1012.447 -881.407,1016.683 -881.325,1020.838 -881.447,1025.071 -882.359,1029.233 -884.648,1032.218 -886.937,1035.203 -889.97,1036.839 -893.259,1036.948 -896.766,1036.857 -899.689,1035.131 -901.685,1032.68 -904.233,1029.1 -905.154,1024.801 -905.173,1020.85 -905.1503,1015.037 -902.513,1008.34 -897.771,1005.85 -893.292,1003.725 -887.837,1005.1088 -885.131,1008.778 Z"
         style="fill:#290a43"
         inkscape:connector-curvature="0" />
      <path
         id="s1O"
         d="M -911.2,1011 C -908.735,1005.518 -905.163,1001.948 -900.11,999.91 -892.433,996.834 -883.46,999.0737 -878.34,1005.161 -876.649,1007.167 -875.37,1009.527 -874.505,1012.241 -872.751,1018.087 -872.656,1024.561 -874.8,1030.121 -877.072,1035.655 -880.587,1039.5 -885.48,1041.621 -890.722,1043.807 -896.18,1043.548 -900.88,1041.621 -906.431,1039.29 -909.579,1034.973 -911.44,1030.231 -913.538,1024.207 -913.564,1017.141 -911.204,1011.001 Z M -905.949,1028.17 C -904.619,1032.234 -902.5,1035.506 -898.633,1037.61 -896.942,1038.4753 -895.093,1038.908 -893.087,1038.908 -888.788,1038.9282 -885.348,1036.736 -883.057,1033.657 -880.186,1029.876 -879.244,1025.181 -879.222,1020.857 -879.222,1018.104 -879.5957,1015.626 -880.343,1013.423 -881.719,1008.893 -884.191,1005.862 -887.718,1004.101 -891.437,1002.262 -895.632,1002.673 -898.458,1004.101 -902.643,1006.259 -904.64,1009.737 -905.892,1013.423 -907.336,1018.374 -907.338,1023.493 -905.951,1028.173 Z"
         style="fill:url(#linearGradient10382)"
         inkscape:connector-curvature="0" />
    </g>
    <g
       id="2R"
       transform="translate(-4.309)">
      <path
         id="p2R"
         d="M -844.2,1026 C -843.6988,1026.2188 -842.719,1027.905 -842.266,1028.429 -840.486,1031.521 -839.597,1035.05 -838.892,1038.119 V 1038.157 C -838.2026,1040.794 -837.419,1042.787 -836.353,1045.073 H -826.183 C -827.437,1042.364 -828.731,1039.367 -829.444,1036.769 -829.876,1035.067 -830.478,1032.883 -830.989,1031.299 -831.987,1028.249 -833.238,1025.364 -835.407,1023.295 -833.83,1022.265 -832.397,1021.07 -831.289,1019.561 -829.711,1017.425 -828.9,1014.875 -828.9,1012.147 -829.1667,1007.971 -830.893,1004.19 -833.829,1001.707 -837.517,998.696 -842.114,997.478 -846.429,997.454 -850.742,997.427 -855.068,998.0986 -858.899,998.847 L -860.475,999.1572 V 1045.0772 H -850.966 C -850.966,1032.1372 -851.0401,1017.6872 -850.9509,1005.9472 -848.4009,1005.5142 -845.5359,1005.6687 -843.4049,1006.1878 H -843.3747 C -840.6167,1007.4608 -838.7887,1009.2438 -838.7427,1012.0268 -838.6936,1015.0248 -840.2757,1017.3038 -842.5457,1018.5318 -843.7887,1019.6838 -847.2967,1019.3397 -848.8727,1020.6898 -850.9097,1022.4338 -850.7587,1023.0748 -851.0657,1024.2978 -848.6977,1026.0008 -846.9317,1025.4918 -844.1937,1025.8018 Z"
         style="fill:#290a43"
         inkscape:connector-curvature="0" />
      <path
         id="s2R"
         d="M -832.9,1018 C -834.198,1019.77 -835.87,1021.166 -837.915,1022.189 L -839.331,1022.6609 -838.151,1023.1329 C -836.696,1024.1162 -835.594,1025.3159 -834.847,1026.7319 -834.0603,1028.1479 -833.411,1029.7209 -832.9,1031.4519 -832.3493,1033.1429 -831.838,1034.9529 -831.366,1036.8799 -830.8547,1038.7679 -830.147,1040.7149 -829.242,1042.7209 H -835.142 C -835.9287,1041.0299 -836.558,1039.2199 -837.03,1037.2929 -837.4627,1035.3659 -837.9543,1033.5169 -838.505,1031.7469 -839.0557,1029.9769 -839.764,1028.4039 -840.629,1027.0269 -841.455,1025.6499 -842.635,1024.6669 -844.169,1024.0769 -844.287,1024.1163 -844.464,1024.136 -844.7,1024.136 -845.5653,1024.2147 -846.49,1024.2343 -847.473,1024.1949 -848.4563,1024.1162 -849.499,1023.9392 -850.6,1023.6638 -850.1673,1022.6408 -849.518,1021.7958 -848.653,1021.1268 -847.7483,1020.4581 -846.667,1020.1038 -845.408,1020.0648 -844.385,1020.0255 -843.363,1019.7896 -842.34,1019.3569 -841.317,1018.9242 -840.413,1018.3539 -839.626,1017.6459 -837.908,1015.9969 -836.871,1013.8289 -836.853,1011.6279 -836.853,1010.4479 -837.1087,1009.3659 -837.62,1008.3829 -838.776,1006.2189 -840.681,1004.7319 -842.753,1003.9579 -845.046,1003.1711 -847.214,1003.2717 -849.479,1003.3679 -850.3837,1003.4072 -851.544,1003.5645 -852.96,1003.8398 V 1042.7198 H -858.565 V 1000.3598 C -856.362,999.9272 -854.337,999.5929 -852.488,999.3568 -848.236,998.9304 -843.91,998.6941 -840.038,1000.0058 -838.111,1000.6744 -836.478,1001.5988 -835.141,1002.7788 -833.764,1003.9198 -832.722,1005.2568 -832.014,1006.7908 -829.954,1011.2398 -830.335,1014.4348 -832.899,1018.0008 Z"
         style="fill:url(#linearGradient10380)"
         inkscape:connector-curvature="0" />
    </g>
    <g
       id="2T"
       transform="translate(-2.931)">
      <path
         id="p2T"
         d="M -821.8,997.5 V 1005.652 H -809.29 V 1044.292 H -799.722 V 1005.652 H -787.152 V 997.5 Z"
         style="fill:#290a43"
         inkscape:connector-curvature="0" />
      <path
         id="s2T"
         d="M -819.9,1004 V 999.752 H -789.16 V 1004 H -801.73 V 1042.64 H -807.394 V 1004 Z"
         style="fill:url(#linearGradient10374)"
         inkscape:connector-curvature="0" />
    </g>
    <g
       id="2A"
       transform="translate(-1.246)">
      <path
         id="p2A"
         d="M -767,997.5 -783.87,1044.3 H -774.095 L -770.556,1034.03 H -755.656 L -752.099,1044.3 H -741.919 L -758.779,997.5 Z M -763.1,1012.53 -756.936,1029.64 C -758.064,1028.324 -758.308,1026.663 -761.452,1026.169 L -767.757,1025.878 Z"
         style="fill:#290a43"
         inkscape:connector-curvature="0" />
      <path
         id="s2A"
         d="M -760.1,999.4 -744.64,1042.29 H -750.658 L -762.638,1007.72 -763.051,1006.009 -763.464,1007.72 -770.072,1026.66 -770.721,1027.899 -770.013,1027.781 H -762.048 Q -759.924,1027.781 -758.803,1029.079 -757.682,1030.318 -757.033,1032.029 H -771.903 L -775.443,1042.299 H -781.048 L -765.588,999.409 Z"
         style="fill:url(#linearGradient10376)"
         inkscape:connector-curvature="0" />
    </g>
    <g
       id="3T"
       transform="translate(0.3042)">
      <path
         id="p3T"
         d="M -738.7,997.5 V 1005.652 H -726.19 V 1044.292 H -716.623 V 1005.652 H -704.053 V 997.5 Z"
         style="fill:#290a43"
         inkscape:connector-curvature="0" />
      <path
         id="s3T"
         d="M -736.8,1004 V 999.752 H -706.06 V 1004 H -718.63 V 1042.64 H -724.294 V 1004 Z"
         style="fill:url(#linearGradient10374)"
         inkscape:connector-curvature="0" />
    </g>
    <g
       id="I"
       transform="translate(4.367)">
      <path
         id="pI"
         d="M -696.7,997.5 V 1044.3 H -687.369 V 997.5 Z"
         style="fill:#290a43"
         inkscape:connector-curvature="0" />
      <path
         id="sI"
         d="M -689.3,1042 H -694.728 V 999.11 H -689.3 Z"
         style="fill:url(#linearGradient10372)"
         inkscape:connector-curvature="0" />
    </g>
    <g
       id="2O"
       transform="translate(3.679)">
      <path
         id="p2O"
         d="M -665.7,998.8 C -669.866,1000.506 -674.05,1005.052 -676.39,1011.06 -678.732,1017.068 -678.94,1024.43 -676.6488,1030.5 -674.3576,1036.57 -670.2058,1040.98 -664.9788,1043.39 -659.3528,1045.552 -653.2188,1045.536 -647.8288,1043.1605 -642.4388,1040.785 -638.4038,1036.0225 -636.3188,1030.8105 -634.1538,1024.3825 -634.0968,1017.6805 -635.9829,1011.6405 -637.9409,1005.8075 -642.0039,1001.0305 -647.0929,998.5505 -649.9479,997.4375 -652.8989,996.8245 -655.7989,996.7395 -658.6989,996.6545 -661.5329,997.0924 -665.6989,998.7985 Z M -648.17,1008.9 C -645.627,1012.446 -644.609,1016.686 -644.527,1020.84 -644.6494,1025.073 -645.561,1029.235 -647.851,1032.22 -650.141,1035.205 -653.171,1036.841 -656.459,1036.95 -659.966,1036.859 -662.889,1035.133 -664.885,1032.682 -667.433,1029.102 -668.354,1024.803 -668.373,1020.852 -668.2793,1016.492 -667.284,1012.228 -664.73,1008.912 -662.279,1006.636 -659.215,1004.88 -656.13,1004.896 -653.045,1004.9122 -650.105,1006.521 -648.17,1008.901 Z"
         style="fill:#290a43"
         inkscape:connector-curvature="0" />
      <path
         id="s2O"
         d="M -669.7,1004 C -665.899,1000.501 -661.098,998.549 -656.31,998.513 -650.464,998.59274 -645.06,1000.959 -641.56,1005.121 -637.91,1009.711 -636.456,1015.461 -636.427,1020.811 -636.50577,1026.988 -638.485,1032.881 -642.386,1037.091 -646.212,1041.023 -651.311,1043.073 -656.306,1043.109 -661.784,1043.0102 -666.876,1040.844 -670.406,1037.209 -674.587,1032.495 -676.158,1026.269 -676.188,1020.669 -676.10613,1014.266 -673.988,1008.179 -669.698,1003.989 Z M -670.172,1020.81 C -670.172,1023.485 -669.8377,1025.923 -669.169,1028.126 -668.461,1030.329 -667.497,1032.236 -666.278,1033.849 -665.019,1035.422 -663.544,1036.661 -661.853,1037.566 -660.162,1038.4313 -658.313,1038.864 -656.307,1038.864 -654.222,1038.864 -652.334,1038.392 -650.643,1037.448 -648.912,1036.504 -647.457,1035.226 -646.277,1033.613 -645.058,1032 -644.114,1030.093 -643.445,1027.89 -642.776,1025.687 -642.442,1023.327 -642.442,1020.81 -642.442,1018.057 -642.8157,1015.579 -643.563,1013.376 -644.271,1011.134 -645.254,1009.226 -646.513,1007.653 -647.772,1006.08 -649.247,1004.88 -650.938,1004.054 -652.629,1003.228 -654.419,1002.815 -656.307,1002.815 -658.195,1002.815 -659.985,1003.228 -661.676,1004.054 -663.367,1004.88 -664.842,1006.08 -666.101,1007.653 -667.36,1009.226 -668.363,1011.134 -669.11,1013.376 -669.818,1015.579 -670.172,1018.057 -670.172,1020.81 Z"
         style="fill:url(#linearGradient10370)"
         inkscape:connector-curvature="0" />
    </g>
    <g
       id="2N"
       transform="translate(-7.014e-5)">
      <path
         id="p2N"
         d="M -622.8,997.5 V 1044.3 H -614.117 V 1013.73 L -594.967,1044.3 H -586.92 V 997.5 H -595.781 V 1026.87 L -614.161,997.5 Z"
         style="fill:#290a43"
         inkscape:connector-curvature="0" />
      <path
         id="s2N"
         d="M -615.4,1008 -616.226,1005.994 -616.108,1008 V 1042.28 H -620.887 V 999.39 H -615.282 L -594.452,1032.66 -593.744,1034.607 -593.862,1032.542 V 999.382 H -588.906 V 1042.272 H -593.921 Z"
         style="fill:url(#linearGradient5990)"
         inkscape:connector-curvature="0" />
    </g>
  </g>
  <g
     id="res"
     transform="matrix(1,0,0,1.005,1182,-897.5)">
    <g
       id="rO"
       transform="translate(0.4495,-0.3817)">
      <path
         id="rsO"
         d="M -967.456,947.08 C -967.456,954.694 -966.306,961.6 -964.002,967.8 -959.71,979.89 -951.012,989.62 -940.072,993.83 -927.902,998.474 -914.972,998.517 -903.512,993.566 -892.132,988.612 -883.432,978.596 -879.452,967.396 -874.939,955.766 -874.874,940.546 -878.7853,928.216 -882.5543,915.586 -890.7553,905.976 -901.6453,900.986 -914.2853,895.815 -926.8753,895.427 -939.0953,900.3475 -951.3153,905.268 -959.1653,914.5575 -962.66815,923.22775 -966.171,931.898 -967.456,939.02 -967.456,947.08 Z M -900.07,918.53 C -893.71,926.912 -891.376,936.6 -891.426,947.08 -891.594,957.41 -894.147,967.55 -899.937,975.37 -905.4,982.381 -913.467,986.46 -921.607,986.53 -930.744,986.4011 -938.667,982.118 -943.537,975.24 -949.624,966.784 -951.866,956.55 -951.912,947.09 -951.7078,936.77 -949.313,926.47 -943.404,918.67 -937.928,911.314 -929.674,907.85 -921.236,907.8965 -912.798,907.943 -904.98,911.679 -900.07,918.53 Z"
         style="fill:url(#linearGradient5862);stroke:url(#linearGradient5862);stroke-width:7.26599979"
         inkscape:connector-curvature="0"
         sodipodi:nodetypes="sccccccscsccccccccc" />
      <path
         id="rpO"
         d="M -967.456,947.08 C -967.456,954.694 -966.306,961.6 -964.002,967.8 -959.71,979.89 -951.012,989.62 -940.072,993.83 -927.902,998.474 -914.972,998.517 -903.512,993.566 -892.132,988.612 -883.432,978.596 -879.452,967.396 -874.939,955.766 -874.874,940.546 -878.7853,928.216 -882.5543,915.586 -890.7553,905.976 -901.6453,900.986 -914.2853,895.815 -926.8753,895.427 -939.0953,900.3475 -951.3153,905.268 -959.1653,914.5575 -962.66815,923.22775 -966.171,931.898 -967.456,939.02 -967.456,947.08 Z M -891.426,947.08 C -891.594,957.41 -894.147,967.55 -899.937,975.37 -905.4,982.381 -913.467,986.46 -921.607,986.53 -930.744,986.4011 -938.667,982.118 -943.537,975.24 -949.624,966.784 -951.866,956.55 -951.912,947.09 -951.7078,936.77 -949.313,926.47 -943.404,918.67 -937.928,911.314 -929.674,907.85 -921.234,907.9 -912.794,907.95 -904.974,911.682 -899.342,919.297 -893.71,926.912 -891.376,936.6 -891.426,947.08 Z"
         style="fill:url(#linearGradient7728);stroke:url(#linearGradient7728);stroke-width:3.56200004"
         inkscape:connector-curvature="0"
         sodipodi:nodetypes="sccccccscsccccccscc" />
      <path
         id="rbO"
         d="M -963.51,925.75 C -969.093,939.7 -968.179,956.1 -963.9123,967.77 -961.6113,973.956 -958.4703,979.26 -954.4883,983.68 -950.4183,988.01 -945.5943,991.368 -940.0183,993.75 -927.7483,998.337 -915.2683,998.539 -903.5283,993.4863 -891.3183,988.3503 -883.6583,978.1963 -879.4983,967.3663 -874.8753,955.2063 -874.9313,940.5663 -878.8342,928.2563 -882.7232,916.0863 -889.9742,906.5363 -901.6642,901.0763 -915.5742,895.8523 -927.1942,895.7613 -939.1021,900.59015 -951.01,905.419 -959.66,915.24 -963.51,925.75 Z M -893.83,931.05 C -890.972,941.77 -890.738,952.82 -893.83,962.87 -896.658,972.134 -902.021,979.49 -909.62,983.55 -917.681,987.741 -926.77,987.268 -934.03,983.55 -942.196,978.838 -947.24,970.78 -949.82,962.74 -952.507,952.13 -952.741,941.11 -949.6872,931.19 -946.8892,922.441 -942.1852,915.18 -933.8972,910.78 -925.7412,907.141 -917.9172,906.712 -909.1696,911.18 -900.422,915.648 -896.34,923.09 -893.83,931.05 Z"
         style="fill:url(#linearGradient7732)"
         inkscape:connector-curvature="0"
         sodipodi:nodetypes="ccccccccccccccccccc" />
    </g>
    <g
       id="rS"
       transform="translate(0.249,-0.458)">
      <path
         id="rsS"
         d="M -1029.655,911.976 C -1032.4889,919.23502 -1032.3064,928.20957 -1028.328,934.417 -1023.515,941.58549 -1016.3169,946.08937 -1009.315,949.69 -1002.3896,953.28216 -995.14117,956.69085 -990.169,962.176 -986.66623,966.8765 -985.88492,972.39944 -988.175,977.315 -992.12516,983.97583 -998.82946,986.57567 -1005.589,986.611 -1008.779,986.611 -1012.415,986.2123 -1016.489,985.415 -1020.566,984.6181 -1024.73,983.247 -1028.979,981.3 L -1032.835,990.994 C -1027.872,993.385 -1022.865,995.022 -1017.815,995.907 -1012.763,996.8809 -1008.331,997.368 -1004.525,997.368 -999.473,997.368 -994.951,996.7042 -990.965,995.377 -986.977,993.96 -983.611,992.103 -980.865,989.801 -975.35259,984.98422 -972.22336,978.25718 -972.357,971.468 -972.16924,961.69091 -977.14263,954.95837 -984.056,949.552 -987.424,946.896 -991.057,944.595 -994.956,942.648 -998.856,940.612 -1002.491,938.575 -1005.856,936.539 -1011.7476,933.00668 -1017.4702,927.95767 -1017.553,921.399 -1017.2173,912.8586 -1010.2836,907.83385 -1002.799,908.148 -996.06977,908.39032 -989.27779,909.45187 -983.387,911.1727 L -979.4,901.6097 C -984.275,900.1047 -988.618,899.0427 -992.43,898.4227 -1007.4788,896.91113 -1022.7257,897.5656 -1029.655,911.976 Z"
         style="fill:url(#linearGradient5862);stroke:url(#linearGradient5862);stroke-width:7.26599979"
         inkscape:connector-curvature="0"
         sodipodi:nodetypes="ccccccccccscccccccccccc" />
      <path
         id="rpS"
         d="M -1015.03,899.359 C -1018.397,900.51 -1021.322,902.15 -1023.805,904.274 -1029.377,908.91835 -1031.6062,915.56778 -1031.651,921.937 -1031.651,926.895 -1030.544,931.056 -1028.328,934.417 -1026.112,937.782 -1023.364,940.704 -1020.085,943.183 -1016.718,945.574 -1013.128,947.742 -1009.315,949.69 -1005.415,951.549 -1001.827,953.497 -998.545,955.534 -995.178,957.482 -992.385,959.697 -990.169,962.176 -987.953,964.655 -986.846,967.709 -986.846,971.339 -986.846,973.464 -987.2897,975.456 -988.175,977.315 -990.30277,981.68376 -993.76544,984.05777 -997.746,985.415 -1003.852,987.44511 -1010.4171,986.51357 -1016.489,985.415 -1020.566,984.6181 -1024.73,983.247 -1028.979,981.3 L -1032.835,990.994 C -1027.872,993.385 -1022.865,995.022 -1017.815,995.907 -1008.6557,997.78709 -999.1835,998.04757 -990.965,995.377 -980.1072,992.0458 -971.99715,982.04275 -972.357,971.468 -971.88961,961.96915 -977.42227,954.68013 -984.056,949.552 -990.95591,944.02033 -998.79298,940.79953 -1005.856,936.539 -1012.0272,933.19217 -1017.377,928.46778 -1017.553,921.399 -1017.2173,912.8586 -1010.4747,907.85636 -1002.799,908.148 -1000.228,908.148 -997.348,908.4709 -994.157,908.9137 -990.878,909.2681 -987.287,910.0217 -983.387,911.1727 L -979.4,901.6097 C -984.275,900.1047 -988.618,899.0427 -992.43,898.4227 -1001.1487,897.23956 -1007.7831,896.70733 -1015.03,899.359 Z"
         style="fill:url(#linearGradient7728);stroke:url(#linearGradient7728);stroke-width:3.96099997"
         inkscape:connector-curvature="0"
         sodipodi:nodetypes="cccccccssccccccccccccccccc" />
      <path
         id="rbS"
         d="M -1015.03,899.359 C -1021.886,901.677 -1026.84,905.995 -1029.66,911.979 -1032.73,919.216 -1032.305,928.219 -1028.331,934.419 -1026.114,937.784 -1023.367,940.706 -1020.087,943.185 -1012.597,948.638 -1005.737,950.997 -998.547,955.535 -995.179,957.483 -992.386,959.697 -990.17,962.176 -986.131,966.691 -986.184,973.596 -988.178,977.316 -990.543,982.029 -993.858,984.047 -997.75,985.418 -1003.807,987.482 -1010.54,986.496 -1016.49,985.418 -1020.568,984.6211 -1024.733,983.251 -1028.98,981.303 L -1032.838,990.997 C -1027.874,993.388 -1022.866,995.025 -1017.808,995.911 -1008.571,997.776 -999.778,998.154 -990.938,995.379 -983.535,992.649 -977.828,988.624 -974.588,981.699 -973.081,978.512 -972.327,975.103 -972.327,971.469 -972.327,966.422 -973.433,962.173 -975.65,958.719 -980.52,951.022 -987.71,946.289 -994.93,942.649 -1001.832,938.821 -1008.78,935.594 -1014.21,930.029 -1019.266,924.357 -1018.116,916.209 -1013.677,912.099 -1011.106,909.531 -1007.473,908.246 -1002.777,908.246 -996.04,908.3777 -989.307,909.358 -983.367,911.171 L -979.38,901.606 C -984.256,900.101 -988.601,899.04 -992.42,898.42 -996.368,897.9944 -1000.436,897.5124 -1004.2125,897.5062 -1007.989,897.5 -1011.667,898.1192 -1015.03,899.359 Z"
         style="fill:url(#linearGradient7732)"
         inkscape:connector-curvature="0"
         sodipodi:nodetypes="ccccccccccccccscccccccccc" />
    </g>
    <g
       id="rR"
       transform="translate(-2.574,-0.437)">
      <path
         inkscape:connector-curvature="0"
         style="display:inline;opacity:1;fill:url(#linearGradient4635);fill-opacity:1;stroke:url(#linearGradient4645);stroke-width:7.26599979"
         d="M -1175.263,901.987 V 997.347 H -1160.773 V 910.887 C -1156.2203,909.94598 -1151.1952,909.82468 -1147.08,909.8217 -1141.6653,909.91809 -1136.3338,911.73305 -1132.456,915.0027 -1128.4462,918.72562 -1126.3822,923.11189 -1126.341,927.7527 -1126.479,932.69581 -1128.3445,936.85809 -1131.924,940.3677 -1133.6523,941.99485 -1136.3668,943.8507 -1137.5549,944.23631 -1139.9325,945.40058 -1141.8774,946.21373 -1142.787,946.0787 -1146.0424,946.30197 -1148.016,947.4727 -1149.966,949.3317 -1151.916,951.1907 -1152.98,952.2757 -1153.955,954.5777 -1151.917,955.1089 -1150.399,955.1747 -1148.538,955.3516 -1146.588,955.5284 -1144.739,955.5639 -1143.055,955.4754 -1142.2112,955.52683 -1141.279,955.43578 -1140.529,955.3429 -1137.339,956.8479 -1135.958,959.8459 -1134.186,962.9439 -1130.1228,970.32746 -1128.5771,977.57646 -1126.476,985.5239 -1125.5011,989.6849 -1124.127,993.6249 -1122.354,997.3439 H -1107.334 C -1109.461,992.7399 -1111.1,988.1809 -1112.252,983.6639 -1114.3573,975.30978 -1116.1153,967.13661 -1120.894,960.0239 -1122.844,956.8369 -1125.725,954.3159 -1129.536,952.4559 L -1126.213,951.2579 C -1121.693,948.9559 -1118.058,945.8139 -1115.313,941.8289 -1110.1373,934.40549 -1109.7957,924.5543 -1113.854,916.3289 -1117.3772,908.81277 -1124.2623,903.89883 -1132.596,901.1899 -1139.915,899.1339 -1146.9594,898.92914 -1152.8185,899.05405 -1160.6842,899.54622 -1168.2281,900.67397 -1175.263,901.987 Z"
         id="rsR"
         sodipodi:nodetypes="ccccccccccsccccccccccccccccc"
         inkscape:label="rsR" />
      <path
         sodipodi:nodetypes="cccccccccscccccccccccccccccc"
         inkscape:connector-curvature="0"
         style="display:inline;opacity:1;fill:url(#linearGradient4617);fill-opacity:1;stroke:url(#linearGradient4625);stroke-width:3.56200004"
         d="M -1175.263,901.987 V 997.347 H -1160.773 V 910.887 C -1156.2203,909.94598 -1151.1952,909.82468 -1147.08,909.8217 -1141.4347,909.94526 -1136.3338,911.73305 -1132.456,915.0027 -1128.5121,918.59446 -1126.3822,923.11189 -1126.341,927.7527 -1126.479,933.02372 -1128.6411,937.21879 -1131.924,940.3677 -1135.1917,943.45671 -1139.3886,945.4786 -1143.487,945.6807 -1146.323,945.8576 -1148.716,946.8757 -1150.666,948.7347 -1152.616,950.5937 -1154.08,952.6747 -1155.055,954.9767 -1153.017,955.5079 -1151.064,955.8628 -1149.203,956.0397 -1147.253,956.2165 -1145.438,956.2607 -1143.754,956.1722 -1142.9102,956.22363 -1141.978,956.13258 -1141.228,956.0397 -1138.038,957.5447 -1135.957,959.8457 -1134.185,962.9437 -1130.4514,969.63865 -1128.4442,977.87138 -1126.475,985.5237 -1125.5001,989.6847 -1124.126,993.6247 -1122.353,997.3437 H -1107.333 C -1109.46,992.7397 -1111.099,988.1807 -1112.251,983.6637 -1113.314,979.0597 -1114.512,974.7667 -1115.842,970.7837 -1117.171,966.7107 -1118.854,963.1237 -1120.893,960.0237 -1122.843,956.8367 -1125.724,954.3157 -1129.535,952.4557 L -1126.212,951.2577 C -1121.692,948.9557 -1118.057,945.8137 -1115.312,941.8287 -1110.2215,934.19729 -1109.9811,924.22948 -1113.853,916.3287 -1117.4693,908.81257 -1124.8206,903.43489 -1132.595,901.1897 -1139.914,899.1337 -1147.005,898.6507 -1152.818,899.05395 -1160.6838,899.54619 -1167.6347,900.52639 -1175.263,901.987 Z"
         id="rpR"
         inkscape:label="rpR" />
      <path
         id="rbR"
         d="M -1175,902.1 V 997.45 H -1160.5 V 910.99 C -1155.947,910.05 -1150.921,909.929 -1146.81,909.926 -1143.974,909.926 -1141.312,910.4117 -1138.83,911.386 -1131.209,914.153 -1126.16,920.538 -1126.06,927.856 -1126.1002,935.49 -1131.498,941.566 -1137.23,944.326 -1139.357,945.2113 -1141.483,945.699 -1143.61,945.788 -1146.446,945.9649 -1148.84,946.983 -1150.79,948.843 -1152.74,950.702 -1154.205,952.781 -1155.18,955.083 -1153.142,955.6142 -1151.189,955.9705 -1149.328,956.147 -1146.916,956.3735 -1144.948,956.2781 -1142.68,956.2781 -1142.2367,956.2781 -1141.793,956.2362 -1141.349,956.147 -1138.158,957.652 -1135.675,959.952 -1133.902,963.051 -1130.037,970.332 -1127.897,978.241 -1126.191,985.631 -1125.216,989.792 -1123.842,993.731 -1122.069,997.451 H -1107.039 C -1109.167,992.847 -1110.807,988.288 -1111.959,983.771 -1114.063,975.414 -1116.157,966.981 -1120.602,960.131 -1122.552,956.944 -1125.434,954.423 -1129.246,952.564 L -1125.921,951.364 C -1121.4,949.062 -1117.764,945.92 -1115.021,941.936 -1109.91,934.231 -1109.693,924.336 -1113.561,916.436 -1117.512,908.628 -1124.871,903.726 -1132.311,901.296 -1136.654,899.791 -1141.486,899.038 -1146.811,899.038 -1156.4115,899.38934 -1166.2213,900.37249 -1175,902.1 Z"
         style="display:inline;fill:url(#linearGradient7732)"
         inkscape:connector-curvature="0"
         sodipodi:nodetypes="ccccccccccccscccccccccccccc" />
    </g>
    <g
       id="rU"
       transform="translate(0.4495,-0.3959)">
      <path
         id="rsU"
         d="M -807.8,899.1 -807.5995,959.46 C -807.44768,969.80868 -804.53824,979.94399 -797.8955,987.08 -790.44734,994.41875 -780.22142,997.25133 -770.9055,997.306 -760.74937,997.19757 -751.09804,993.65516 -744.4655,986.947 -737.36397,979.15948 -734.41814,968.91118 -734.3615,959.457 V 899.097 H -748.5815 V 961.587 C -748.6801,968.39597 -750.52411,975.15756 -754.8325,979.917 -759.19266,984.45791 -765.22801,986.51781 -770.9165,986.556 -777.26544,986.50756 -783.08233,984.08205 -787.1355,979.917 -791.57336,974.60831 -793.21836,967.77981 -793.2515,961.587 L -793.452,899.097 Z"
         style="fill:url(#linearGradient4662);stroke:url(#linearGradient4660);stroke-width:7.26599979"
         inkscape:connector-curvature="0"
         sodipodi:nodetypes="ccccccccccccccc" />
      <path
         id="rpU"
         d="M -807.8,899.1 -807.5995,959.46 C -807.44768,969.80868 -804.53824,979.94399 -797.8955,987.08 -790.44734,994.41875 -780.22142,997.25133 -770.9055,997.306 -765.4115,997.306 -760.4455,996.4223 -756.0255,994.652 -751.5055,992.793 -747.6525,990.223 -744.4655,986.947 -741.2755,983.583 -738.7925,979.598 -737.0215,974.997 -735.2485,970.304 -734.3615,965.126 -734.3615,959.457 V 899.097 H -748.5815 V 961.587 C -748.6801,968.39597 -750.52411,975.15756 -754.8325,979.917 -759.19266,984.45791 -765.22801,986.51781 -770.9165,986.556 -777.26544,986.50756 -783.08233,984.08205 -787.1355,979.917 -791.57336,974.60831 -793.21836,967.77981 -793.2515,961.587 L -793.452,899.097 Z"
         style="fill:url(#linearGradient7728);stroke:url(#linearGradient7728);stroke-width:3.56200004"
         inkscape:connector-curvature="0"
         sodipodi:nodetypes="cccccccsccccccccc" />
      <path
         id="rbU"
         d="M -807.9,899 V 959.56 C -807.48687,971.54549 -804.49776,979.69901 -798.195,987.19 -789.553,995.305 -780.215,997.36 -770.905,997.42 -759.565,997.42894 -751.105,993.789 -744.455,987.06 -736.521,978.686 -734.405,969.04 -734.355,959.57 V 899.01 H -748.885 V 961.69 C -748.65453,969.51224 -750.43854,975.36837 -755.137,980.02 -759.7,985.059 -764.817,986.502 -770.927,986.66 -777.73605,986.14805 -782.12755,984.96287 -787.147,980.02 -792.18542,974.05451 -792.99497,968.44648 -793.261,961.69 V 899.01 Z"
         style="fill:url(#linearGradient7732)"
         inkscape:connector-curvature="0"
         sodipodi:nodetypes="ccccccccccccccc" />
    </g>
    <g
       id="rL"
       transform="translate(0.6492,-0.44)">
      <path
         id="rsL"
         d="M -867,900.8 V 997.35 H -813.69 C -813.7908,993.751 -813.5606,989.751 -813.5574,986.46 H -852.3774 V 900.8 Z"
         style="fill:url(#linearGradient5862);stroke:url(#linearGradient5862);stroke-width:7.26599979"
         inkscape:connector-curvature="0" />
      <path
         id="rpL"
         d="M -867,900.8 V 997.35 H -813.69 C -813.7908,993.751 -813.5606,989.751 -813.5574,986.46 H -852.3774 V 900.8 Z"
         style="fill:url(#linearGradient7728);stroke:url(#linearGradient7728);stroke-width:3.56200004"
         inkscape:connector-curvature="0" />
      <path
         id="rbL"
         d="M -867,900.8 V 997.45 H -813.68 C -813.7814,993.851 -813.55,989.851 -813.5468,986.56 H -852.3768 V 900.8 Z"
         style="fill:url(#linearGradient7732)"
         inkscape:connector-curvature="0" />
    </g>
    <g
       id="rT"
       transform="translate(0.6493,-0.44)">
      <path
         id="rsT"
         d="M -726.4,900.8 V 911.56 H -699.14 V 997.35 H -684.52 V 911.56 H -657.13 V 900.8 Z"
         style="fill:url(#linearGradient5862);stroke:url(#linearGradient5862);stroke-width:7.26599979"
         inkscape:connector-curvature="0" />
      <path
         id="rpT"
         d="M -726.4,900.8 V 911.56 H -699.14 V 997.35 H -684.52 V 911.56 H -657.13 V 900.8 Z"
         style="fill:url(#linearGradient7728);stroke:url(#linearGradient7728);stroke-width:3.56200004"
         inkscape:connector-curvature="0" />
      <path
         id="rbT"
         d="M -726.4,900.8 V 911.56 H -699.15 V 997.35 H -684.52 V 911.56 H -657.13 V 900.8 Z"
         style="fill:url(#linearGradient7732)"
         inkscape:connector-curvature="0" />
    </g>
    <g
       id="r2E"
       transform="translate(1.05,-0.44)">
      <path
         id="rs2E"
         d="M -649.3,900.8 V 997.35 H -591.34 V 986.59 H -634.81 V 911.55 H -593.33 V 900.8 Z M -614.19,942.04 C -615.874,942.04 -617.377,941.95073 -618.707,942.5708 -622.27265,944.296 -624.90132,947.81793 -626.152,951.3358 H -595.452 V 942.0408 Z"
         style="fill:url(#linearGradient5862);stroke:url(#linearGradient5862);stroke-width:7.26599979"
         inkscape:connector-curvature="0"
         sodipodi:nodetypes="ccccccccccccccc" />
      <path
         id="rp2E"
         d="M -649.3,900.8 V 997.35 H -591.34 V 986.59 H -634.81 V 911.55 H -593.33 V 900.8 Z M -615.09,941.44 C -616.774,941.44 -618.277,941.7496 -619.607,942.3697 -624.29346,944.64223 -625.87148,948.16138 -627.052,951.9307 H -594.952 V 941.4407 Z"
         style="fill:url(#linearGradient7728);stroke:url(#linearGradient7728);stroke-width:3.56200004"
         inkscape:connector-curvature="0"
         sodipodi:nodetypes="ccccccccccccccc" />
      <path
         id="rb2E"
         d="M -649.3,900.8 V 997.35 H -591.33 V 986.6 H -634.8 V 911.56 H -593.31 V 900.81 Z M -615.09,941.24 C -616.774,941.24 -618.481,941.749 -619.81,942.369 -623.855,944.531 -625.806,947.74 -627.258,952.13 H -594.848 L -594.84837,941.24 Z"
         style="fill:url(#linearGradient7732)"
         inkscape:connector-curvature="0" />
    </g>
    <g
       id="r1E"
       transform="translate(-450.6,-0.44)">
      <path
         id="rs1E"
         d="M -649.3,900.8 V 997.35 H -591.34 V 986.59 H -634.81 V 911.55 H -593.33 V 900.8 Z M -614.19,942.04 C -615.874,942.04 -617.377,941.95073 -618.707,942.5708 -622.27265,944.296 -624.70359,947.98188 -626.152,951.3358 H -595.452 V 942.0408 Z"
         style="fill:url(#linearGradient5862);stroke:url(#linearGradient5862);stroke-width:7.26599979"
         inkscape:connector-curvature="0"
         sodipodi:nodetypes="ccccccccccccccc" />
      <path
         id="rp1E"
         d="M -649.3,900.8 V 997.35 H -591.34 V 986.59 H -634.81 V 911.55 H -593.33 V 900.8 Z M -615.09,941.44 C -616.774,941.44 -618.277,941.7496 -619.607,942.3697 -623.43663,944.31432 -625.87148,948.0958 -627.052,951.9307 H -594.952 V 941.4407 Z"
         style="fill:url(#linearGradient7728);stroke:url(#linearGradient7728);stroke-width:3.56200004"
         inkscape:connector-curvature="0"
         sodipodi:nodetypes="ccccccccccccccc" />
      <path
         id="rb1E"
         d="M -649.3,900.8 V 997.35 H -591.33 V 986.6 H -634.8 V 911.56 H -593.31 V 900.81 Z M -615.09,941.44 C -616.774,941.44 -618.281,941.7494 -619.61,942.3695 -623.655,944.5315 -625.606,947.5405 -627.058,951.9305 H -595.148 V 941.4405 Z"
         style="fill:url(#linearGradient7732)"
         inkscape:connector-curvature="0" />
    </g>
  </g>
</svg>
