<svg id="mbz" style="enable-background:new" version="1.1" viewBox="0 0 435.5 139" xmlns="http://www.w3.org/2000/svg">
 <path d="m0 0h435.5v139h-435.5z" style="fill:#aaccff"/>
 <path id="shirt" d="m188.8 41.65c3.238 0.03853 6.423-1.004 9.671 0.2278l-1.388 11.04-6.254 0.1243-1.574-3.604zm-2.609-12.76 0.6627 1.16 13.34-0.04142 0.8698-1.284c-8.009-3.677-6.647-2.741-14.87 0.1657z" style="fill:#ffffff"/>
 <path id="chauf" d="m193.7 22.67c-3.911 0-6.215 1.276-7.78 4.308-1.012 1.957-1.015 2.189-0.0167 2.92 0.597 0.4365 1.085 1.725 1.085 2.867 0 3.043 1.244 5.272 3.612 6.472h0.00557c4.376 2.215 9.808-1.171 9.808-6.115 0-1.465 0.4312-2.745 1.085-3.223 0.9986-0.7307 0.9958-0.9629-0.0167-2.92-1.568-3.032-3.87-4.308-7.78-4.308zm0 4.751c2.663-2.65e-4 5.323 0.4598 6.238 1.384 0.6316 0.6382 0.3992 0.6611-1.081 0.1023-1.039-0.3922-3.359-0.7123-5.156-0.7123s-4.117 0.3203-5.156 0.7123c-1.479 0.558-1.715 0.5343-1.085-0.1023 0.915-0.9245 3.578-1.384 6.243-1.384zm3.174 13.99 0.4586 3.661c0.4644 3.717-0.3221 7.279-1.605 7.279-0.3782 0-0.69-1.131-0.6962-2.515-0.00612-1.384-0.2717-2.936-0.5937-3.444-1.024-1.616-2.08-0.1057-2.08 2.977 0 3.217-0.8337 3.843-2.064 1.544-0.4918-0.9189-0.6115-2.86-0.3276-5.369 0.1843-2.676 0.1764-3.37-0.02011-3.935-0.2236-0.008486-0.6146 0.007319-0.9751 0.007319-3.12 0-5.937 2.063-7.686 5.642-2.112 4.318-3.407 14.02-2.572 19.26 0.5463 3.432 0.6717 3.608 2.58 3.608h2.007l0.3973-8.722c0.2169-4.797 0.7246-9.479 1.13-10.4 0.5545-1.261 0.7457 4.18 0.778 21.94 0.03898 21.76 0.1346 23.67 1.216 24.3 1.737 1.011 3.595 0.8683 4.98-0.3849 1.116-1.01 1.229-2.408 1.229-15.43 0-9.1 0.2453-14.32 0.6716-14.32 0.4262 0 0.6717 5.183 0.6717 14.21 0 12.27 0.1502 14.37 1.11 15.43 1.363 1.506 3.799 1.59 5.213 0.1761 0.9162-0.9161 1.06-4.105 1.098-24.33 0.03174-17.31 0.2297-22.84 0.7697-21.59 0.3994 0.9228 0.8694 5.539 1.044 10.25 0.269 7.262 0.4963 8.666 1.486 9.2 0.7847 0.4201 1.558 0.3418 2.351-0.2375 1.051-0.7686 1.147-1.847 0.8928-9.869-0.2294-7.251-0.5541-9.596-1.667-12.03-1.793-3.916-4.11-5.993-7.262-6.505zm-3.362 0.9785c-0.597-0.05241-1.155 0.3279-1.155 1.187 0 0.9601 0.4322 1.392 1.392 1.392s1.322-0.362 1.167-1.167c-0.1684-0.8744-0.8076-1.361-1.405-1.413z" style="fill:#290a43"/>
 <path id="fTire" d="m76.22 129c-15.32 0.07564-27.82-12.22-27.97-27.52-0.1585-15.3 12.1-27.85 27.42-28.07 15.32-0.2344 27.95 11.93 28.28 27.52 1.9e-4 15.58-12.38 28-27.71 28.07z" style="fill:#000000"/>
 <path id="fRim" d="m53.68 100.2c-0.07105 12.92 8.889 23.35 22.49 23.29 12.33-0.06344 22.29-10.05 22.3-22.36 0.03574-13.1-10.53-22.34-22.4-22.25-11.67 0.03497-21.44 8.86-22.4 21.34zm23.26-18.63c0.08572 0.1098 0.2419 2.289 0.3471 4.844 0.1666 4.042 0.5953 9.398 0.835 10.58 0.3024 0.7264 0.9503 0.9125 1.502 0.871 3.766-0.854 7.868-2 11.26-3.006 1.882-0.5608 3.479-0.9855 3.546-0.944 0.06728 0.04188 0.2452 0.4421 0.3938 0.8893 0.293 0.8812 0.1544 1.467-0.3858 1.63-0.1431 0.04333-1.653 0.5877-3.356 1.21-4.903 1.79-10.14 4.037-10.54 4.518-0.5291 0.6382-0.4195 1.106 0.6827 2.917 2.247 3.162 5.758 8.37 7.489 11.41-0.368 0.3885-0.9646 1.047-1.584 1.298-0.3361 0-0.7575-0.4688-3.303-3.674-3.664-4.611-6.821-8.223-7.329-8.384-0.6426-0.2036-1.145 0.1412-2.529 1.737-3.497 3.888-5.187 6.509-8.326 10.45-0.7877-0.3634-1.338-0.8026-2.078-1.335 2.637-4.212 5.806-8.836 8.075-12.87 0.3048-0.635 0.1126-1.06-0.2164-1.601-0.5357-0.4523-5.938-2.597-10.99-4.362-3.634-1.27-3.411-1.172-3.526-1.534-0.1006-0.3164 0.3286-1.832 0.5588-1.974 5.22 1.261 10.34 2.809 15.14 3.707 0.8231-0.09974 1.189-0.5343 1.263-1.28 0.2962-2.011 0.7082-9.233 0.7144-13 0.00293-1.765 0.04384-2.113 0.2566-2.196 0.703-0.1782 1.455-0.06816 2.104 0.1057zm-3.134 0.07647c-0.05792 3.982-0.4389 7.482-1.279 11.41-0.2987 0.7846-2.208 2.256-3.139 2.423-3.402-0.6472-7.144-1.111-11.12-1.941-0.2529-0.1103-0.2645-0.2113-0.2758-0.3638-0.06873-0.9111 1.912-3.879 3.94-5.905 2.254-2.251 4.538-3.685 7.569-4.754 1.337-0.4708 3.205-0.8851 3.972-0.9129 0.1134-0.02518 0.2527-0.01317 0.3319 0.04604zm4.432-0.03241c0.7707 0.001188 2.641 0.4207 3.625 0.7458 3.986 1.317 7.758 3.87 10.06 6.992 1.13 1.534 2.269 3.658 2.069 3.857-4.23 0.7557-6.728 1.708-10.73 2.139-1.67 0.1522-3.636-1.312-3.959-2.876-0.2854-3.771-1.169-8.69-1.391-10.81 0.1284-0.0809 0.2355-0.03722 0.3321-0.05248zm1.324 15.32c0.02571 0.389-0.4903 0.6968-0.8194 0.3317-0.201-0.222-0.1156-0.5854 0.09946-0.7005 0.4206-0.2192 0.7144 0.108 0.7201 0.3689zm-6.766-0.3887c0.2322 0.002927 0.4837 0.1589 0.4785 0.4823-0.02714 0.4476-0.548 0.6027-0.8533 0.2708-0.1952-0.3433-0.03821-0.7028 0.3748-0.7533zm22.36 0.43c0.1004-0.002379 0.1507 0.03253 0.1957 0.08792 0.5011 0.615 0.671 5.358 0.2734 7.638-0.5007 2.867-1.913 6.17-3.581 8.373-1.844 2.437-2.443 2.919-2.931 2.348-1.325-2.995-5.064-7.608-5.408-10.14 0-0.826 0.5002-2.569 0.9006-3.134 3.797-2.022 7.509-3.982 10.55-5.164zm-38.34 0.3568c0.2986 0 9.55 4.159 10.21 4.589 0.6851 0.4472 1.623 3.065 1.434 4.004-1.182 2.631-2.516 4.913-3.948 7.614-1.414 2.673-1.285 2.522-1.851 2.165-0.791-0.4975-2.434-2.337-3.381-3.79-2.392-3.466-2.986-7.737-2.996-10.51-0.00733-2.062 0.01814-2.986 0.1378-3.625 0.03007-0.3105 0.2408-0.4527 0.3937-0.4476zm17.57 0.8686c-2.153 1.283-2.065 3.715-0.9915 5.08 2.39 2.672 6.114 1.052 6.25-2.128-0.3376-2.842-2.762-4.234-5.258-2.95zm7.234 4.64c-0.01832 0.3069-0.3951 0.5896-0.7593 0.3682-0.3535-0.2984-0.166-0.7363 0.1325-0.837 0.4472-0.1058 0.6099 0.2483 0.627 0.4688zm-10.18 0.1039c-0.06288 0.4805-0.6572 0.608-0.8746 0.2031-0.1407-0.1956-0.06103-0.4717 0.1304-0.6071 0.3944-0.25 0.7488 0.06787 0.7441 0.404zm4.582 3.167c0.2353 0.00695 0.442 0.1903 0.4604 0.4644-0.01978 0.469-0.5654 0.6316-0.8486 0.2873-0.2394-0.3378 0.00384-0.7619 0.3884-0.7515zm1.902 3.665c0.6198 0.2595 8.179 8.095 8.179 8.478-1.862 1.447-4.463 2.079-6.396 2.496-3.891 0.6854-8.161 0.2146-11.51-1.364-1.409-0.6891-1.923-1.003-1.923-1.173 3.35-3.535 5.929-6.377 8.015-8.43 1.223-0.2591 2.436-0.3169 3.642-0.00659z" style="fill:#fdfdfd"/>
 <path id="rTire" d="m337.5 129c-15.33 0.08291-27.84-12.21-27.99-27.52-0.1593-15.3 12.09-27.85 27.42-28.09 15.32-0.2357 27.95 11.93 28.28 27.52 0.00732 15.59-12.38 28-27.69 28.09z"/>
 <path id="rRim" d="m315.2 102.3c0.6809 11.82 10.51 21.15 22.38 21.1 14.21 0.09592 22.87-12.83 22.19-22.84-0.1156-12.95-11.15-21.96-22.27-21.67-14.07-0.152-23.29 12.18-22.29 23.4zm23.15-20.71c0.08529 0.1092 0.2406 2.276 0.3453 4.814 0.1782 4.328 0.6587 10.17 0.8814 10.72 0.05462 0.1357 0.3062 0.3687 0.5588 0.5178 0.4369 0.2576 0.5291 0.2551 1.855-0.0534 2.357-0.5486 6.656-1.718 10.23-2.783 1.873-0.5579 3.46-0.9804 3.528-0.9389 0.06752 0.04166 0.2439 0.4399 0.392 0.8845 0.2916 0.8765 0.1537 1.459-0.3838 1.622-0.1423 0.04311-1.644 0.5848-3.337 1.203-4.875 1.782-10.09 4.016-10.49 4.494-0.5262 0.635-0.4173 1.1 0.6788 2.9 1.52 2.5 3.392 5.325 5.626 8.487 0.2032 0.3262 1.768 2.425 1.826 2.858-0.366 0.3865-0.9592 1.041-1.577 1.291-0.3343 0-0.7536-0.4662-3.286-3.654-3.643-4.587-6.785-8.181-7.291-8.34-0.6392-0.2026-1.139 0.1405-2.516 1.728-1.893 2.183-3.559 4.26-6.066 7.566-1.158 1.529-2.157 2.8-2.219 2.822-0.7853-0.3592-1.327-0.8026-2.067-1.328-0.03393-0.03085 1.082-1.756 2.48-3.833s3.277-5.014 4.175-6.523c1.447-2.43 1.623-2.805 1.535-3.275-0.05473-0.2913-0.2234-0.6344-0.3748-0.7623-0.5328-0.4501-5.911-2.584-10.94-4.34-3.614-1.263-3.392-1.166-3.508-1.526-0.09999-0.3147 0.3268-1.822 0.5561-1.963 4.521 1.08 8.979 2.289 13.89 3.495 1.303 0.2582 1.413 0.2587 1.797 0.00774 0.2249-0.1472 0.4677-0.4245 0.539-0.6165 0.2914-0.7817 0.8-9.224 0.8066-13.4 0.00302-1.755 0.04358-2.102 0.2551-2.185 0.6908-0.1737 1.408-0.08199 2.095 0.102zm-3.119 0.07596c0.08345 0.08335 0.04618 0.9909-0.09044 2.198-0.6151 5.433-1.05 8.803-1.182 9.147-0.2971 0.7802-2.196 2.245-3.125 2.41-0.2624 0.04655-2.661-0.3059-5.333-0.7826-5.938-1.061-5.971-1.069-6.004-1.51-0.06835-0.9063 1.902-3.857 3.92-5.872 2.243-2.24 4.514-3.665 7.531-4.73 1.329-0.4683 3.189-0.8803 3.95-0.9078 0.1109-0.02536 0.2333 0.03215 0.3314 0.04567zm8.015 0.71c3.964 1.309 7.716 3.85 9.999 6.953 1.124 1.526 2.258 3.638 2.058 3.837-2.414 0.5319-4.382 0.8525-7.844 1.584-3.343 0.71-3.295 0.7076-4.351 0.1743-1.057-0.5334-2.24-1.731-2.421-2.49-0.5929-3.435-1.203-7.27-1.384-10.75 1.125-0.1277 2.685 0.2838 3.939 0.6891zm-2.32 14.53c-0.01122 0.4856-0.4932 0.5919-0.7588 0.3936-0.258-0.2016-0.1897-0.5528-0.06861-0.6736 0.3471-0.3394 0.7991-0.1071 0.8273 0.28zm-6.713-0.4179c0.2579-0.008986 0.5801 0.202 0.478 0.6183-0.04999 0.153-0.3416 0.5131-0.7721 0.1989-0.2538-0.2558-0.1844-0.7462 0.2942-0.8172zm22.25 0.437c0.09985-0.002398 0.15 0.03237 0.1948 0.08752 0.4989 0.6117 0.6677 5.328 0.272 7.596-0.4983 2.853-1.902 6.137-3.563 8.331-1.833 2.425-2.428 2.902-2.916 2.335-0.3104-0.3623-0.9129-1.396-3.369-5.782-1.751-3.125-2.014-3.687-2.014-4.313 0-0.8218 0.4978-2.554 0.896-3.12 3.818-1.716 7.285-4.026 10.5-5.136zm-27.99 4.924c0.6818 0.445 1.615 3.05 1.426 3.982-1.175 2.617-2.502 4.886-3.926 7.576-1.407 2.661-1.277 2.509-1.842 2.154-0.7868-0.4948-2.419-2.326-3.363-3.769-2.381-3.449-2.969-7.698-2.98-10.46-0.0123-3.442 0.06728-4.051 0.4455-4.051 0.3783 0 9.583 4.137 10.24 4.567zm7.267-3.815c-1.897 1.391-2.23 3.566-1.034 5.149 2.494 2.767 6.123 0.9541 6.25-2.232-0.2166-2.849-3.048-3.962-5.214-2.917zm7.21 4.677c-0.01461 0.4179-0.3949 0.609-0.7494 0.4137-0.328-0.2586-0.2069-0.7058 0.07576-0.8143 0.3108-0.1025 0.5806-0.00725 0.6737 0.4004zm-10.09 0.1795c-0.03562 0.346-0.5474 0.6609-0.8889 0.1679-0.02718 0-0.1932-0.5707 0.3434-0.6774 0.4477-0.0727 0.5815 0.3848 0.5456 0.5094zm4.408 3.147c0.2648-0.09766 0.6354 0.08445 0.625 0.4531-0.04127 0.5032-0.5887 0.5564-0.8174 0.3052-0.232-0.2547-0.09754-0.6514 0.1922-0.7586zm2.049 3.625c0.6165 0.258 8.137 8.053 8.137 8.436-1.853 1.439-4.441 2.068-6.363 2.483-0.9715 0.2075-5.049 0.4291-5.57 0.3025-2.804-0.434-5.782-0.9592-7.796-2.827 0-0.0676 1.677-1.934 3.726-4.148 2.362-2.551 3.917-4.102 4.245-4.238 1.217-0.2578 2.423-0.3155 3.623-0.0066z" style="fill:#fdfdfd"/>
 <path id="red" d="m388.5 53.58c-5.148-3.038 17.72-6.981 20.25-5.376 8.135 10.04 11.35 22.36 12.02 24.36-7.144 2.79-27.75-13.03-32.27-18.99z" style="fill:#aa0000"/>
 <path id="bodyTrim" d="m40.5 62.01c-7.721 0.1486-17.41 1.994-20.86 4.34-3.223 1.077-6.453 14.24-8.187 21.65 6.05 1.037 42.62-17.53 39.64-22.69 0.2325-2.501-4.584-3.412-10.59-3.296zm379.1 30.12c-15.61-0.0183-28.71 3.418-42.52 5.867-2.19 1.972-2.82 3.442 0.03216 3.786 14.57-0.6587 28.96-2.967 43.24-6.446zm-284.5 13.55-20.3 0.5756-0.1216 2.749 20.59-0.6757z" style="fill:#cccccc"/>
 <path id="body" d="m409.7 45.72c-13.53-0.4099-23.31-4.22-37.88-5.142-2.91-1.266-5.542-3.277-8.515-4.507-16.43-7.704-29.6-13.75-44.5-18.65-8.889-2.267-9.189-1.479-7.413-6.154-0.5692-1.086-3.253-0.1962-3.418 0.6379-0.4934 0.4924-0.9543 1.22-2.102 1.494-2.144 0.5102-4.07-0.1234-7.443-0.2016-20.67-3.25-47.06-3.766-67.32-2.651-18.91 0.2586-30.39 2.214-42.7 6.19-19.94 7.788-35.44 17.54-51.96 27.74-7.133 3.795-11 3.885-19.19 4.203-25.97 1.329-50.49 3.989-77.95 10.38-5.058 1.246-10.65 3.288-10.99 3.288-1.007-1.205 1.052-5.416 0.4012-6.412-1.519 1.787-2.307 4.959-2.175 6.895-4.129 2.187-5.753 0.1065-9.028 5.241-4.107 8.54-6.851 16.89-7.509 25.45-0.07578 4.975-0.2412 9.045 0.7485 14.39 0.4219 2.106 4.377 5.462 7.787 6.604 7.732 0.9409 16.91 2.494 23.72 2.798 5.328 1.432 4.136-2.188 2.502-4.975-1.954-10 0.4955-22.38 5.578-29.93 11.32-14.29 30.51-13.69 37.29-10.62 5.838 2.341 26.23 14.34 23.43 46.18l9.873 0.06479c66.47-0.5268 125.1-2.677 183.6-1.273-0.4591-12.86 2.894-31.21 12.7-38.55 8.782-8.754 29.85-11.54 41.51 0.6175 8.177 7.648 12.65 25.31 9.168 34.2 19.9-2.878 30.81-4.393 49.89-8.39 9.01-3.464 7.518-7.413 7.514-15.26 0-4.207 0.1426-7.724-0.00156-8.201-2.947-8.653-3.422-6.818-4.734-9.819-3.799-8.69-5.845-21.15-11.01-25.64zm10.01 24.83c-9.728-1.685-24.71-11.92-28.21-14.74-3.279-1.993-2.274-3.166 1.168-4.919 3.453-1.757 12.86-3.283 17.32 0.8745 4.395 5.713 7.214 12.63 9.719 18.79zm-398.2 12.54c-2.535 1.122-3.455 1.687-5.319 2.145 1.408-5.508 4.223-11.25 7.065-16.26 7.225-4.174 21.17-8.3 27.53-3.596-2.285 3.643-11.16 11.07-22.38 14.45-2.247 0.9319-4.739 2.344-6.882 3.268zm-1.579-16.43c1.271 3.557-2.038 8.101-3.385 11.21-2.137 4.404-4.837 9.885-4.989 9.517 2.399-4.216 3.966-19.96 8.374-20.71zm398.6 27.15c0.2174 1.83-0.2032 2.134-12.4 3.87-1.902 0.1263-24.47 3.967-30.4 3.092 0-0.4871 0.7023-3.001 6.057-3.347 13.92-1.676 33.78-4.428 36.75-3.616zm-283.5 14.04c-2.208 0.2351-15.88 0.7126-20.06 0.7592l0.1408-2.026c4.26-0.1453 11.48-0.2297 19.92-0.5106z" style="fill:#000000"/>
 <path id="dDTrim" d="m237.4 14.41-5.323 32.72-96.01 5.583c5.134-5.948 19.32-15.63 33.74-22.33 19.5-10.73 27.63-12.28 37.18-13.95 7.421-1.556 13.78-1.72 21.75-1.919zm-102.4 91.68-0.01618 1.759 94.4-1.881-0.4657-2.042zm66.86-53.71c10.74-1.117 15.08-1.075 20.9-0.3431l-0.9736 2.745c-6.811 1.243-13.37 0.4695-20.05 0.629-0.3927-1.01-0.6936-2.02 0.1146-3.031z" style="fill:#cccccc"/>
 <path id="dDoor" d="m135 106.1c-0.8018-7.441-1.693-16.01-2.64-24.9 0.4582-10.97-0.9717-26.11 3.817-28.58 14.6-0.9329 75.27-5.363 95.9-5.494-1.029 4.952-2.188 8.595-2.339 12.29-0.6327 4.778-1.838 15.11-1.73 20-0.7074 8.035-0.8024 13.75-0.2009 19.18l1.148 5.378zm6.09-55.77c27.61-1.896 59.7-4.342 91.25-5.365 1.062-5.657 3.098-18.33 4.766-28.96-23.28-0.05467-37.69 2.276-56.18 11.11-16.84 8.258-26.77 14.17-39.83 23.21zm69.99 4.428c6.215-0.2568 10.67 0.5901 10.71-1.086-0.01292-2.58-3.51-1.621-10.54-1.43-3.99 0.2764-9.406-0.4305-9.393 1.344 0.03108 2.482 4.458 1.34 9.221 1.172z" style="fill:#000000"/>
 <path id="rDTrim" d="m232.1 47.13c33.98-0.7374 68.93-0.2995 103.3-0.2525-4.207-9.167-30.73-26.67-49.44-29.69-16.08-3.174-32.12-2.706-48.53-2.776-0.09787 0.6864-0.2225 1.066-0.2884 1.603-1.333 10.88-3.906 22.33-5.029 31.11zm66.13 57.89c0.2097-0.8279 0.05112-1.651-1.864-2.426l-67.4 1.354 0.4434 2.057zm5.907-54.59-0.1129 3.555 19.74 0.2484 0.6659-4.145z" style="fill:#cccccc"/>
 <path id="rDoor" d="m314.1 50.5c4.669 0.4675 9.054-0.5855 9.534 1.882 0.1967 2.142-3.707 1.092-9.608 1.236-5.91-0.1907-9.894 0.3982-9.661-1.216 0.127-2.127 3.368-1.585 9.735-1.901zm-81.69-5.537c1.127-9.259 2.889-18.65 4.767-28.96 6.579-0.2714 31.85-0.3828 50.6 3.669 7.337 1.895 29.78 9.972 40.28 25.23-31.74-0.8146-63.52-0.2815-95.65 0.06297zm-3.409 58.98 66.62-1.34c2.174-0.03853 3.095 2.135 2.587 2.405l1.466 0.02457c-0.4-0.08874 2.997-13.55 6.673-19.72 2.613-4.742 5.496-8.414 11.03-13.15l12.78-12.27c3.984-3.954 4.282-5.048 5.958-8.823 0.197-1.766-0.03793-2.953-0.6798-4.195-30.85-0.1447-63.87-0.6027-103.3 0.2525-0.7193 3.995-2.146 8.168-2.396 12.35-1.077 6.262-1.553 12.88-1.664 20-0.8 8.944-0.7255 13.57-0.2225 19.21 0.2707 1.321 0.7595 3.532 1.141 5.255z" style="fill:#000000"/>
</svg>
